<svg width="186" height="156" viewBox="0 0 186 156" fill="none" xmlns="http://www.w3.org/2000/svg">
<path d="M179.94 80.943L88.8954 117.1L48.7006 97.9176L8.50586 78.7352V30.6024L100.281 1L179.94 32.8564V80.943Z" fill="black"/>
<path d="M8.50586 78.7352L100.281 47.4201M8.50586 78.7352V30.6024L100.281 1M8.50586 78.7352L48.7006 97.9176L88.8954 117.1L179.94 80.943M179.94 80.943L100.281 47.4201M179.94 80.943V32.8564L100.281 1M100.281 47.4201V1" stroke="white"/>
<path d="M2 88.1808L76.8193 125.265M2 88.1808L8.30499 88.8675M2 88.1808L5.36266 92.3013M76.8193 125.265L74.2973 121.488M76.8193 125.265H71.3549" stroke="white"/>
<path d="M98.9397 127.217L184.819 92.0843M98.9397 127.217L103.183 122.366M98.9397 127.217L105.813 127.54M184.819 92.0843L178.821 91.309M184.819 92.0843L181.873 96.7502" stroke="white"/>
<path d="M75.9566 57.4025L75.9566 45.3251L99.5798 37.0951L112.336 42.7834L111.866 54.9944L110.662 55.5399L111.072 44.7147L89.4667 52.1665L89.0815 62.9023L87.8795 63.4093L75.9566 57.4025Z" fill="black"/>
<path d="M75.9566 45.3251L75.9566 57.4025L87.8795 63.4093M75.9566 45.3251L99.5798 37.0951L112.336 42.7834M75.9566 45.3251L88.425 50.8684M87.8795 63.4093L88.425 50.8684M87.8795 63.4093L89.0815 62.9023L89.4667 52.1665L111.072 44.7147L110.662 55.5399L111.866 54.9944L112.336 42.7834M112.336 42.7834L88.425 50.8684" stroke="white"/>
<path d="M103.413 66.9551L104.122 67.3203L104.834 66.9618L104.859 61.9486L111.626 58.3394L111.606 62.4113L112.315 62.6775L112.849 62.4172L112.849 47.0748L111.851 46.6437L104.207 50.1548L104.205 50.675L103.492 51.0335L103.486 52.4055L103.131 52.2305L95.9759 55.6228L95.9759 62.4268L96.6829 63.1237L97.3959 62.6069L97.3913 57.5549L103.438 61.9419L103.413 66.9551Z" fill="black"/>
<path d="M104.122 67.3203L103.413 66.9551L103.438 61.9419M104.122 67.3203L104.201 51.3987M104.122 67.3203L104.834 66.9618L104.859 61.9486M103.492 51.0335L104.201 51.3987M103.492 51.0335L104.205 50.675M103.492 51.0335L103.486 52.4055M104.201 51.3987L104.913 51.0402M104.913 51.0402L104.205 50.675M104.913 51.0402L104.915 50.6784L112.339 47.506M104.913 51.0402L104.859 61.9486M104.205 50.675L104.207 50.1548L111.851 46.6437L112.849 47.0748M112.339 47.506L112.849 47.0748M112.339 47.506L112.339 57.996M112.849 47.0748L112.849 62.4172L112.315 62.6775M112.315 62.6775L111.606 62.4113L111.626 58.3394M112.315 62.6775L112.339 57.996M111.626 58.3394L112.339 57.996M111.626 58.3394L104.859 61.9486M103.438 61.9419L97.3913 57.5549M103.438 61.9419L103.444 60.7282M96.6829 63.1237L96.6829 57.1317L97.3913 57.5549M96.6829 63.1237L97.3959 62.6069L97.3913 57.5549M96.6829 63.1237L95.9759 62.4268L95.9759 55.6228M95.9759 55.6228L103.444 60.7282M95.9759 55.6228L103.131 52.2305L103.486 52.4055M103.444 60.7282L103.486 52.4055" stroke="white"/>
<path d="M151.865 56.0061L151.072 63.8381L112.694 78.5515L112.101 85.4847L132.865 97.7225L172.014 81.2198L173.785 80.5514L175.344 65.1671L154.45 55.7028L151.865 56.0061Z" fill="black"/>
<path d="M112.694 78.5515L133.394 90.15M112.694 78.5515L151.072 63.8381M112.694 78.5515L112.101 85.4847L132.865 97.7225M133.394 90.15L172.751 73.9472M133.394 90.15L132.865 97.7225M172.751 73.9472L173.545 66.1152M172.751 73.9472L172.014 81.2198M172.751 73.9472L151.072 63.8381M173.545 66.1152L151.865 56.0061M173.545 66.1152L175.344 65.1671M151.865 56.0061L151.072 63.8381M151.865 56.0061L154.45 55.7028L175.344 65.1671M132.865 97.7225L172.014 81.2198M172.014 81.2198L173.785 80.5514L175.344 65.1671" stroke="white"/>
<path d="M14.6868 76.4699V40.0361L40.0603 32.8795L51.9338 37.1084V74.5181L50.7952 74.88L41.0362 77.9822L38.7591 78.7061L28.4424 81.9855L27.3735 82.3253L14.6868 76.4699Z" fill="black"/>
<path d="M14.6868 40.0361V76.4699L27.3735 82.3253M14.6868 40.0361L27.3735 43.9398M14.6868 40.0361L40.0603 32.8795L51.9338 37.1084M27.3735 82.3253V43.9398M27.3735 82.3253L38.7591 78.7061M51.9338 37.1084V74.5181L41.0362 77.9822M51.9338 37.1084L27.3735 43.9398M38.7591 40.7491L28.4424 43.6425V81.9855L38.7591 78.7061M38.7591 40.7491V78.7061M38.7591 40.7491L41.0362 40.1104M38.7591 78.7061L41.0362 77.9822M41.0362 77.9822L50.7952 74.88V37.3734L41.0362 40.1104M41.0362 77.9822V40.1104" stroke="white"/>
</svg>
