<svg width="186" height="163" viewBox="0 0 186 163" fill="none" xmlns="http://www.w3.org/2000/svg">
<path d="M179.94 80.943L88.8954 117.1L48.7006 97.9176L8.50586 78.7352V30.6024L100.281 1L179.94 32.8564V80.943Z" fill="black"/>
<path d="M8.50586 78.7352L100.281 47.4201M8.50586 78.7352V30.6024L100.281 1M8.50586 78.7352L48.7006 97.9176L88.8954 117.1L179.94 80.943M179.94 80.943L100.281 47.4201M179.94 80.943V32.8564L100.281 1M100.281 47.4201V1" stroke="white"/>
<path d="M2 88.1808L76.8193 125.265M2 88.1808L8.30499 88.8675M2 88.1808L5.36266 92.3013M76.8193 125.265L74.2973 121.488M76.8193 125.265H71.3549" stroke="white"/>
<path d="M98.9397 127.217L184.819 92.0843M98.9397 127.217L103.183 122.366M98.9397 127.217L105.813 127.54M184.819 92.0843L178.821 91.309M184.819 92.0843L181.873 96.7502" stroke="white"/>
<path d="M75.9566 57.4025L75.9566 45.3251L99.5798 37.0951L112.336 42.7834L111.866 54.9944L110.662 55.5399L111.072 44.7147L89.4667 52.1665L89.0815 62.9023L87.8795 63.4093L75.9566 57.4025Z" fill="black"/>
<path d="M75.9566 45.3251L75.9566 57.4025L87.8795 63.4093M75.9566 45.3251L99.5798 37.0951L112.336 42.7834M75.9566 45.3251L88.425 50.8684M87.8795 63.4093L88.425 50.8684M87.8795 63.4093L89.0815 62.9023L89.4667 52.1665L111.072 44.7147L110.662 55.5399L111.866 54.9944L112.336 42.7834M112.336 42.7834L88.425 50.8684" stroke="white"/>
<path d="M103.413 66.9551L104.122 67.3203L104.834 66.9618L104.859 61.9486L111.626 58.3394L111.606 62.4113L112.315 62.6775L112.849 62.4172L112.849 47.0748L111.851 46.6437L104.207 50.1548L104.205 50.675L103.492 51.0335L103.486 52.4055L103.131 52.2305L95.9759 55.6228L95.9759 62.4268L96.6829 63.1237L97.3959 62.6069L97.3913 57.5549L103.438 61.9419L103.413 66.9551Z" fill="black"/>
<path d="M104.122 67.3203L103.413 66.9551L103.438 61.9419M104.122 67.3203L104.201 51.3987M104.122 67.3203L104.834 66.9618L104.859 61.9486M103.492 51.0335L104.201 51.3987M103.492 51.0335L104.205 50.675M103.492 51.0335L103.486 52.4055M104.201 51.3987L104.913 51.0402M104.913 51.0402L104.205 50.675M104.913 51.0402L104.915 50.6784L112.339 47.506M104.913 51.0402L104.859 61.9486M104.205 50.675L104.207 50.1548L111.851 46.6437L112.849 47.0748M112.339 47.506L112.849 47.0748M112.339 47.506L112.339 57.996M112.849 47.0748L112.849 62.4172L112.315 62.6775M112.315 62.6775L111.606 62.4113L111.626 58.3394M112.315 62.6775L112.339 57.996M111.626 58.3394L112.339 57.996M111.626 58.3394L104.859 61.9486M103.438 61.9419L97.3913 57.5549M103.438 61.9419L103.444 60.7282M96.6829 63.1237L96.6829 57.1317L97.3913 57.5549M96.6829 63.1237L97.3959 62.6069L97.3913 57.5549M96.6829 63.1237L95.9759 62.4268L95.9759 55.6228M95.9759 55.6228L103.444 60.7282M95.9759 55.6228L103.131 52.2305L103.486 52.4055M103.444 60.7282L103.486 52.4055" stroke="white"/>
<path d="M151.865 56.0061L151.072 63.8381L112.694 78.5515L112.101 85.4847L132.865 97.7225L172.014 81.2198L173.785 80.5514L175.344 65.1671L154.45 55.7028L151.865 56.0061Z" fill="black"/>
<path d="M112.694 78.5515L133.394 90.15M112.694 78.5515L151.072 63.8381M112.694 78.5515L112.101 85.4847L132.865 97.7225M133.394 90.15L172.751 73.9472M133.394 90.15L132.865 97.7225M172.751 73.9472L173.545 66.1152M172.751 73.9472L172.014 81.2198M172.751 73.9472L151.072 63.8381M173.545 66.1152L151.865 56.0061M173.545 66.1152L175.344 65.1671M151.865 56.0061L151.072 63.8381M151.865 56.0061L154.45 55.7028L175.344 65.1671M132.865 97.7225L172.014 81.2198M172.014 81.2198L173.785 80.5514L175.344 65.1671" stroke="white"/>
<path d="M14.6868 76.4699V40.0361L40.0603 32.8795L51.9338 37.1084V74.5181L50.7952 74.88L41.0362 77.9822L38.7591 78.7061L28.4424 81.9855L27.3735 82.3253L14.6868 76.4699Z" fill="black"/>
<path d="M14.6868 40.0361V76.4699L27.3735 82.3253M14.6868 40.0361L27.3735 43.9398M14.6868 40.0361L40.0603 32.8795L51.9338 37.1084M27.3735 82.3253V43.9398M27.3735 82.3253L38.7591 78.7061M51.9338 37.1084V74.5181L41.0362 77.9822M51.9338 37.1084L27.3735 43.9398M38.7591 40.7491L28.4424 43.6425V81.9855L38.7591 78.7061M38.7591 40.7491V78.7061M38.7591 40.7491L41.0362 40.1104M38.7591 78.7061L41.0362 77.9822M41.0362 77.9822L50.7952 74.88V37.3734L41.0362 40.1104M41.0362 77.9822V40.1104" stroke="white"/>
<path d="M73.6989 156.114L68.2102 158.909V157.818L72.4205 155.79L72.3864 155.858V155.688L72.4205 155.756L68.2102 153.727V152.636L73.6989 155.432V156.114ZM82.2567 151.273V160H81.1999V152.381H81.1488L79.0181 153.795V152.722L81.1999 151.273H82.2567ZM87.8349 151.273V160H86.7781V152.381H86.7269L84.5962 153.795V152.722L86.7781 151.273H87.8349ZM90.5792 160.068C90.369 160.068 90.1886 159.993 90.038 159.842C89.8874 159.692 89.8121 159.511 89.8121 159.301C89.8121 159.091 89.8874 158.911 90.038 158.76C90.1886 158.609 90.369 158.534 90.5792 158.534C90.7894 158.534 90.9698 158.609 91.1204 158.76C91.271 158.911 91.3462 159.091 91.3462 159.301C91.3462 159.44 91.3107 159.568 91.2397 159.685C91.1715 159.801 91.0792 159.895 90.9627 159.966C90.8491 160.034 90.7212 160.068 90.5792 160.068ZM95.6854 160.119C95.1854 160.119 94.7351 160.02 94.3345 159.821C93.9339 159.622 93.6129 159.349 93.3714 159.003C93.13 158.656 92.9979 158.261 92.9751 157.818H93.9979C94.0376 158.213 94.2166 158.54 94.5348 158.798C94.8558 159.054 95.2393 159.182 95.6854 159.182C96.0433 159.182 96.3615 159.098 96.6399 158.93C96.9212 158.763 97.1413 158.533 97.3004 158.24C97.4624 157.945 97.5433 157.611 97.5433 157.239C97.5433 156.858 97.4595 156.518 97.2919 156.22C97.1271 155.919 96.8999 155.682 96.6101 155.509C96.3203 155.335 95.9893 155.247 95.6172 155.244C95.3501 155.241 95.076 155.283 94.7947 155.368C94.5135 155.45 94.282 155.557 94.1001 155.688L93.1115 155.568L93.6399 151.273H98.174V152.21H94.5263L94.2195 154.784H94.2706C94.4496 154.642 94.674 154.524 94.9439 154.43C95.2138 154.337 95.495 154.29 95.7876 154.29C96.3217 154.29 96.7976 154.418 97.2152 154.673C97.6357 154.926 97.9652 155.273 98.2038 155.713C98.4453 156.153 98.5661 156.656 98.5661 157.222C98.5661 157.778 98.4411 158.276 98.1911 158.713C97.9439 159.148 97.603 159.491 97.1683 159.744C96.7337 159.994 96.2393 160.119 95.6854 160.119ZM103.651 160V153.455H104.623V154.477H104.708C104.844 154.128 105.064 153.857 105.368 153.663C105.672 153.467 106.037 153.369 106.463 153.369C106.895 153.369 107.255 153.467 107.542 153.663C107.831 153.857 108.057 154.128 108.219 154.477H108.287C108.455 154.139 108.706 153.871 109.042 153.672C109.377 153.47 109.779 153.369 110.248 153.369C110.833 153.369 111.311 153.553 111.684 153.919C112.056 154.283 112.242 154.849 112.242 155.619V160H111.236V155.619C111.236 155.136 111.104 154.791 110.84 154.584C110.576 154.376 110.265 154.273 109.907 154.273C109.446 154.273 109.09 154.412 108.837 154.69C108.584 154.966 108.458 155.315 108.458 155.739V160H107.435V155.517C107.435 155.145 107.314 154.845 107.073 154.618C106.831 154.388 106.52 154.273 106.14 154.273C105.878 154.273 105.634 154.342 105.407 154.482C105.182 154.621 105 154.814 104.861 155.061C104.725 155.305 104.657 155.588 104.657 155.909V160H103.651ZM113.757 155.636V154.972L115.751 153.199C115.95 153.023 116.116 152.865 116.25 152.726C116.383 152.587 116.484 152.452 116.552 152.321C116.62 152.19 116.654 152.051 116.654 151.903C116.654 151.648 116.556 151.445 116.36 151.294C116.164 151.143 115.922 151.068 115.632 151.068C115.325 151.068 115.078 151.151 114.89 151.315C114.703 151.477 114.609 151.69 114.609 151.955H113.723C113.723 151.469 113.903 151.078 114.264 150.783C114.625 150.484 115.086 150.335 115.649 150.335C116.024 150.335 116.353 150.403 116.637 150.54C116.922 150.673 117.143 150.858 117.302 151.094C117.461 151.327 117.541 151.591 117.541 151.886C117.541 152.119 117.494 152.335 117.4 152.534C117.306 152.733 117.16 152.939 116.961 153.152C116.762 153.365 116.507 153.608 116.194 153.881L115.086 154.852V154.886H117.694V155.636H113.757Z" fill="white"/>
</svg>
