<svg width="200" height="200" viewBox="0 0 200 200" fill="none" xmlns="http://www.w3.org/2000/svg">
<path d="M183.329 115.79L162.326 102.362L157.179 103.7C153.853 107.197 146.977 116.241 146.086 124.44C147 124.431 147.739 127.101 143.39 137.846C140.379 143.437 139.965 149.245 135.817 147.026C131.669 144.808 136.011 133.24 138.713 129.103C138.467 128.595 140.689 124.813 141.081 123.68C142.389 119.904 146.613 110.082 153.042 100.997L152.264 95.3617L135.301 82.9443C135.413 81.9527 135.947 80.1144 137.212 78.4075L188.485 112.389C187.11 114.381 185.271 116.128 183.329 115.79Z" fill="#8BB5FF"/>
<path d="M139.991 75.8873L190.438 108.791C190.032 109.781 189.351 111.134 188.485 112.389L137.212 78.4075C137.903 77.475 138.813 76.5818 139.991 75.8873Z" fill="#363637"/>
<path d="M137.212 78.4075C135.947 80.1144 135.413 81.9527 135.301 82.9443L152.264 95.3617L153.042 100.997C146.613 110.082 142.389 119.904 141.081 123.68C140.689 124.813 138.467 128.595 138.713 129.103C136.011 133.24 131.669 144.808 135.817 147.026C139.965 149.245 140.379 143.437 143.39 137.846C147.739 127.101 147 124.431 146.086 124.44C146.977 116.241 153.853 107.197 157.179 103.7L162.326 102.362L183.329 115.79C185.271 116.128 187.11 114.381 188.485 112.389M137.212 78.4075C137.903 77.475 138.813 76.5818 139.991 75.8873L190.438 108.791C190.032 109.781 189.351 111.134 188.485 112.389M137.212 78.4075L188.485 112.389M141.049 128.84C140.95 129.781 141.491 131.334 144.445 130.017M139.299 131.355C139.582 132.884 140.836 135.42 143.59 133.33M138.121 134.752C138.19 136.336 139.144 138.95 142.412 136.727" stroke="black"/>
<path d="M57.1231 146.772C57.1231 146.772 91.2948 25.4476 91.005 23.1207C90.7152 20.7937 88.3226 20.0102 86.3689 19.8404C84.4151 19.6705 82.8008 21.2564 82.213 22.3562L64.9781 84.7315L48.331 146.007C32.8994 142.364 26.3925 149.278 24.4802 154.291L81.14 160.218C81.14 151.5 66.0641 145.823 57.1231 146.772Z" fill="#B21F1F"/>
<path d="M83 182C90.5 182 88.0551 176.638 81.14 160.218L24.4802 154.291C24.4802 154.291 22 165.5 17.9686 168.552C13.9373 171.604 11 171.994 16.5 172.494L18.5 177.494C20.3334 175.827 26.2001 169.5 27.0001 165.5C27.9755 160.623 25.145 176.672 23.6132 177.463C24.7974 177.458 28.7395 177.718 29.5001 180C30.1668 176 31.9001 167.2 33.5001 164C35.1001 160.8 33.1668 172.667 32.0001 179C32.5001 178.667 34.2 179.7 37 180.5C40.5 181.5 38.0001 168.5 40.0001 163L41.5 182C42.5 181.5 45.0001 178.9 47.0001 180.5L47.0001 163L49.5 182C52.5 180 56.5 179.2 58.5 182L55.5 163C57.5 167.833 61.5 178.4 61.5 182C63.3333 180.5 67.6 178.4 70 182L67 166.559C69.6666 171.372 74.5 181.2 72.5 182C72.4304 182.028 72.3689 182.052 72.3152 182.073C73.5614 181.632 78.3564 180.121 79.5509 182C80.8221 184 77.0466 171.833 75 165.5L83 182Z" fill="#FDD64A"/>
<path d="M81.14 160.218C81.14 151.5 66.0641 145.823 57.1231 146.772C57.1231 146.772 91.2948 25.4476 91.005 23.1207C90.7152 20.7937 88.3226 20.0102 86.3689 19.8404C84.4151 19.6705 82.8008 21.2564 82.213 22.3562L64.9781 84.7315L48.331 146.007C32.8994 142.364 26.3925 149.278 24.4802 154.291M81.14 160.218C88.0551 176.638 90.5 182 83 182L75 165.5C77.0466 171.833 80.8222 184 79.5509 182C78.3564 180.121 73.5614 181.632 72.3152 182.073M81.14 160.218L24.4802 154.291M24.4802 154.291C24.4802 154.291 22 165.5 17.9686 168.552C13.9373 171.604 11 171.994 16.5 172.494L18.5 177.494C20.3334 175.827 26.2001 169.5 27.0001 165.5C27.9755 160.623 25.145 176.672 23.6132 177.463M72.5 182C74.5 181.2 69.6666 171.372 67 166.559L70 182C67.6 178.4 63.3333 180.5 61.5 182C61.5 178.4 57.5 167.833 55.5 163L58.5 182C56.5 179.2 52.5 180 49.5 182L47.0001 163L47.0001 180.5C45.0001 178.9 42.5 181.5 41.5 182L40.0001 163C38.0001 168.5 40.5 181.5 37 180.5C34.2 179.7 32.5001 178.667 32.0001 179C33.1668 172.667 35.1001 160.8 33.5001 164C31.9001 167.2 30.1668 176 29.5001 180C28.7395 177.718 24.7974 177.458 23.6132 177.463M72.5 182C72.4304 182.028 72.3689 182.052 72.3152 182.073M72.5 182C71.8791 182.248 71.9035 182.219 72.3152 182.073M23.6132 177.463C23.2404 177.465 23.1409 177.494 23.5001 177.494C23.5369 177.494 23.5747 177.483 23.6132 177.463Z" stroke="black"/>
<path d="M107.306 57.3361C108.483 61.6728 109.177 68.3049 102.861 69.5573C93.3273 71.4479 110.276 68.612 115.043 81.8461C115.395 82.8212 115.662 83.6043 115.862 84.2162C115.002 80.2407 114.002 70.7328 121.399 67.2889C133.038 61.87 113.251 72.759 107.306 57.3361Z" fill="#FFE600" fill-opacity="0.84"/>
<path d="M115.043 81.8461C110.276 68.612 93.3273 71.4479 102.861 69.5573C109.177 68.3049 108.483 61.6728 107.306 57.3361M115.043 81.8461C115.395 82.8212 115.662 83.6043 115.862 84.2162M115.043 81.8461C116.916 87.0446 116.418 86.7881 115.862 84.2162M107.306 57.3361C113.251 72.759 133.038 61.87 121.399 67.2889C114.002 70.7328 115.002 80.2407 115.862 84.2162M107.306 57.3361C107.029 56.6161 106.781 55.8389 106.569 55C106.796 55.6339 107.062 56.4355 107.306 57.3361Z" stroke="black"/>
<path d="M48.8855 62.6301C49.1282 59.5952 50.002 55.0891 53.0947 55.0252C57.7634 54.9289 49.5576 54.7501 49.7646 45.3451C49.7799 44.6522 49.7986 44.0974 49.8176 43.665C49.4955 46.4204 48.2456 52.8813 44.269 54.2741C38.0119 56.4657 48.9498 51.6221 48.8855 62.6301Z" fill="#FFE600" fill-opacity="0.84"/>
<path d="M44.269 54.2741C48.2456 52.8813 49.4955 46.4204 49.8176 43.665M44.269 54.2741C38.0119 56.4657 48.9498 51.6221 48.8855 62.6301M44.269 54.2741C50.3356 52.1492 50.0562 38.2291 49.8176 43.665M48.8855 62.6301C49.1282 59.5952 50.002 55.0891 53.0947 55.0252C57.7634 54.9289 49.5576 54.7501 49.7646 45.3451C49.7799 44.6522 49.7986 44.0974 49.8176 43.665M48.8855 62.6301C48.8825 63.144 48.8556 63.6923 48.8017 64.2776C48.8119 63.8272 48.8351 63.2604 48.8855 62.6301Z" stroke="black"/>
<path fill-rule="evenodd" clip-rule="evenodd" d="M108.647 118.955C108.435 123.886 107.251 128.954 106.131 133.747C104.065 142.593 102.218 150.503 107.101 154.886C108.896 156.498 110.769 157.447 113.038 157.444L108.647 118.955Z" fill="white"/>
<path d="M157.349 112H108.647C102.463 113.545 105.812 118.826 108.647 118.955H157.349C163.533 116.636 160.699 112 157.349 112Z" fill="#2AE7B9"/>
<path d="M157.349 118.955H108.647L113.038 157.444C120.283 157.435 131.576 147.728 157.349 118.955Z" fill="#2AE7B9"/>
<path d="M153.483 163L157.349 118.955C131.576 147.728 120.283 157.435 113.038 157.444L113.672 163H153.483Z" fill="#2AE7B9"/>
<path d="M157.349 118.955C163.533 116.636 160.699 112 157.349 112H108.647C102.463 113.545 105.812 118.826 108.647 118.955M157.349 118.955L153.483 163H113.672L113.038 157.444M157.349 118.955H108.647M157.349 118.955C131.576 147.728 120.283 157.435 113.038 157.444M108.647 118.955C108.435 123.886 107.251 128.954 106.131 133.747C104.065 142.593 102.218 150.503 107.101 154.886C108.896 156.498 110.769 157.447 113.038 157.444M108.647 118.955L113.038 157.444" stroke="black"/>
<path fill-rule="evenodd" clip-rule="evenodd" d="M73.6443 152.675C75.4475 143.6 84.1522 142.119 92.5778 143.949C92.7081 144.122 92.8573 144.302 93.0229 144.482C93.1663 144.639 93.3219 144.795 93.4882 144.947C93.7251 145.164 93.9835 145.373 94.2589 145.56C94.5953 145.789 94.957 145.987 95.3354 146.129C95.7854 146.299 96.2591 146.391 96.7419 146.366C97.3237 146.336 97.9187 146.136 98.5019 145.698C98.8376 145.446 99.1693 145.115 99.4923 144.693C99.6117 144.536 99.73 144.367 99.8467 144.185C109.816 135.687 116.745 140.064 118.006 144.775C118.006 144.775 118.338 147.577 118.971 151.034C119.675 154.877 120.752 159.53 122.16 162.035C123.743 164.852 130.114 167.824 134.747 169.986C137.939 171.475 140.307 172.58 139.717 172.984C139.383 173.213 137.617 174.197 134.922 175.487C134.633 175.626 134.333 175.768 134.023 175.913C132.729 176.517 131.26 177.174 129.66 177.842C128.029 178.522 126.263 179.214 124.408 179.876C121.984 180.74 119.409 181.551 116.79 182.214C115.53 182.533 114.26 182.817 112.992 183.056C108.731 183.86 104.49 184.154 100.72 183.536C98.8791 183.233 97.1506 182.714 95.5867 181.929L95.5516 181.912C92.4107 180.333 89.5095 178.48 86.9122 176.453C84.3373 174.444 82.0612 172.264 80.1464 170.011C78.9585 168.613 77.9097 167.188 77.0149 165.758C74.156 161.188 72.8698 156.573 73.6443 152.675Z" fill="white"/>
<path d="M92.5778 143.949C92.5778 143.949 73.6118 31.2425 74.1501 29.1843C74.6883 27.126 75.8524 26.6449 77.736 26.7061C79.6196 26.7673 80.9818 28.3683 81.419 29.4204L90.8515 87.3288L99.8467 144.185C99.73 144.367 99.6117 144.536 99.4923 144.693C99.1693 145.115 98.8376 145.446 98.5019 145.698C97.9187 146.136 97.3237 146.336 96.7419 146.366C96.2591 146.391 95.7854 146.299 95.3354 146.129C94.957 145.987 94.5953 145.789 94.2589 145.56C93.9835 145.373 93.7251 145.164 93.4882 144.947C93.3219 144.795 93.1663 144.639 93.0229 144.482C92.8573 144.302 92.7081 144.122 92.5778 143.949Z" fill="#2372FE"/>
<path d="M99.8467 144.185C109.816 135.687 116.745 140.064 118.006 144.775C118.006 144.775 118.338 147.577 118.971 151.034M99.8467 144.185L90.8515 87.3288L81.419 29.4204C80.9818 28.3683 79.6196 26.7673 77.736 26.7061C75.8524 26.6449 74.6883 27.126 74.1501 29.1843C73.6118 31.2425 92.5778 143.949 92.5778 143.949M99.8467 144.185C99.73 144.367 99.6117 144.536 99.4923 144.693M99.8467 144.185C104.896 146.252 116.428 152.715 122.16 162.035M99.8467 144.185C104.385 142.43 114.563 141.342 118.971 151.034M92.5778 143.949C84.1522 142.119 75.4475 143.6 73.6443 152.675C72.8698 156.573 74.156 161.188 77.0149 165.758M92.5778 143.949C87.8427 144.487 78.1009 149.602 77.0149 165.758M92.5778 143.949C92.7081 144.122 92.8573 144.302 93.0229 144.482M95.5867 181.929C97.1506 182.714 98.8791 183.233 100.72 183.536M95.5867 181.929C95.575 181.923 95.5633 181.917 95.5516 181.912M95.5867 181.929L95.5516 181.912M122.16 162.035C120.752 159.53 119.675 154.877 118.971 151.034M122.16 162.035C123.743 164.852 130.114 167.824 134.747 169.986C137.939 171.475 140.307 172.58 139.717 172.984C139.383 173.213 137.617 174.197 134.922 175.487M99.7962 145.74C102.301 153.602 111.78 171.03 129.66 177.842M129.66 177.842C131.26 177.174 132.729 176.517 134.023 175.913M129.66 177.842C128.029 178.522 126.263 179.214 124.408 179.876M96.7419 146.366C98.1511 161.032 98.1553 185.854 112.992 183.056M96.7419 146.366C96.2591 146.391 95.7854 146.299 95.3354 146.129M96.7419 146.366C97.3237 146.336 97.9187 146.136 98.5019 145.698M112.992 183.056C108.731 183.86 104.49 184.154 100.72 183.536M112.992 183.056C114.26 182.817 115.53 182.533 116.79 182.214M94.2589 145.56C93.9835 145.373 93.7251 145.164 93.4882 144.947M94.2589 145.56C94.5953 145.789 94.957 145.987 95.3354 146.129M94.2589 145.56C90.9948 155.82 86.6916 177.431 95.5516 181.912M77.0149 165.758C77.9097 167.188 78.9585 168.613 80.1464 170.011M77.0149 165.758C73.3113 146.125 86.1438 143.394 93.0229 144.482M93.4882 144.947C89.7468 148.136 81.8405 157.612 80.1464 170.011M93.4882 144.947C93.3219 144.795 93.1663 144.639 93.0229 144.482M80.1464 170.011C82.0612 172.264 84.3373 174.444 86.9122 176.453M95.3354 146.129C93.9531 154.823 93.0948 174.476 100.72 183.536M98.5019 145.698C100.537 157.124 107.043 180.422 116.79 182.214M98.5019 145.698C98.8376 145.446 99.1693 145.115 99.4923 144.693M116.79 182.214C119.409 181.551 121.984 180.74 124.408 179.876M99.4923 144.693C104.945 153.519 119.485 172.119 134.023 175.913M99.4923 144.693C108.655 154.201 128.57 173.672 134.922 175.487M99.4923 144.693C103.356 157.701 113.749 182.95 124.408 179.876M134.023 175.913C134.333 175.768 134.633 175.626 134.922 175.487M93.4691 145.535C89.2667 152.833 82.072 169.234 86.9122 176.453M86.9122 176.453C89.5095 178.48 92.4107 180.333 95.5516 181.912" stroke="black"/>
</svg>
