<svg width="200" height="200" viewBox="0 0 200 200" fill="none" xmlns="http://www.w3.org/2000/svg">
<path fill-rule="evenodd" clip-rule="evenodd" d="M83.232 90.4895C99.3157 99.6333 86.0012 106.169 77.3335 108.294L73.215 108.292C51.542 118.009 56.9746 101.777 62.4001 92.4455C47.5163 94.6005 51.1276 82.1248 54.7937 75.6175C39.5398 71.9267 47.0516 67.4884 52.7143 65.7306C39.0595 57.664 47.5503 56.6387 53.5025 57.1344C56.8828 53.8937 59.1245 52.1836 59.8228 51.7336C67.4987 47.4632 69.0243 54.2142 68.8277 58.1235C79.6113 52.4298 76.758 60.2965 73.9834 64.9415C85.3568 62.4411 80.3323 71.4735 76.3984 76.3023C91.8721 77.3405 87.4015 86.193 83.232 90.4895Z" fill="#7A2C2C"/>
<path d="M85.6566 144.096C85.687 146.491 82.0413 146.305 81.1668 143.971L73.215 108.292L77.3335 108.294L85.6566 144.096Z" fill="#FFD27A"/>
<path d="M77.3335 108.294L85.6566 144.096C85.687 146.491 82.0413 146.305 81.1668 143.971L73.215 108.292M77.3335 108.294C86.0012 106.169 99.3157 99.6333 83.232 90.4895C87.4015 86.193 91.8721 77.3405 76.3984 76.3023C80.3323 71.4735 85.3568 62.4411 73.9834 64.9415C76.758 60.2965 79.6113 52.4298 68.8277 58.1235C69.0243 54.2142 67.4987 47.4632 59.8228 51.7336C59.1245 52.1836 56.8828 53.8937 53.5025 57.1344C47.5503 56.6387 39.0595 57.664 52.7143 65.7306C47.0516 67.4884 39.5398 71.9267 54.7937 75.6175C51.1276 82.1248 47.5163 94.6005 62.4001 92.4455C56.9746 101.777 51.542 118.009 73.215 108.292M77.3335 108.294L73.215 108.292" stroke="black"/>
<path d="M39.3109 90.9725C37.5264 88.2957 34.8496 90.0802 36.9715 92.8626L68.8776 147.098L69.8152 148.692L70.7528 150.286L71.7843 152.039L72.6868 153.573L73.5599 155.057L74.433 156.541L75.1366 157.737C75.5113 158.134 75.8699 158.457 76.2104 158.714C76.8596 159.204 77.4427 159.454 77.9451 159.513C78.7107 159.603 79.2889 159.249 79.6276 158.626C79.7863 158.333 79.8925 157.982 79.9407 157.588C80.0355 156.815 79.9407 156.107 79.5128 154.924L78.6102 153.39L77.7077 151.855L75.9026 148.787L74.801 146.914L74.0975 145.718L73.3238 144.403L39.3109 90.9725Z" fill="#8BB5FF" stroke="black"/>
<path d="M47.0233 101.005L42.02 104.014L34.203 91.0148C33.1088 83.8641 37.5233 86.7623 39.2063 88.006L47.0233 101.005Z" fill="#C2D8FF" stroke="black"/>
<path d="M45.8891 99.0853L55.0679 96.1706C53.0187 95.7886 52.551 95.044 52.9994 92.7293L44.9698 97.5559L44.0504 96.0264L52.5397 91.9646C50.7133 91.379 50.2615 90.6165 50.4712 88.5233L43.3609 94.8793L41.752 92.2028L50.0115 87.7585C48.9138 86.5098 46.7206 86.6136 47.943 84.3173L40.8327 90.6733L39.6835 88.7615L47.2534 83.1702C46.0548 83.1967 43.8243 81.2755 44.1903 79.8062L38.994 87.6144L37.3099 86.5446L42.1239 78.9663C40.7985 79.9365 37.6717 79.8727 36.9964 77.3637L36.4678 86.0098L35.4733 86.0871L33.248 78.0553C32.5348 79.178 30.7716 81.2095 29.4244 80.3537L34.3262 86.7766L34.0211 88.001L28.2021 82.65C28.1519 83.7212 27.5773 85.9404 25.6801 86.248L33.7161 89.2254L34.0232 90.6023L24.8402 88.3144C25.6321 89.9205 26.6651 93.2555 24.462 93.7469L34.9426 92.1318L35.8619 93.6612L26.3759 95.1991C27.3712 95.9889 29.0713 97.9513 27.9096 99.4824L36.5514 94.8083L37.4708 96.3378L28.9815 100.4C29.7469 100.807 31.1557 102.112 30.6677 104.071L38.3902 97.8672L39.7692 100.161L31.3572 105.218C31.5905 106.349 34.3122 107.705 34.0379 108.812L40.9184 102.073L39.7692 100.161L38.3902 97.8672L37.4708 96.3378L36.5514 94.8083L35.8619 93.6612L34.9426 92.1318L34.0232 90.6023L33.7161 89.2254L34.0211 88.001L34.3262 86.7766L35.4733 86.0871L36.4678 86.0098L37.3099 86.5446L38.994 87.6144L39.6835 88.7615L40.8327 90.6733L41.752 92.2028L43.3609 94.8793L44.0504 96.0264L44.9698 97.5559L45.8891 99.0853Z" fill="#A8C7FF"/>
<path d="M44.9698 97.5559L52.9994 92.7293C52.551 95.044 53.0187 95.7886 55.0679 96.1706L45.8891 99.0853L44.9698 97.5559ZM44.9698 97.5559L44.0504 96.0264M44.0504 96.0264L52.5397 91.9646C50.7133 91.379 50.2615 90.6165 50.4712 88.5233L43.3609 94.8793M44.0504 96.0264L43.3609 94.8793M43.3609 94.8793L41.752 92.2028M41.752 92.2028L50.0115 87.7585C48.9138 86.5098 46.7206 86.6136 47.943 84.3173L40.8327 90.6733M41.752 92.2028L40.8327 90.6733M40.8327 90.6733L39.6835 88.7615M39.6835 88.7615L47.2534 83.1702C46.0548 83.1967 43.8243 81.2755 44.1903 79.8062L38.994 87.6144M39.6835 88.7615L38.994 87.6144M38.994 87.6144L37.3099 86.5446M37.3099 86.5446L42.1239 78.9663C40.7985 79.9365 37.6717 79.8727 36.9964 77.3637L36.4678 86.0098M37.3099 86.5446L36.4678 86.0098M36.4678 86.0098L35.4733 86.0871M35.4733 86.0871L33.248 78.0553C32.5348 79.178 30.7716 81.2095 29.4244 80.3537L34.3262 86.7766M35.4733 86.0871L34.3262 86.7766M34.3262 86.7766L34.0211 88.001M34.0211 88.001L28.2021 82.65C28.1519 83.7212 27.5773 85.9404 25.6801 86.248L33.7161 89.2254M34.0211 88.001L33.7161 89.2254M33.7161 89.2254L34.0232 90.6023M34.0232 90.6023L24.8402 88.3144C25.6321 89.9205 26.6651 93.2555 24.462 93.7469L34.9426 92.1318M34.0232 90.6023L34.9426 92.1318M34.9426 92.1318L35.8619 93.6612M35.8619 93.6612L26.3759 95.1991C27.3712 95.9889 29.0713 97.9513 27.9096 99.4824L36.5514 94.8083M35.8619 93.6612L36.5514 94.8083M36.5514 94.8083L37.4708 96.3378M37.4708 96.3378L28.9815 100.4C29.7469 100.807 31.1557 102.112 30.6677 104.071L38.3902 97.8672M37.4708 96.3378L38.3902 97.8672M38.3902 97.8672L39.7692 100.161M39.7692 100.161L31.3572 105.218C31.5905 106.349 34.3122 107.705 34.0379 108.812C36.7249 106.18 38.2314 104.705 40.9184 102.073L39.7692 100.161Z" stroke="black"/>
<path d="M77.0044 154.172C76.2484 153.606 74.8384 153.01 75.2466 155.155C75.7568 157.836 79.834 156.875 77.0044 154.172Z" stroke="black"/>
<path d="M160.726 90.4937C161.596 87.0138 163.486 81.9481 167.108 82.4835C172.575 83.2918 163.033 81.4665 165.092 70.5751C165.244 69.7727 165.373 69.1315 165.478 68.6326C164.57 71.772 161.863 79.0356 156.953 79.8708C149.227 81.1849 162.928 77.7107 160.726 90.4937Z" fill="#FFE600" fill-opacity="0.84"/>
<path d="M156.953 79.8708C161.863 79.0356 164.57 71.772 165.478 68.6326M156.953 79.8708C149.227 81.1849 162.928 77.7107 160.726 90.4937M156.953 79.8708C164.444 78.5966 166.807 62.3609 165.478 68.6326M160.726 90.4937C161.596 87.0138 163.486 81.9481 167.108 82.4835C172.575 83.2918 163.033 81.4665 165.092 70.5751C165.244 69.7727 165.373 69.1315 165.478 68.6326M160.726 90.4937C160.623 91.0904 160.486 91.7225 160.31 92.3922C160.409 91.8706 160.546 91.2164 160.726 90.4937Z" stroke="black"/>
<path d="M17.639 124.465C17.9505 126.998 17.7154 130.74 13.5272 130.675C7.2047 130.578 18.3907 131.041 20.0963 138.912C20.222 139.492 20.3138 139.956 20.3793 140.317C20.2348 138.021 20.568 132.656 25.6763 131.641C33.7141 130.044 19.8773 133.684 17.639 124.465Z" fill="#FFE600" fill-opacity="0.84"/>
<path d="M25.6763 131.641C20.568 132.656 20.2348 138.021 20.3793 140.317M25.6763 131.641C33.7141 130.044 19.8773 133.684 17.639 124.465M25.6763 131.641C17.8832 133.19 21.2035 144.862 20.3793 140.317M17.639 124.465C17.9505 126.998 17.7154 130.74 13.5272 130.675C7.2047 130.578 18.3907 131.041 20.0963 138.912C20.222 139.492 20.3138 139.956 20.3793 140.317M17.639 124.465C17.5345 124.035 17.4553 123.576 17.4048 123.088C17.4861 123.465 17.5743 123.939 17.639 124.465Z" stroke="black"/>
<path d="M101.037 45.2792C101.567 51.041 101.661 59.8234 97.5001 61.3123C91.2189 63.5599 102.357 60.2581 104.738 77.8721C104.913 79.1698 105.045 80.2117 105.141 81.0256C104.797 75.7495 104.659 63.1587 109.638 58.8023C117.473 51.9476 104.063 65.8166 101.037 45.2792Z" fill="#FFE600" fill-opacity="0.84"/>
<path d="M104.738 77.8721C102.357 60.2581 91.2189 63.5599 97.5001 61.3123C101.661 59.8234 101.567 51.041 101.037 45.2792M104.738 77.8721C104.913 79.1698 105.045 80.2117 105.141 81.0256M104.738 77.8721C105.673 84.791 105.364 84.4389 105.141 81.0256M101.037 45.2792C104.063 65.8166 117.473 51.9476 109.638 58.8023C104.659 63.1587 104.797 75.7495 105.141 81.0256M101.037 45.2792C100.895 44.3206 100.777 43.287 100.684 42.1728C100.798 43.0164 100.927 44.0827 101.037 45.2792Z" stroke="black"/>
<path d="M175.082 98.8882C181.215 105.289 169.421 111.846 162.757 114.325C155.376 120.8 150.955 122.901 148.536 123.165C147.358 123.294 146.716 123.037 146.09 122.703C145.065 122.191 144.196 121.287 143.065 120.106C141.532 118.506 141.561 116.015 141.917 114.823C142.387 112.74 145.032 108.297 151.851 107.181C154.365 107.232 156.667 106.91 157.861 105.735C165.623 95.3729 172.341 96.9866 175.082 98.8882Z" fill="#2AE7B9"/>
<path d="M175.082 98.8882C181.215 105.289 169.421 111.846 162.757 114.325C155.376 120.8 150.955 122.901 148.536 123.165M175.082 98.8882C172.341 96.9866 165.623 95.3729 157.861 105.735C156.667 106.91 154.365 107.232 151.851 107.181C145.032 108.297 142.387 112.74 141.917 114.823C141.561 116.015 141.532 118.506 143.065 120.106M175.082 98.8882C175.622 99.8362 175.585 102.605 171.114 106.098C165.526 110.463 161.353 109.682 160.203 109.843C159.282 109.972 158.881 110.432 158.796 110.645C152.177 119.96 145.551 120.834 143.065 120.106M143.065 120.106C144.967 122.091 146.125 123.295 148.536 123.165M143.065 120.106L145.766 122.525C146.51 122.937 147.155 123.316 148.536 123.165" stroke="black"/>
<path d="M144.679 130.567C148.055 128.643 147.367 124.747 146.601 123.039C150.632 121.718 159.55 118.196 162.974 114.676C166.368 113.241 173.805 109.409 176.399 105.56C178.203 106.181 181.896 107.573 182.236 108.17C182.577 108.768 181.412 109.63 180.786 109.986C181.241 110.057 182.235 110.348 182.576 110.946C182.916 111.543 181.438 112.584 180.657 113.029L175.033 110.792L178.824 113.084L175.924 116.716L171.451 114.318L174.518 117.518L172.173 118.855C166.82 119.927 164.031 122.011 163.306 122.919L159.771 119.986L162.325 124.468L156.655 128.689L153.632 124.475L155.291 128.477L153.885 129.279L153.501 128.605C153.555 128.91 153.542 129.23 153.416 129.546C153.006 130.571 151.398 130.366 150.645 130.135L149.411 126.88L148.344 130.458L144.679 130.567Z" fill="#FDD64A" stroke="black"/>
<path d="M43.6522 116.949C30.7499 118.555 36.342 124.979 42.9659 124.979H177.136C187.96 122.059 182.129 116.949 174.734 116.949H109.193H43.6522Z" fill="#D1141C" stroke="black"/>
<path d="M51.7723 172.269L42.0958 124.979H177.567L167.545 172.269H51.7723Z" fill="#D1141C" stroke="black"/>
<path d="M60.8582 145.055C60.8583 127.237 55.3863 118.978 62.1966 115.165C72.1755 109.576 75.5565 116.229 86.3918 114.491C87.7986 114.117 89.2132 113.84 90.5492 113.496C104.838 109.028 108.926 117.01 108.926 117.01C92.5331 122.25 101.358 135.203 96.5483 166.394C76.8216 172.231 75.1343 170.447 65.2358 166.394C55.5462 162.427 62.1966 161.115 60.8582 145.055Z" fill="#FDEBAC"/>
<path d="M90.5492 113.496C104.838 109.028 108.926 117.01 108.926 117.01C92.5331 122.25 101.358 135.203 96.5483 166.394C76.8216 172.231 75.1343 170.447 65.2358 166.394C55.5462 162.427 62.1966 161.115 60.8582 145.055C60.8583 127.237 55.3863 118.978 62.1966 115.165C73.3497 108.919 76.2608 117.964 90.5492 113.496ZM90.5492 113.496C85.3661 114.831 79 115.165 76.5 124" stroke="black"/>
<path d="M134.321 122.549H121.528C121.675 127.281 121.528 134.594 117.999 139.406C115.407 142.94 109.911 150.053 107.853 154.045C103.049 163.361 102.118 175.338 112.705 178H140.497C146.674 178 157.702 172.677 148.438 154.045C146.503 150.153 143.233 143.392 140.056 139.85C135.681 134.97 134.027 125.802 134.321 122.549Z" fill="white"/>
<path d="M134.321 115.895H121.528V122.549H134.321V115.895Z" fill="#2372FE"/>
<path fill-rule="evenodd" clip-rule="evenodd" d="M134.321 115.895C133.145 113.085 133.88 107.821 146.232 109.24C146.511 103.504 139.389 93.4503 109.617 96.5962V106.579C110.691 106.419 112.056 106.378 113.475 106.579C114.091 112.967 106.748 122.253 103 126.098C107.602 123.88 117.279 117.403 119.167 109.24C120.577 110.691 121.528 112.823 121.528 115.895H134.321Z" fill="white"/>
<path d="M104.323 97.263C103.441 98.8896 102.206 103.03 104.323 106.579H109.617V96.5962C107.927 96.7748 106.163 96.996 104.323 97.263Z" fill="#2372FE"/>
<path d="M121.528 115.895H134.321M121.528 115.895V122.549M121.528 115.895C121.528 112.823 120.577 110.691 119.167 109.24M134.321 115.895V122.549M134.321 115.895C133.145 113.085 133.88 107.821 146.232 109.24C146.511 103.504 139.389 93.4503 109.617 96.5962M134.321 122.549H121.528M134.321 122.549C134.027 125.802 135.681 134.97 140.056 139.85C143.233 143.392 146.503 150.153 148.438 154.045C157.702 172.677 146.674 178 140.497 178H112.705C102.118 175.338 103.049 163.361 107.853 154.045C109.911 150.053 115.407 142.94 117.999 139.406C121.528 134.594 121.675 127.281 121.528 122.549M109.617 106.579H104.323C102.206 103.03 103.441 98.8896 104.323 97.263C106.163 96.996 107.927 96.7748 109.617 96.5962M109.617 106.579V96.5962M109.617 106.579C110.691 106.419 112.056 106.378 113.475 106.579M119.167 109.24C117.279 117.403 107.602 123.88 103 126.098C106.748 122.253 114.091 112.967 113.475 106.579M119.167 109.24C117.607 107.634 115.486 106.864 113.475 106.579" stroke="black"/>
</svg>
