<svg width="728" height="376" viewBox="0 0 728 376" fill="none" xmlns="http://www.w3.org/2000/svg">
<path d="M28.8009 305.789L2.85468 288.532C2.6418 287.172 3.06626 284.244 6.46713 283.411C9.86801 282.578 13.7062 282.059 15.2001 281.903L21.6411 284.652L23.6539 285.511C24.0744 284.897 25.9384 283.725 30.0306 283.949L100.926 198.091C109.613 191.487 130.37 181.723 143.909 195.494C157.448 209.265 144.639 220.55 133.496 224.36C121.072 228.609 97.5838 234.95 102.84 254.943C108.995 255.387 122.218 259.044 125.867 270.118C129.517 281.193 123.978 298.339 120.752 305.528C122.789 310.046 123.822 320.637 111.648 326.864L108.256 325.892L105.609 324.287L103.628 322.49L102.845 320.728L94.6811 318.672C87.435 315.58 72.7239 309.018 71.8479 307.502C66.0595 310.362 65.4392 300.961 65.8526 295.903C67.7165 282.613 72.0586 281.896 73.9967 283.199C80.209 272.911 90.758 263.01 98.1339 257.333C96.5323 250.78 93.6683 246.136 101.789 235.1C103.921 232.203 118.209 224.5 124.355 222.363C130.826 220.114 136.487 218.776 138.944 217.168C141.585 215.44 152.339 208 140.866 197.051C132.75 189.305 120.532 191.547 114.656 194.908L104.436 201.016L34.346 287.218C35.6189 287.952 36.5443 292.326 35.795 294.974L39.4771 297.497C42.9724 298.227 42.3183 301.247 41.5542 302.665L28.8009 305.789Z" fill="white"/>
<path d="M28.8009 305.789L2.85468 288.532C2.6418 287.172 3.06626 284.244 6.46713 283.411C9.86801 282.578 13.7062 282.059 15.2001 281.903L21.6411 284.652L23.6539 285.511C24.0744 284.897 25.9384 283.725 30.0306 283.949L100.926 198.091M28.8009 305.789L41.5542 302.665C42.3183 301.247 42.9724 298.227 39.4771 297.497M28.8009 305.789L30.6904 301.361C32.1629 299.769 35.9818 296.766 39.4771 297.497M39.4771 297.497L35.7951 294.974C36.5443 292.326 35.6189 287.952 34.346 287.218L104.436 201.016M100.926 198.091L104.436 201.016M100.926 198.091C109.613 191.487 130.37 181.723 143.909 195.494C157.448 209.265 144.639 220.55 133.496 224.36C121.072 228.609 97.5838 234.95 102.84 254.943M104.436 201.016L114.656 194.908C120.532 191.547 132.75 189.305 140.866 197.051C152.339 208 141.585 215.44 138.944 217.168C136.487 218.776 130.826 220.114 124.355 222.363C118.209 224.5 103.921 232.203 101.789 235.1C93.6683 246.136 96.5323 250.78 98.1339 257.333M98.1339 257.333C99.2126 261.746 101.175 264.625 102.24 265.271C104.357 266.555 106.07 264.843 106.663 263.827C105.37 261.615 104.376 259.511 103.647 257.511M98.1339 257.333C90.758 263.01 80.209 272.911 73.9967 283.199M71.8479 307.502C72.7239 309.018 87.435 315.58 94.6811 318.672M71.8479 307.502C66.654 300.614 68.8193 291.772 73.9967 283.199M71.8479 307.502C66.0595 310.362 65.4392 300.961 65.8526 295.903C67.7165 282.613 72.0586 281.896 73.9967 283.199M94.6811 318.672C97.2076 318.249 101.565 316.553 105.499 312.819M94.6811 318.672L102.845 320.728M112.298 301.921C121.039 288.498 131.546 260.824 103.647 257.511M112.298 301.921C111.967 302.926 111.594 303.878 111.186 304.777M112.298 301.921C98.5414 311.278 71.6223 320.634 73.9967 283.199M103.647 257.511C103.328 256.635 103.06 255.779 102.84 254.943M102.84 254.943C108.995 255.387 122.218 259.044 125.867 270.118C129.517 281.193 123.978 298.339 120.752 305.528M120.752 305.528C122.789 310.046 123.822 320.637 111.648 326.864M120.752 305.528C106.182 308.447 108.612 320.968 111.648 326.864M120.752 305.528C120.446 303.811 118.104 301.257 111.186 304.777M111.648 326.864L108.256 325.892L105.609 324.287L103.628 322.49L102.845 320.728M102.845 320.728C102.547 319.491 102.662 316.177 105.499 312.819M105.499 312.819C107.642 310.785 109.659 308.145 111.186 304.777" stroke="black"/>
<path d="M414.678 52.2697C414.775 51.7581 414.909 51.1162 415.086 50.4072C417.246 37.8664 403.804 41.2747 411.384 39.9855C416.201 39.1661 418.857 32.0401 419.748 28.9602C420.216 27.3415 420.197 26.8404 419.748 28.9602C419.644 29.4496 419.518 30.0786 419.369 30.8659C417.349 41.551 426.711 43.3417 421.347 42.5488C417.794 42.0235 415.939 46.9932 415.086 50.4072C414.985 50.9926 414.85 51.6127 414.678 52.2697Z" fill="white"/>
<path d="M414.678 52.2697C415.242 49.2942 417.056 41.9144 421.347 42.5488C426.711 43.3417 417.349 41.551 419.369 30.8659C421.389 20.1807 419.318 38.6361 411.384 39.9855C403.45 41.3349 418.547 37.5379 414.678 52.2697Z" stroke="black"/>
<path d="M140.78 56.2462C140.789 55.8424 140.81 55.3342 140.855 54.7691C140.912 44.8994 131.106 49.2421 136.716 47.2771C140.281 46.0283 141.402 40.2355 141.691 37.7651C141.842 36.4666 141.764 36.086 141.691 37.7651C141.674 38.1527 141.657 38.6502 141.643 39.2714C141.457 47.7039 148.815 47.8642 144.629 47.9506C141.856 48.0079 141.072 52.048 140.855 54.7691C140.852 55.2298 140.828 55.7215 140.78 56.2462Z" fill="white"/>
<path d="M140.78 56.2462C140.833 53.8978 141.28 48.0197 144.629 47.9506C148.815 47.8642 141.457 47.7039 141.643 39.2714C141.829 30.8389 142.588 45.2204 136.716 47.2771C130.844 49.3338 141.862 44.4802 140.78 56.2462Z" stroke="black"/>
<path d="M712.601 96.8448C712.616 96.228 712.65 95.4517 712.721 94.5885C712.856 79.5141 698.02 86.194 706.504 83.1659C711.897 81.2415 713.617 72.3888 714.066 68.6143C714.301 66.6305 714.185 66.0494 714.066 68.6143C714.038 69.2064 714.01 69.9662 713.987 70.9151C713.666 83.7949 724.779 84.0043 718.455 84.1564C714.266 84.2572 713.063 90.4315 712.721 94.5885C712.715 95.2921 712.676 96.0431 712.601 96.8448Z" fill="white"/>
<path d="M712.601 96.8448C712.692 93.2578 713.396 84.2781 718.455 84.1564C724.779 84.0043 713.666 83.7949 713.987 70.9151C714.308 58.0354 715.385 79.9965 706.504 83.1659C697.624 86.3353 714.292 78.8694 712.601 96.8448Z" stroke="black"/>
<path d="M9.25511 191C9.43728 191.593 9.64951 192.343 9.84506 193.185C14.6012 207.613 30.4306 197.427 21.1195 202.496C15.2019 205.718 16.0019 214.612 16.6897 218.331C17.0512 220.286 17.3818 220.811 16.6897 218.331C16.53 217.759 16.3157 217.026 16.0347 216.114C12.2212 203.734 -1.33807 206.387 6.28901 204.618C11.3415 203.446 10.7867 197.242 9.84506 193.185C9.62306 192.512 9.42518 191.785 9.25511 191Z" fill="white"/>
<path d="M9.25511 191C10.3145 194.448 12.3907 203.203 6.28901 204.618C-1.33807 206.387 12.2212 203.734 16.0347 216.114C19.8483 228.495 11.3737 207.802 21.1195 202.496C30.8652 197.19 13.0687 208.597 9.25511 191Z" stroke="black"/>
<path d="M319.385 208.361C319.699 209.021 320.082 209.859 320.479 210.809C328.358 226.802 337.496 211.828 331.85 219.555C328.262 224.466 331.486 234.735 333.105 238.96C333.956 241.182 334.363 241.733 333.105 238.96C332.814 238.32 332.435 237.503 331.952 236.488C325.396 222.713 315.786 228.424 321.11 224.888C324.638 222.545 322.391 215.382 320.479 210.809C320.111 210.062 319.746 209.248 319.385 208.361Z" fill="white"/>
<path d="M319.385 208.361C321.209 212.199 325.37 222.059 321.11 224.888C315.786 228.424 325.396 222.713 331.952 236.488C338.508 250.263 325.941 227.643 331.85 219.555C337.76 211.467 327.473 228.25 319.385 208.361Z" stroke="black"/>
<path d="M581.721 162.17C581.609 162.997 581.483 164.043 581.375 165.217C578.405 185.365 565.25 171.759 572.936 178.484C577.821 182.758 577.686 195.11 577.348 200.286C577.17 203.007 576.937 203.745 577.348 200.286C577.443 199.488 577.572 198.466 577.744 197.193C580.079 179.912 591.006 183.152 584.844 180.946C580.762 179.486 580.854 170.87 581.375 165.217C581.513 164.277 581.63 163.263 581.721 162.17Z" fill="white"/>
<path d="M581.721 162.17C581.072 166.983 579.914 179.182 584.844 180.946C591.006 183.152 580.079 179.912 577.744 197.193C575.409 214.473 580.981 185.523 572.936 178.484C564.891 171.445 579.679 186.68 581.721 162.17Z" stroke="black"/>
<path d="M472.78 288.557C460.831 293.021 467.627 297.882 473.949 296.378L602.002 265.906C611.67 260.661 604.944 257.108 597.886 258.788L535.333 273.673L472.78 288.557Z" fill="white" stroke="black"/>
<path d="M493.094 339.51L473.119 296.575L602.414 265.808L603.588 313.217L493.094 339.51Z" fill="white" stroke="black"/>
<path d="M495.585 311.474C491.538 294.468 484.44 287.829 490.074 282.642C499.3 274.148 504.132 282.119 516.755 274.61C529.377 267.101 535.092 273.791 535.092 273.791C520.636 282.514 532.001 292.873 534.494 323.734C516.992 333.785 514.977 332.465 504.609 330.846C494.46 329.26 500.51 326.498 495.585 311.474Z" fill="white" stroke="black"/>
<path d="M182.061 107.424C181.588 109.823 184.536 111.857 185.744 109.842L197.246 75.6647C205.577 78.3575 220.06 79.7626 211.345 63.8409C217.04 62.4027 225.334 57.3164 212.952 48.4756C218.724 46.4718 227.573 41.5206 216.79 37.7469C221.5 35.299 227.936 30.2022 216 29.3983C218.178 26.2361 220.384 19.8141 211.775 19.4234C210.96 19.4392 208.208 19.7117 203.716 20.6751C199.002 17.1939 191.385 13.6743 198.628 27.4451C192.995 25.9944 184.436 25.8285 195.269 36.7705C188.855 40.3135 179.411 48.8674 192.947 54.7385C183.609 59.7322 170.708 70.484 193.809 73.5408L182.061 107.424Z" fill="white"/>
<path d="M197.246 75.6647L185.744 109.842C184.536 111.857 181.588 109.823 182.061 107.424L193.809 73.5408M197.246 75.6647C205.577 78.3575 220.06 79.7626 211.345 63.8409C217.04 62.4028 225.334 57.3164 212.952 48.4756C218.724 46.4718 227.573 41.5206 216.79 37.7469C221.5 35.299 227.936 30.2022 216 29.3983C218.178 26.2361 220.384 19.8141 211.775 19.4234C210.96 19.4392 208.208 19.7117 203.716 20.6751C199.002 17.1939 191.385 13.6743 198.628 27.4451C192.995 25.9944 184.436 25.8285 195.269 36.7705C188.855 40.3135 179.411 48.8674 192.947 54.7385C183.609 59.7322 170.708 70.484 193.809 73.5408M197.246 75.6647L193.809 73.5408" stroke="black"/>
<path d="M222.996 261.812C221.49 259.553 219.232 261.059 221.022 263.406L247.94 309.162L248.731 310.506L249.522 311.851L250.392 313.33L251.153 314.624L251.89 315.876L252.626 317.128L253.22 318.137C253.536 318.471 253.839 318.744 254.126 318.961C254.674 319.374 255.166 319.585 255.589 319.635C256.235 319.711 256.723 319.413 257.009 318.887C257.143 318.64 257.232 318.343 257.273 318.012C257.353 317.359 257.273 316.762 256.912 315.764L256.15 314.469L255.389 313.175L253.866 310.586L252.937 309.007L252.343 307.998L251.691 306.888L222.996 261.812Z" fill="white" stroke="black"/>
<path d="M229.503 270.275L225.282 272.813L218.687 261.847C217.764 255.814 221.488 258.259 222.908 259.309L229.503 270.275Z" fill="white" stroke="black"/>
<path d="M228.546 268.656L236.289 266.197C234.561 265.875 234.166 265.247 234.544 263.294L227.77 267.366L226.995 266.075L234.157 262.649C232.616 262.155 232.235 261.511 232.411 259.745L226.413 265.108L225.056 262.85L232.024 259.1C231.098 258.047 229.247 258.134 230.278 256.197L224.28 261.559L225.056 262.85L226.413 265.108L226.995 266.075L227.77 267.366L228.546 268.656Z" fill="white"/>
<path d="M223.31 259.946L229.697 255.229C228.686 255.252 226.804 253.631 227.113 252.391L222.729 258.979L221.308 258.076L225.369 251.683C224.251 252.501 221.613 252.447 221.044 250.331L220.598 257.625L221.308 258.076L222.729 258.979L223.31 259.946Z" fill="white"/>
<path d="M217.881 250.914L219.759 257.69L218.791 258.272L214.655 252.853C215.792 253.575 217.28 251.861 217.881 250.914Z" fill="white"/>
<path d="M218.533 259.305L213.624 254.79C213.582 255.694 213.097 257.566 211.497 257.826L218.276 260.338L218.535 261.499L210.788 259.569C211.456 260.924 212.328 263.738 210.469 264.152L219.311 262.79L220.086 264.08L212.084 265.377C212.923 266.044 214.358 267.699 213.378 268.991L220.668 265.048L221.444 266.338L214.282 269.765C214.928 270.109 216.116 271.209 215.704 272.862L222.219 267.628L223.383 269.564L216.286 273.83C216.483 274.784 218.779 275.928 218.548 276.862L224.352 271.177L223.383 269.564L222.219 267.628L221.444 266.338L220.668 265.048L220.086 264.08L219.311 262.79L218.535 261.499L218.276 260.338L218.533 259.305Z" fill="white"/>
<path d="M227.77 267.366L234.544 263.294C234.166 265.247 234.561 265.875 236.289 266.197L228.546 268.656L227.77 267.366ZM227.77 267.366L226.995 266.075M226.995 266.075L234.157 262.649C232.616 262.155 232.235 261.511 232.411 259.745L226.413 265.108M226.995 266.075L226.413 265.108M226.413 265.108L225.056 262.85M225.056 262.85L232.024 259.1C231.098 258.047 229.247 258.134 230.278 256.197L224.28 261.559L225.056 262.85ZM222.729 258.979L227.113 252.391C226.804 253.631 228.686 255.252 229.697 255.229L223.31 259.946L222.729 258.979ZM222.729 258.979L221.308 258.076M221.308 258.076L225.369 251.683C224.251 252.501 221.613 252.447 221.044 250.331L220.598 257.625L221.308 258.076ZM218.276 260.338L211.497 257.826C213.097 257.566 213.582 255.694 213.624 254.79L218.533 259.305L218.276 260.338ZM218.276 260.338L218.535 261.499M218.535 261.499L210.788 259.569C211.456 260.924 212.328 263.738 210.469 264.152L219.311 262.79M218.535 261.499L219.311 262.79M219.311 262.79L220.086 264.08M220.086 264.08L212.084 265.377C212.923 266.044 214.358 267.699 213.378 268.991L220.668 265.048M220.086 264.08L220.668 265.048M220.668 265.048L221.444 266.338M221.444 266.338L214.282 269.765C214.928 270.109 216.116 271.209 215.704 272.862L222.219 267.628M221.444 266.338L222.219 267.628M222.219 267.628L223.383 269.564M223.383 269.564L216.286 273.83C216.483 274.784 218.779 275.928 218.548 276.862C220.814 274.641 222.085 273.397 224.352 271.177L223.383 269.564ZM219.759 257.69L217.881 250.914C217.28 251.861 215.792 253.575 214.655 252.853L218.791 258.272L219.759 257.69Z" stroke="black"/>
<path d="M254.796 315.13C254.158 314.652 252.968 314.149 253.313 315.959C253.743 318.221 257.183 317.41 254.796 315.13Z" fill="white" stroke="black"/>
<path d="M503.914 45.2559L501.325 50.2725C499.836 52.61 497.522 60.1689 498.94 65.56C499.969 69.4735 499.817 75.8505 499.77 79.5422C499.542 97.2141 489.11 96.9115 484.428 94.4946L463.358 83.6186C456.367 77.4687 461.734 68.8033 469.001 63.6598C472.116 61.4554 479.05 58.2439 482.39 56.5938C486.938 54.3471 489.896 48.891 491.626 45.2661L494.216 40.2494C495.411 37.9339 495.519 35.9541 495.015 34.309C490.407 39.7237 480.551 40.8197 476.198 40.6909C480.536 39.2592 489.716 35.1316 491.736 30.0747C490.738 29.3678 489.687 28.8647 488.811 28.565L484.798 26.4934C484.573 22.9892 487.121 20.3511 488.423 19.4701C489.921 19.9887 491.345 20.5121 492.696 21.039C516.491 30.318 517.977 40.6842 515.534 44.9004C506.722 38.9964 504.116 42.6774 503.914 45.2559Z" fill="white"/>
<path d="M494.216 40.2494L503.914 45.2559M494.216 40.2494L491.626 45.2661M494.216 40.2494C495.411 37.9339 495.519 35.9541 495.015 34.309M503.914 45.2559L501.325 50.2725M503.914 45.2559C504.116 42.6774 506.722 38.9964 515.534 44.9004C517.977 40.6842 516.491 30.318 492.696 21.039M501.325 50.2725L491.626 45.2661M501.325 50.2725C499.836 52.61 497.522 60.1689 498.94 65.56C499.969 69.4735 499.817 75.8505 499.77 79.5422C499.542 97.2141 489.11 96.9115 484.428 94.4946L463.358 83.6186C456.367 77.4687 461.734 68.8033 469.001 63.6598C472.116 61.4554 479.05 58.2439 482.39 56.5938C486.938 54.3471 489.896 48.891 491.626 45.2661M488.811 28.565L484.798 26.4934C484.573 22.9892 487.121 20.3511 488.423 19.4701C489.921 19.9887 491.345 20.5121 492.696 21.039M488.811 28.565L492.696 21.039M488.811 28.565C489.687 28.8647 490.738 29.3678 491.736 30.0747M495.015 34.309C490.407 39.7237 480.551 40.8197 476.198 40.6909C480.536 39.2592 489.716 35.1316 491.736 30.0747M495.015 34.309C494.458 32.4875 493.149 31.0764 491.736 30.0747" stroke="black"/>
<path d="M564.263 46.6479C568.201 53.0383 556.596 56.3992 550.302 57.2808C542.532 61.3509 538.258 62.3148 536.11 62.1077C535.063 62.0067 534.562 61.6802 534.092 61.2929C534.009 61.2281 533.928 61.16 533.85 61.0884C533.193 60.4912 532.679 59.6582 532.03 58.6056C531.045 57.008 531.603 54.9469 532.166 54.0204C533.017 52.376 536.255 49.1563 542.393 49.4326C544.557 49.9183 546.617 50.0567 547.901 49.2922C556.83 42.0648 562.298 44.5875 564.263 46.6479Z" fill="white"/>
<path d="M564.263 46.6479C568.201 53.0383 556.596 56.3992 550.302 57.2808C542.532 61.3509 538.258 62.3148 536.11 62.1077M564.263 46.6479C562.298 44.5875 556.83 42.0648 547.901 49.2922C546.617 50.0567 544.557 49.9183 542.393 49.4326C536.255 49.1563 533.017 52.376 532.166 54.0204C531.603 54.9469 531.045 57.008 532.03 58.6056M564.263 46.6479C564.527 47.5296 563.904 49.8201 559.29 51.9291C553.522 54.5654 550.079 53.182 549.049 53.1128C548.225 53.0575 547.78 53.3679 547.661 53.53C539.944 60.0902 534.025 59.6472 532.03 58.6056M532.03 58.6056C533.251 60.5872 533.996 61.7904 536.11 62.1077M532.03 58.6056L533.85 61.0884C534.406 61.5611 534.883 61.9893 536.11 62.1077" stroke="black"/>
<path d="M531.191 67.5677C534.523 66.5664 534.76 63.2132 534.462 61.6617C536.303 62.0609 541.991 61.6848 550.019 56.987C551.38 57.1468 556.078 56.4559 563.977 52.4142C565.405 53.2475 568.302 55.053 568.469 55.6087C568.636 56.1644 567.443 56.6742 566.826 56.8596C567.204 56.9985 568.002 57.4151 568.169 57.9708C568.336 58.5266 566.836 59.129 566.064 59.3608L561.677 56.5136L564.467 59.0834L561.182 61.5852L557.824 58.8072L559.794 62.0024L557.48 62.6977C552.619 62.6434 549.762 63.8808 548.941 64.5063L546.509 61.4501L547.761 65.6181L541.953 68.1206L540.238 64.0917L540.819 67.7041L539.431 68.1213L539.242 67.495C539.225 67.7571 539.145 68.0206 538.968 68.2604C538.394 69.0386 537.047 68.5851 536.445 68.261L536.073 65.3433L534.385 68.1226L531.191 67.5677Z" fill="white"/>
<path d="M534.462 61.6617C534.76 63.2132 534.523 66.5664 531.191 67.5677L534.385 68.1226L536.073 65.3433L536.445 68.261C537.047 68.5851 538.394 69.0386 538.968 68.2604C539.541 67.4821 539.098 66.4541 538.804 66.0373L539.431 68.1213L540.819 67.7041L540.238 64.0917L541.953 68.1206L547.761 65.6181L546.509 61.4501L548.941 64.5063C549.762 63.8808 552.619 62.6434 557.48 62.6977L559.794 62.0024L557.824 58.8072L561.182 61.5852L564.467 59.0834L561.677 56.5136L566.064 59.3608C566.836 59.129 568.336 58.5266 568.169 57.9708C568.002 57.4151 567.204 56.9985 566.826 56.8596C567.443 56.6742 568.636 56.1644 568.469 55.6087C568.302 55.053 565.405 53.2475 563.977 52.4142C556.078 56.4559 551.38 57.1468 550.019 56.987C541.991 61.6848 536.303 62.0609 534.462 61.6617Z" stroke="black"/>
<path d="M292.134 49.8052C295.809 46.6615 300.458 45.6268 302.111 45.592L303.358 48.5469L304.339 50.8686L304.003 51.259L304.627 52.7364C306.815 53.968 312.327 56.3988 316.875 56.269C321.422 56.1392 324.602 60.5498 325.624 62.7712L328.935 68.8343L331.876 75.7994C333.312 77.7793 331.233 82.3715 330.058 84.5256C331.23 85.5231 335.012 89.1487 336.205 91.3807C339.023 98.6466 336.078 103.124 334.985 105.077C327.868 108.166 314.763 113.816 314.182 113.862C313.456 113.92 311.011 113.461 306.647 110.827C302.283 108.193 301.725 101.067 302.327 98.2264C302.928 95.3859 302.255 91.5415 301.843 89.9744C299.181 83.4719 293.349 70.3327 293.019 69.079C292.608 67.5119 295.02 60.3341 295.296 59.6617C295.542 59.0603 295.756 57.3949 295.712 56.5014L295.13 55.1242C294.873 55.1933 294.645 55.2495 294.451 55.2929L292.134 49.8052Z" fill="white"/>
<path d="M292.134 49.8052C294.17 49.6914 299.356 48.546 302.111 45.592M292.134 49.8052C295.809 46.6615 300.458 45.6268 302.111 45.592M292.134 49.8052L294.451 55.2929C294.645 55.2495 294.873 55.1933 295.13 55.1242M302.111 45.592L303.358 48.5469L304.339 50.8686L304.003 51.259M304.003 51.259C300.801 53.3152 297.102 54.5957 295.13 55.1242M304.003 51.259L304.627 52.7364C306.815 53.968 312.327 56.3988 316.875 56.269C321.422 56.1392 324.602 60.5498 325.624 62.7712L328.935 68.8343L331.876 75.7994C333.312 77.7793 331.233 82.3715 330.058 84.5256C331.23 85.5231 335.012 89.1487 336.205 91.3807C339.023 98.6466 336.078 103.124 334.985 105.077C327.868 108.166 314.763 113.816 314.182 113.862C313.456 113.92 311.011 113.461 306.647 110.827C302.283 108.193 301.725 101.067 302.327 98.2264C302.928 95.3859 302.255 91.5415 301.843 89.9744C299.181 83.4719 293.349 70.3327 293.019 69.079C292.608 67.5119 295.02 60.3341 295.296 59.6617C295.542 59.0603 295.756 57.3949 295.712 56.5014L295.13 55.1242M316.446 61.1757C317.206 60.6061 319.082 60.311 320.254 61.3085C321.425 62.306 320.432 61.7306 324.825 68.58C328.34 74.0596 328.211 78.1763 327.495 79.6394C326.853 80.4904 324.882 81.3894 322.124 78.1766C319.367 74.9639 317.045 68.7154 316.229 65.9927C315.76 64.6156 315.306 62.0301 316.446 61.1757ZM306.726 87.9126L298.992 70.7846C298.153 68.4031 298.208 62.4113 305.467 61.8326C311.275 61.3697 312.408 67.6063 313.923 71.1944L319.627 84.7026C327.719 90.2391 332.757 99.8006 323.205 103.835C319.226 106.261 311.461 109.788 308.121 99.5098C308.121 99.5098 307.141 97.1881 307.513 93.9223C307.884 90.6565 307.528 89.8122 307.528 89.8122L306.726 87.9126Z" stroke="black"/>
<path d="M643.993 182.704L681.946 188.858C684.557 189.281 686.198 193.139 681.095 194.108L672.692 226.867L641.667 221.836L641.853 217.562C640.084 217.277 638.741 216.325 637.539 214.881C632.499 208.828 640.954 198.469 643.142 187.954C640.949 187.498 638.985 183.089 643.993 182.704Z" fill="white"/>
<path d="M681.095 194.108C686.198 193.139 684.557 189.281 681.946 188.858L643.993 182.704C638.985 183.089 640.949 187.498 643.142 187.954M681.095 194.108L672.692 226.867L641.667 221.836L643.142 187.954M681.095 194.108C650.096 218.353 642.579 220.934 637.539 214.881C632.499 208.828 640.954 198.469 643.142 187.954M681.095 194.108L643.142 187.954" stroke="black"/>
<path d="M673.574 114.247C672.911 115.747 673.436 203.866 673.436 203.866C667.25 201.433 660.442 201.486 657.95 208.17C656.879 211.041 657.289 214.713 658.9 218.543C659.405 219.742 660.027 220.956 660.759 222.167C661.938 224.117 663.401 226.057 665.113 227.904C666.84 229.767 668.819 231.536 671.015 233.125C671.023 233.131 671.031 233.137 671.039 233.143C672.133 233.933 673.384 234.542 674.748 234.999C677.541 235.935 680.805 236.234 684.147 236.148C685.141 236.123 686.143 236.063 687.142 235.976C689.216 235.795 691.276 235.495 693.228 235.136C694.721 234.862 696.151 234.553 697.476 234.237C698.776 233.926 699.975 233.607 701.035 233.307C701.288 233.235 701.534 233.164 701.771 233.094C703.982 232.445 705.447 231.913 705.729 231.781C706.953 231.205 695.166 225.231 693.718 221.281C692.956 219.201 692.71 215.527 692.649 212.515C692.594 209.806 692.687 207.632 692.687 207.632C692.309 203.891 687.576 199.705 678.939 204.942L679.11 160.561L679.077 115.324C678.874 114.469 678.035 113.083 676.609 112.804C675.183 112.525 674.238 112.747 673.574 114.247Z" fill="white"/>
<path d="M678.939 204.942C687.576 199.705 692.309 203.891 692.687 207.632C692.687 207.632 692.594 209.806 692.649 212.515M678.939 204.942L679.11 160.561L679.077 115.324C678.874 114.469 678.035 113.083 676.609 112.804C675.183 112.525 674.238 112.747 673.574 114.247C672.911 115.747 673.436 203.866 673.436 203.866M678.939 204.942C678.828 205.067 678.717 205.181 678.607 205.285M678.939 204.942C682.527 207.139 690.507 213.481 693.718 221.281M678.939 204.942C682.61 204.166 690.491 204.595 692.649 212.515M673.436 203.866C667.25 201.433 660.442 201.486 657.95 208.17C656.879 211.041 657.289 214.713 658.9 218.543M673.436 203.866C669.766 203.691 661.721 206.382 658.9 218.543M673.436 203.866C673.514 204.013 673.605 204.169 673.709 204.327M671.039 233.143C664.809 228.664 670.762 212.714 674.517 205.3M671.039 233.143C672.133 233.933 673.384 234.542 674.748 234.999M671.039 233.143C668.834 231.549 666.846 229.774 665.113 227.904M693.718 221.281C695.166 225.231 706.953 231.205 705.729 231.781C705.447 231.913 703.982 232.445 701.771 233.094M693.718 221.281C692.956 219.201 692.71 215.527 692.649 212.515M678.709 206.12C679.645 212.412 684.708 226.846 697.476 234.237M697.476 234.237C698.776 233.926 699.975 233.607 701.035 233.307M697.476 234.237C696.151 234.553 694.721 234.862 693.228 235.136M676.307 206.219C675.57 217.555 672.51 236.447 684.147 236.148M676.307 206.219C675.937 206.178 675.588 206.05 675.266 205.865M676.307 206.219C676.754 206.268 677.231 206.189 677.729 205.928M684.147 236.148C680.805 236.234 677.541 235.935 674.748 234.999M684.147 236.148C685.141 236.123 686.143 236.063 687.142 235.976M674.517 205.3C674.33 205.123 674.159 204.932 674.006 204.738M674.517 205.3C674.745 205.515 674.996 205.71 675.266 205.865M658.9 218.543C659.405 219.742 660.027 220.956 660.759 222.167M658.9 218.543C658.505 203.144 668.608 202.649 673.709 204.327M674.006 204.738C670.765 206.703 663.578 212.939 660.759 222.167M674.006 204.738C673.898 204.601 673.799 204.463 673.709 204.327M660.759 222.167C661.938 224.117 663.401 226.057 665.113 227.904M675.266 205.865C673.141 212.311 670.063 227.163 674.748 234.999M677.729 205.928C677.868 214.875 679.945 233.41 687.142 235.976M677.729 205.928C678.016 205.778 678.309 205.567 678.607 205.285M687.142 235.976C689.216 235.795 691.276 235.495 693.228 235.136M678.607 205.285C681.668 212.675 690.438 228.626 701.035 233.307M678.607 205.285C684.407 213.652 697.161 230.929 701.771 233.094M678.607 205.285C679.943 215.662 684.736 236.161 693.228 235.136M701.035 233.307C701.288 233.235 701.534 233.164 701.771 233.094M673.919 205.183C669.82 210.218 662.32 221.813 665.113 227.904" stroke="black"/>
<path d="M686.952 36.2333L648.057 10.8644C647.148 11.3999 646.447 12.0886 645.914 12.8075C644.939 14.1235 644.527 15.5409 644.441 16.3054L657.52 25.8794L658.12 30.2245C653.162 37.2286 649.906 44.802 648.897 47.7133C648.595 48.5866 646.882 51.5027 647.072 51.8945C644.988 55.0837 641.641 64.0028 644.839 65.7133C648.037 67.4238 648.356 62.9458 650.677 58.6356C654.031 50.3504 653.461 48.2923 652.756 48.2988C653.443 41.9777 658.744 35.0045 661.309 32.308L665.277 31.2766L681.471 41.6296C682.968 41.8901 684.386 40.5437 685.446 39.0078C686.114 38.04 686.639 36.997 686.952 36.2333Z" fill="white"/>
<path d="M645.914 12.8075C644.939 14.1235 644.527 15.5409 644.441 16.3054L657.52 25.8794L658.12 30.2245C653.162 37.2286 649.906 44.802 648.897 47.7133C648.595 48.5866 646.882 51.5027 647.072 51.8945C644.988 55.0837 641.641 64.0028 644.839 65.7133C648.037 67.4238 648.356 62.9458 650.677 58.6356C654.031 50.3504 653.461 48.2923 652.756 48.2988C653.443 41.9777 658.744 35.0045 661.309 32.308L665.277 31.2766L681.471 41.6296C682.968 41.8901 684.386 40.5437 685.446 39.0078M645.914 12.8075C646.447 12.0886 647.148 11.3999 648.057 10.8644L686.952 36.2333C686.639 36.997 686.114 38.04 685.446 39.0078M645.914 12.8075L685.446 39.0078M648.872 51.6913C648.796 52.4171 649.213 53.6148 651.491 52.5992M647.523 53.6306C647.741 54.8095 648.708 56.7645 650.831 55.1536M646.615 56.2495C646.668 57.4713 647.404 59.4865 649.923 57.7725" stroke="black"/>
<path d="M64.7432 126.202C70.3888 126.202 68.5484 122.166 63.3431 109.806L20.693 105.344C20.693 105.344 18.8261 113.782 15.7915 116.079C12.7569 118.377 10.546 118.67 14.686 119.046L16.1915 122.81C17.5715 121.555 21.9877 116.793 22.5898 113.782C23.3241 110.11 21.1934 122.192 20.0404 122.787C20.9318 122.783 23.8992 122.979 24.4717 124.697C24.9735 121.686 26.2783 115.061 27.4827 112.653C28.687 110.244 27.2317 119.176 26.3535 123.944C26.7299 123.693 28.0095 124.471 30.1172 125.073C32.7518 125.826 30.87 116.04 32.3755 111.9L33.5045 126.202C34.2572 125.826 36.1392 123.869 37.6446 125.073L37.6446 111.9L39.5264 126.202C41.7846 124.697 44.7956 124.094 46.3011 126.202L44.0428 111.9C45.5483 115.538 48.5593 123.492 48.5593 126.202C49.9393 125.073 53.151 123.492 54.9576 126.202L52.6993 114.579C54.7067 118.202 58.3449 125.6 56.8394 126.202L56.753 126.236L56.752 126.237C56.7342 126.244 56.7173 126.25 56.7014 126.257L56.7003 126.257C57.6384 125.925 61.2478 124.787 62.1469 126.202C63.1039 127.707 60.2619 118.549 58.7213 113.782L64.7432 126.202Z" fill="white"/>
<path d="M45.2646 99.6841C45.2646 99.6841 70.9871 8.35875 70.7689 6.60716C70.5508 4.85556 68.7498 4.26581 67.2791 4.13793C65.8084 4.01006 64.5932 5.20387 64.1508 6.03171L51.1774 52.9841L38.6465 99.1087C27.0305 96.366 22.1325 101.571 20.693 105.344L63.3431 109.806C63.3431 103.243 51.9949 98.9698 45.2646 99.6841Z" fill="white"/>
<path d="M63.3431 109.806C63.3431 103.243 51.9949 98.9698 45.2646 99.6841C45.2646 99.6841 70.9871 8.35875 70.7689 6.60716C70.5508 4.85556 68.7498 4.26581 67.2791 4.13793C65.8084 4.01006 64.5932 5.20387 64.1508 6.03171L51.1774 52.9841L38.6465 99.1087C27.0305 96.366 22.1325 101.571 20.693 105.344M63.3431 109.806C68.5484 122.166 70.3888 126.202 64.7432 126.202L58.7213 113.782C60.2619 118.549 63.1039 127.707 62.1469 126.202M63.3431 109.806L20.693 105.344M20.693 105.344C20.693 105.344 18.8261 113.782 15.7915 116.079C12.7569 118.377 10.546 118.67 14.686 119.046L16.1915 122.81C17.5715 121.555 21.9877 116.793 22.5898 113.782C23.3241 110.11 21.1934 122.192 20.0404 122.787M56.8394 126.202C58.3449 125.6 54.7067 118.202 52.6993 114.579L54.9576 126.202C53.151 123.492 49.9393 125.073 48.5593 126.202C48.5593 123.492 45.5483 115.538 44.0428 111.9L46.3011 126.202C44.7956 124.094 41.7846 124.697 39.5264 126.202L37.6446 111.9L37.6446 125.073C36.1392 123.869 34.2572 125.826 33.5045 126.202L32.3755 111.9C30.87 116.04 32.7518 125.826 30.1172 125.073C28.0095 124.471 26.7299 123.693 26.3535 123.944C27.2317 119.176 28.687 110.244 27.4827 112.653C26.2783 115.061 24.9735 121.686 24.4717 124.697C23.8992 122.979 20.9318 122.783 20.0404 122.787M56.8394 126.202C56.8085 126.214 56.7797 126.226 56.753 126.236M56.8394 126.202L56.753 126.236M62.1469 126.202C61.2478 124.787 57.6384 125.925 56.7003 126.257M62.1469 126.202C61.2481 124.788 57.6411 125.924 56.7014 126.257M20.0404 122.787C19.7598 122.789 19.6849 122.81 19.9553 122.81C19.983 122.81 20.0114 122.802 20.0404 122.787ZM56.7003 126.257L56.7014 126.257M56.7003 126.257C56.4248 126.355 56.3798 126.383 56.7014 126.257M56.753 126.236L56.752 126.237C56.7342 126.244 56.7173 126.25 56.7014 126.257" stroke="black"/>
</svg>
