<svg width="756" height="383" viewBox="0 0 756 383" fill="none" xmlns="http://www.w3.org/2000/svg">
<path d="M26.4391 315.311L4.52563 293.156C4.59256 291.782 5.60119 289.001 9.10029 288.874C12.5994 288.747 16.4632 289.015 17.9577 289.166L23.7086 293.161L25.5057 294.41C26.0418 293.894 28.1044 293.125 32.0666 294.172L118.882 224.452C128.726 219.745 151.031 214.387 161.5 230.615C171.969 246.842 157.14 255.299 145.456 256.774C132.429 258.418 108.144 259.871 109.241 280.514C115.179 282.195 127.387 288.454 128.718 300.038C130.05 311.622 121.152 327.291 116.537 333.678C117.618 338.515 116.483 349.096 103.301 352.728L100.176 351.089L97.9092 348.982L96.3333 346.821L95.923 344.937L88.3447 341.27C81.8749 336.775 68.7978 327.368 68.247 325.707C61.9994 327.335 63.2959 318.003 64.7252 313.133C69.2421 300.496 73.6394 300.674 75.2734 302.342C83.4405 293.526 95.7762 285.967 104.149 281.901C103.908 275.16 102.044 270.032 112.232 260.869C114.906 258.464 130.458 253.814 136.909 252.967C143.701 252.075 149.517 251.911 152.248 250.834C155.184 249.676 167.222 244.569 158.204 231.523C151.826 222.294 139.407 222.014 132.972 224.116L121.727 228.028L35.6305 298.247C36.7284 299.224 36.7487 303.695 35.4787 306.136L38.5735 309.352C41.8485 310.775 40.5962 313.6 39.5607 314.835L26.4391 315.311Z" fill="white"/>
<path d="M26.4391 315.311L4.52563 293.156C4.59256 291.782 5.60119 289.001 9.10029 288.874C12.5994 288.747 16.4632 289.015 17.9577 289.166L23.7086 293.161L25.5057 294.41C26.0418 293.894 28.1044 293.125 32.0666 294.172L118.882 224.452M26.4391 315.311L39.5607 314.835C40.5962 313.6 41.8485 310.775 38.5735 309.352M26.4391 315.311L29.1862 311.357C30.9507 310.096 35.2985 307.93 38.5735 309.352M38.5735 309.352L35.4787 306.136C36.7487 303.695 36.7284 299.224 35.6305 298.247L121.727 228.028M118.882 224.452L121.727 228.028M118.882 224.452C128.726 219.745 151.031 214.387 161.5 230.615C171.969 246.842 157.14 255.299 145.456 256.774C132.429 258.418 108.144 259.871 109.241 280.514M121.727 228.028L132.972 224.116C139.407 222.014 151.826 222.294 158.204 231.523C167.222 244.569 155.184 249.676 152.248 250.834C149.517 251.911 143.701 252.075 136.909 252.967C130.458 253.814 114.906 258.464 112.232 260.869C102.044 270.032 103.908 275.16 104.149 281.901M104.149 281.901C104.311 286.442 105.65 289.658 106.562 290.506C108.375 292.192 110.4 290.863 111.186 289.988C110.368 287.56 109.821 285.298 109.512 283.192M104.149 281.901C95.7762 285.967 83.4405 293.526 75.2734 302.342M68.247 325.707C68.7978 327.368 81.8749 336.775 88.3447 341.27M68.247 325.707C64.5559 317.909 68.467 309.689 75.2734 302.342M68.247 325.707C61.9994 327.335 63.2959 318.003 64.7252 313.133C69.2421 300.496 73.6394 300.674 75.2734 302.342M88.3447 341.27C90.9045 341.367 95.5151 340.589 100.123 337.729M88.3447 341.27L95.923 344.937M108.989 328.433C120.267 317.059 136.162 292.087 109.512 283.192M108.989 328.433C108.461 329.351 107.903 330.207 107.322 331.006M108.989 328.433C93.6224 334.811 65.3663 338.521 75.2734 302.342M109.512 283.192C109.377 282.27 109.287 281.377 109.241 280.514M109.241 280.514C115.179 282.195 127.387 288.454 128.718 300.038C130.05 311.622 121.152 327.291 116.537 333.678M116.537 333.678C117.618 338.515 116.483 349.096 103.301 352.728M116.537 333.678C101.678 333.586 101.522 346.34 103.301 352.728M116.537 333.678C116.585 331.935 114.809 328.96 107.322 331.006M103.301 352.728L100.176 351.089L97.9092 348.982L96.3333 346.821L95.923 344.937M95.923 344.937C95.8822 343.665 96.6651 340.443 100.123 337.729M100.123 337.729C102.634 336.171 105.145 333.995 107.322 331.006" stroke="black"/>
<path d="M421.678 127.27C421.775 126.758 421.909 126.116 422.086 125.407C424.246 112.866 410.804 116.275 418.384 114.985C423.201 114.166 425.857 107.04 426.748 103.96C427.216 102.341 427.197 101.84 426.748 103.96C426.644 104.45 426.518 105.079 426.369 105.866C424.349 116.551 433.711 118.342 428.347 117.549C424.794 117.024 422.939 121.993 422.086 125.407C421.985 125.993 421.85 126.613 421.678 127.27Z" fill="white"/>
<path d="M421.678 127.27C422.242 124.294 424.056 116.914 428.347 117.549C433.711 118.342 424.349 116.551 426.369 105.866C428.389 95.1807 426.318 113.636 418.384 114.985C410.45 116.335 425.547 112.538 421.678 127.27Z" stroke="black"/>
<path d="M139.78 106.246C139.789 105.842 139.81 105.334 139.855 104.769C139.912 94.8994 130.106 99.2421 135.716 97.2771C139.281 96.0283 140.402 90.2355 140.691 87.7651C140.842 86.4666 140.764 86.086 140.691 87.7651C140.674 88.1527 140.657 88.6502 140.643 89.2714C140.457 97.7039 147.815 97.8642 143.629 97.9506C140.856 98.0079 140.072 102.048 139.855 104.769C139.852 105.23 139.828 105.722 139.78 106.246Z" fill="white"/>
<path d="M139.78 106.246C139.833 103.898 140.28 98.0197 143.629 97.9506C147.815 97.8642 140.457 97.7039 140.643 89.2714C140.829 80.8389 141.588 95.2204 135.716 97.2771C129.844 99.3338 140.862 94.4802 139.78 106.246Z" stroke="black"/>
<path d="M719.601 74.8448C719.617 74.228 719.65 73.4517 719.721 72.5885C719.856 57.5141 705.02 64.194 713.504 61.1659C718.897 59.2415 720.618 50.3888 721.066 46.6143C721.301 44.6305 721.185 44.0494 721.066 46.6143C721.038 47.2064 721.01 47.9662 720.987 48.9151C720.666 61.7949 731.779 62.0043 725.455 62.1564C721.266 62.2572 720.063 68.4315 719.721 72.5885C719.715 73.2921 719.676 74.0431 719.601 74.8448Z" fill="white"/>
<path d="M719.601 74.8448C719.692 71.2578 720.396 62.2781 725.455 62.1564C731.779 62.0043 720.666 61.7949 720.987 48.9151C721.308 36.0354 722.385 57.9965 713.504 61.1659C704.624 64.3353 721.292 56.8694 719.601 74.8448Z" stroke="black"/>
<path d="M16.2551 169C16.4373 169.593 16.6495 170.343 16.8451 171.185C21.6012 185.613 37.4306 175.427 28.1195 180.496C22.2019 183.718 23.0019 192.612 23.6897 196.331C24.0512 198.286 24.3818 198.811 23.6897 196.331C23.53 195.759 23.3157 195.026 23.0347 194.114C19.2212 181.734 5.66193 184.387 13.289 182.618C18.3415 181.446 17.7867 175.242 16.8451 171.185C16.6231 170.512 16.4252 169.785 16.2551 169Z" fill="white"/>
<path d="M16.2551 169C17.3145 172.448 19.3907 181.203 13.289 182.618C5.66193 184.387 19.2212 181.734 23.0347 194.114C26.8483 206.495 18.3737 185.802 28.1195 180.496C37.8652 175.19 20.0687 186.597 16.2551 169Z" stroke="black"/>
<path d="M312.385 297.361C312.699 298.021 313.082 298.859 313.479 299.809C321.358 315.802 330.496 300.828 324.85 308.555C321.262 313.466 324.486 323.735 326.105 327.96C326.956 330.182 327.363 330.733 326.105 327.96C325.814 327.32 325.435 326.503 324.952 325.488C318.396 311.713 308.786 317.424 314.11 313.888C317.638 311.545 315.391 304.382 313.479 299.809C313.111 299.062 312.746 298.248 312.385 297.361Z" fill="white"/>
<path d="M312.385 297.361C314.209 301.199 318.37 311.059 314.11 313.888C308.786 317.424 318.396 311.713 324.952 325.488C331.508 339.263 318.941 316.643 324.85 308.555C330.76 300.467 320.473 317.25 312.385 297.361Z" stroke="black"/>
<path d="M647.721 295.17C647.609 295.997 647.483 297.043 647.375 298.217C644.405 318.365 631.25 304.759 638.936 311.484C643.821 315.758 643.686 328.11 643.348 333.286C643.17 336.007 642.937 336.745 643.348 333.286C643.443 332.488 643.572 331.466 643.744 330.193C646.079 312.912 657.006 316.152 650.844 313.946C646.762 312.486 646.854 303.87 647.375 298.217C647.513 297.277 647.63 296.263 647.721 295.17Z" fill="white"/>
<path d="M647.721 295.17C647.072 299.983 645.914 312.182 650.844 313.946C657.006 316.152 646.079 312.912 643.744 330.193C641.409 347.473 646.981 318.523 638.936 311.484C630.891 304.445 645.679 319.68 647.721 295.17Z" stroke="black"/>
<path d="M423.78 295.557C411.831 300.021 418.627 304.882 424.949 303.378L553.002 272.906C562.67 267.661 555.944 264.108 548.886 265.788L486.333 280.673L423.78 295.557Z" fill="white" stroke="black"/>
<path d="M444.094 346.51L424.119 303.575L553.414 272.808L554.588 320.217L444.094 346.51Z" fill="white" stroke="black"/>
<path d="M446.585 318.474C442.538 301.468 435.44 294.829 441.074 289.642C450.3 281.148 455.132 289.119 467.755 281.61C480.377 274.101 486.092 280.791 486.092 280.791C471.636 289.514 483.001 299.873 485.494 330.734C467.992 340.785 465.977 339.465 455.609 337.846C445.46 336.26 451.51 333.498 446.585 318.474Z" fill="white" stroke="black"/>
<path d="M166.45 120.609C164.799 122.412 166.259 125.682 168.339 124.589L195.934 101.375C201.65 108.007 213.291 116.737 214.125 98.6057C219.738 100.338 229.467 100.306 223.486 86.3158C229.459 87.6055 239.592 87.9772 232.343 79.1471C237.639 79.505 245.787 78.4975 236.009 71.6046C239.514 70.0362 244.737 65.6971 237.587 60.8876C236.882 60.4774 234.389 59.2789 230.051 57.7663C227.835 52.3419 223.159 45.3753 222.185 60.9039C218.128 56.7359 210.903 52.1445 214.467 67.1232C207.146 66.8149 194.632 69.2115 203.142 81.2643C192.569 80.6749 175.959 83.1517 194.102 97.7736L166.45 120.609Z" fill="white"/>
<path d="M195.934 101.375L168.339 124.589C166.259 125.682 164.799 122.412 166.45 120.609L194.102 97.7736M195.934 101.375C201.65 108.007 213.291 116.737 214.125 98.6057C219.738 100.338 229.467 100.306 223.486 86.3158C229.459 87.6055 239.592 87.9772 232.343 79.1471C237.639 79.505 245.787 78.4975 236.009 71.6046C239.514 70.0362 244.737 65.6971 237.587 60.8876C236.882 60.4774 234.389 59.2789 230.051 57.7663C227.835 52.3419 223.159 45.3753 222.185 60.9039C218.128 56.7359 210.903 52.1445 214.467 67.1232C207.146 66.8149 194.632 69.2115 203.142 81.2643C192.569 80.6749 175.959 83.1517 194.102 97.7736M195.934 101.375L194.102 97.7736" stroke="black"/>
<path d="M219.996 270.812C218.49 268.553 216.232 270.059 218.022 272.406L244.94 318.162L245.731 319.506L246.522 320.851L247.392 322.33L248.153 323.624L248.89 324.876L249.626 326.128L250.22 327.137C250.536 327.471 250.839 327.744 251.126 327.961C251.674 328.374 252.166 328.585 252.589 328.635C253.235 328.711 253.723 328.413 254.009 327.887C254.143 327.64 254.232 327.343 254.273 327.012C254.353 326.359 254.273 325.762 253.912 324.764L253.15 323.469L252.389 322.175L250.866 319.586L249.937 318.007L249.343 316.998L248.691 315.888L219.996 270.812Z" fill="white" stroke="black"/>
<path d="M226.503 279.275L222.282 281.813L215.687 270.847C214.764 264.814 218.488 267.259 219.908 268.309L226.503 279.275Z" fill="white" stroke="black"/>
<path d="M225.546 277.656L233.289 275.197C231.561 274.875 231.166 274.247 231.544 272.294L224.77 276.366L223.995 275.075L231.157 271.649C229.616 271.155 229.235 270.511 229.411 268.745L223.413 274.108L222.056 271.85L229.024 268.1C228.098 267.047 226.247 267.134 227.278 265.197L221.28 270.559L222.056 271.85L223.413 274.108L223.995 275.075L224.77 276.366L225.546 277.656Z" fill="white"/>
<path d="M220.31 268.946L226.697 264.229C225.686 264.252 223.804 262.631 224.113 261.391L219.729 267.979L218.308 267.076L222.369 260.683C221.251 261.501 218.613 261.447 218.044 259.331L217.598 266.625L218.308 267.076L219.729 267.979L220.31 268.946Z" fill="white"/>
<path d="M214.881 259.914L216.759 266.69L215.791 267.272L211.655 261.853C212.792 262.575 214.28 260.861 214.881 259.914Z" fill="white"/>
<path d="M215.533 268.305L210.624 263.79C210.582 264.694 210.097 266.566 208.497 266.826L215.276 269.338L215.535 270.499L207.788 268.569C208.456 269.924 209.328 272.738 207.469 273.152L216.311 271.79L217.086 273.08L209.084 274.377C209.923 275.044 211.358 276.699 210.378 277.991L217.668 274.048L218.444 275.338L211.282 278.765C211.928 279.109 213.116 280.209 212.704 281.862L219.219 276.628L220.383 278.564L213.286 282.83C213.483 283.784 215.779 284.928 215.548 285.862L221.352 280.177L220.383 278.564L219.219 276.628L218.444 275.338L217.668 274.048L217.086 273.08L216.311 271.79L215.535 270.499L215.276 269.338L215.533 268.305Z" fill="white"/>
<path d="M224.77 276.366L231.544 272.294C231.166 274.247 231.561 274.875 233.289 275.197L225.546 277.656L224.77 276.366ZM224.77 276.366L223.995 275.075M223.995 275.075L231.157 271.649C229.616 271.155 229.235 270.511 229.411 268.745L223.413 274.108M223.995 275.075L223.413 274.108M223.413 274.108L222.056 271.85M222.056 271.85L229.024 268.1C228.098 267.047 226.247 267.134 227.278 265.197L221.28 270.559L222.056 271.85ZM219.729 267.979L224.113 261.391C223.804 262.631 225.686 264.252 226.697 264.229L220.31 268.946L219.729 267.979ZM219.729 267.979L218.308 267.076M218.308 267.076L222.369 260.683C221.251 261.501 218.613 261.447 218.044 259.331L217.598 266.625L218.308 267.076ZM215.276 269.338L208.497 266.826C210.097 266.566 210.582 264.694 210.624 263.79L215.533 268.305L215.276 269.338ZM215.276 269.338L215.535 270.499M215.535 270.499L207.788 268.569C208.456 269.924 209.328 272.738 207.469 273.152L216.311 271.79M215.535 270.499L216.311 271.79M216.311 271.79L217.086 273.08M217.086 273.08L209.084 274.377C209.923 275.044 211.358 276.699 210.378 277.991L217.668 274.048M217.086 273.08L217.668 274.048M217.668 274.048L218.444 275.338M218.444 275.338L211.282 278.765C211.928 279.109 213.116 280.209 212.704 281.862L219.219 276.628M218.444 275.338L219.219 276.628M219.219 276.628L220.383 278.564M220.383 278.564L213.286 282.83C213.483 283.784 215.779 284.928 215.548 285.862C217.814 283.641 219.085 282.397 221.352 280.177L220.383 278.564ZM216.759 266.69L214.881 259.914C214.28 260.861 212.792 262.575 211.655 261.853L215.791 267.272L216.759 266.69Z" stroke="black"/>
<path d="M251.796 324.13C251.158 323.652 249.968 323.149 250.313 324.959C250.743 327.221 254.183 326.41 251.796 324.13Z" fill="white" stroke="black"/>
<path d="M510.914 63.2559L508.325 68.2725C506.836 70.61 504.522 78.1689 505.94 83.56C506.969 87.4735 506.817 93.8505 506.77 97.5422C506.542 115.214 496.11 114.912 491.428 112.495L470.358 101.619C463.367 95.4687 468.734 86.8033 476.001 81.6598C479.116 79.4554 486.05 76.2439 489.39 74.5938C493.938 72.3471 496.896 66.891 498.626 63.2661L501.216 58.2494C502.411 55.9339 502.519 53.9541 502.015 52.309C497.407 57.7237 487.551 58.8197 483.198 58.6909C487.536 57.2592 496.716 53.1316 498.736 48.0747C497.738 47.3678 496.687 46.8647 495.811 46.565L491.798 44.4934C491.573 40.9892 494.121 38.3511 495.423 37.4701C496.921 37.9887 498.345 38.5121 499.696 39.039C523.491 48.318 524.977 58.6842 522.534 62.9004C513.722 56.9964 511.116 60.6774 510.914 63.2559Z" fill="white"/>
<path d="M501.216 58.2494L510.914 63.2559M501.216 58.2494L498.626 63.2661M501.216 58.2494C502.411 55.9339 502.519 53.9541 502.015 52.309M510.914 63.2559L508.325 68.2725M510.914 63.2559C511.116 60.6774 513.722 56.9964 522.534 62.9004C524.977 58.6842 523.491 48.318 499.696 39.039M508.325 68.2725L498.626 63.2661M508.325 68.2725C506.836 70.61 504.522 78.1689 505.94 83.56C506.969 87.4735 506.817 93.8505 506.77 97.5422C506.542 115.214 496.11 114.912 491.428 112.495L470.358 101.619C463.367 95.4687 468.734 86.8033 476.001 81.6598C479.116 79.4554 486.05 76.2439 489.39 74.5938C493.938 72.3471 496.896 66.891 498.626 63.2661M495.811 46.565L491.798 44.4934C491.573 40.9892 494.121 38.3511 495.423 37.4701C496.921 37.9887 498.345 38.5121 499.696 39.039M495.811 46.565L499.696 39.039M495.811 46.565C496.687 46.8647 497.738 47.3678 498.736 48.0747M502.015 52.309C497.407 57.7237 487.551 58.8197 483.198 58.6909C487.536 57.2592 496.716 53.1316 498.736 48.0747M502.015 52.309C501.458 50.4875 500.149 49.0764 498.736 48.0747" stroke="black"/>
<path d="M606.263 112.648C610.201 119.038 598.596 122.399 592.302 123.281C584.532 127.351 580.258 128.315 578.11 128.108C577.063 128.007 576.562 127.68 576.092 127.293C576.009 127.228 575.928 127.16 575.85 127.088C575.193 126.491 574.679 125.658 574.03 124.606C573.045 123.008 573.603 120.947 574.166 120.02C575.017 118.376 578.255 115.156 584.393 115.433C586.557 115.918 588.617 116.057 589.901 115.292C598.83 108.065 604.298 110.587 606.263 112.648Z" fill="white"/>
<path d="M606.263 112.648C610.201 119.038 598.596 122.399 592.302 123.281C584.532 127.351 580.258 128.315 578.11 128.108M606.263 112.648C604.298 110.587 598.83 108.065 589.901 115.292C588.617 116.057 586.557 115.918 584.393 115.433C578.255 115.156 575.017 118.376 574.166 120.02C573.603 120.947 573.045 123.008 574.03 124.606M606.263 112.648C606.527 113.53 605.904 115.82 601.29 117.929C595.522 120.565 592.079 119.182 591.049 119.113C590.225 119.057 589.78 119.368 589.661 119.53C581.944 126.09 576.025 125.647 574.03 124.606M574.03 124.606C575.251 126.587 575.996 127.79 578.11 128.108M574.03 124.606L575.85 127.088C576.406 127.561 576.883 127.989 578.11 128.108" stroke="black"/>
<path d="M573.191 133.568C576.523 132.566 576.76 129.213 576.462 127.662C578.303 128.061 583.991 127.685 592.019 122.987C593.38 123.147 598.078 122.456 605.977 118.414C607.405 119.247 610.302 121.053 610.469 121.609C610.636 122.164 609.443 122.674 608.826 122.86C609.204 122.998 610.002 123.415 610.169 123.971C610.336 124.527 608.836 125.129 608.064 125.361L603.677 122.514L606.467 125.083L603.182 127.585L599.824 124.807L601.794 128.002L599.48 128.698C594.619 128.643 591.762 129.881 590.941 130.506L588.509 127.45L589.761 131.618L583.953 134.121L582.238 130.092L582.819 133.704L581.431 134.121L581.242 133.495C581.225 133.757 581.145 134.021 580.968 134.26C580.394 135.039 579.047 134.585 578.445 134.261L578.073 131.343L576.385 134.123L573.191 133.568Z" fill="white"/>
<path d="M576.462 127.662C576.76 129.213 576.523 132.566 573.191 133.568L576.385 134.123L578.073 131.343L578.445 134.261C579.047 134.585 580.394 135.039 580.968 134.26C581.541 133.482 581.098 132.454 580.804 132.037L581.431 134.121L582.819 133.704L582.238 130.092L583.953 134.121L589.761 131.618L588.509 127.45L590.941 130.506C591.762 129.881 594.619 128.643 599.48 128.698L601.794 128.002L599.824 124.807L603.182 127.585L606.467 125.083L603.677 122.514L608.064 125.361C608.836 125.129 610.336 124.527 610.169 123.971C610.002 123.415 609.204 122.998 608.826 122.86C609.443 122.674 610.636 122.164 610.469 121.609C610.302 121.053 607.405 119.247 605.977 118.414C598.078 122.456 593.38 123.147 592.019 122.987C583.991 127.685 578.303 128.061 576.462 127.662Z" stroke="black"/>
<path d="M299.134 57.8052C302.809 54.6615 307.458 53.6268 309.111 53.592L310.358 56.5469L311.339 58.8686L311.003 59.259L311.627 60.7364C313.815 61.968 319.327 64.3988 323.875 64.269C328.422 64.1392 331.602 68.5498 332.624 70.7712L335.935 76.8343L338.876 83.7994C340.312 85.7793 338.233 90.3715 337.058 92.5256C338.23 93.5231 342.012 97.1487 343.205 99.3807C346.023 106.647 343.078 111.124 341.985 113.077C334.868 116.166 321.763 121.816 321.182 121.862C320.456 121.92 318.011 121.461 313.647 118.827C309.283 116.193 308.725 109.067 309.327 106.226C309.928 103.386 309.255 99.5415 308.843 97.9744C306.181 91.4719 300.349 78.3327 300.019 77.079C299.608 75.5119 302.02 68.3341 302.296 67.6617C302.542 67.0603 302.756 65.3949 302.712 64.5014L302.13 63.1242C301.873 63.1933 301.645 63.2495 301.451 63.2929L299.134 57.8052Z" fill="white"/>
<path d="M299.134 57.8052C301.17 57.6914 306.356 56.546 309.111 53.592M299.134 57.8052C302.809 54.6615 307.458 53.6268 309.111 53.592M299.134 57.8052L301.451 63.2929C301.645 63.2495 301.873 63.1933 302.13 63.1242M309.111 53.592L310.358 56.5469L311.339 58.8686L311.003 59.259M311.003 59.259C307.801 61.3152 304.102 62.5957 302.13 63.1242M311.003 59.259L311.627 60.7364C313.815 61.968 319.327 64.3988 323.875 64.269C328.422 64.1392 331.602 68.5498 332.624 70.7712L335.935 76.8343L338.876 83.7994C340.312 85.7793 338.233 90.3715 337.058 92.5256C338.23 93.5231 342.012 97.1487 343.205 99.3807C346.023 106.647 343.078 111.124 341.985 113.077C334.868 116.166 321.763 121.816 321.182 121.862C320.456 121.92 318.011 121.461 313.647 118.827C309.283 116.193 308.725 109.067 309.327 106.226C309.928 103.386 309.255 99.5415 308.843 97.9744C306.181 91.4719 300.349 78.3327 300.019 77.079C299.608 75.5119 302.02 68.3341 302.296 67.6617C302.542 67.0603 302.756 65.3949 302.712 64.5014L302.13 63.1242M323.446 69.1757C324.206 68.6061 326.082 68.311 327.254 69.3085C328.425 70.306 327.432 69.7306 331.825 76.58C335.34 82.0596 335.211 86.1763 334.495 87.6394C333.853 88.4904 331.882 89.3894 329.124 86.1766C326.367 82.9639 324.045 76.7154 323.229 73.9927C322.76 72.6156 322.306 70.0301 323.446 69.1757ZM313.726 95.9126L305.992 78.7846C305.153 76.4031 305.208 70.4113 312.467 69.8326C318.275 69.3697 319.408 75.6063 320.923 79.1944L326.627 92.7026C334.719 98.2391 339.757 107.801 330.205 111.835C326.226 114.261 318.461 117.788 315.121 107.51C315.121 107.51 314.141 105.188 314.513 101.922C314.884 98.6565 314.528 97.8122 314.528 97.8122L313.726 95.9126Z" stroke="black"/>
<path d="M683.568 227.846L722.014 227.456C724.659 227.429 726.932 230.952 722.068 232.774L719.359 266.485L687.93 266.804L687.386 262.56C685.595 262.581 684.11 261.87 682.68 260.652C676.684 255.545 683.254 243.899 683.621 233.164C681.383 233.088 678.697 229.077 683.568 227.846Z" fill="white"/>
<path d="M722.068 232.774C726.932 230.952 724.659 227.429 722.014 227.456L683.568 227.846C678.697 229.077 681.383 233.088 683.621 233.164M722.068 232.774L719.359 266.485L687.93 266.804L683.621 233.164M722.068 232.774C695.644 261.938 688.676 265.76 682.68 260.652C676.684 255.545 683.254 243.899 683.621 233.164M722.068 232.774L683.621 233.164" stroke="black"/>
<path d="M701.076 155.356C700.677 156.947 716.181 243.692 716.181 243.692C709.67 242.347 702.971 243.557 701.652 250.568C701.085 253.579 702.113 257.128 704.353 260.628C705.054 261.724 705.873 262.815 706.8 263.883C708.294 265.605 710.066 267.268 712.067 268.797C714.085 270.339 716.336 271.745 718.77 272.937C718.779 272.942 718.788 272.946 718.797 272.951C720.009 273.543 721.346 273.93 722.767 274.149C725.679 274.596 728.946 274.336 732.225 273.683C733.201 273.489 734.178 273.26 735.147 273.004C737.161 272.473 739.139 271.827 741.002 271.142C742.427 270.618 743.783 270.07 745.035 269.533C746.263 269.005 747.391 268.488 748.384 268.011C748.621 267.897 748.851 267.785 749.073 267.677C751.141 266.661 752.495 265.888 752.751 265.709C753.858 264.934 741.227 261.052 739.129 257.405C738.024 255.484 737.157 251.906 736.584 248.948C736.069 246.288 735.792 244.13 735.792 244.13C734.782 240.508 729.406 237.188 721.787 243.818L714.407 200.053L706.682 155.481C706.336 154.674 705.274 153.45 703.821 153.417C702.368 153.385 701.474 153.765 701.076 155.356Z" fill="white"/>
<path d="M721.787 243.818C729.406 237.188 734.782 240.508 735.792 244.13C735.792 244.13 736.069 246.288 736.584 248.948M721.787 243.818L714.407 200.053L706.682 155.481C706.336 154.674 705.274 153.45 703.821 153.417C702.368 153.385 701.474 153.765 701.076 155.356C700.677 156.947 716.181 243.692 716.181 243.692M721.787 243.818C721.698 243.959 721.608 244.09 721.517 244.212M721.787 243.818C725.696 245.372 734.637 250.264 739.129 257.405M721.787 243.818C725.272 242.429 733.11 241.51 736.584 248.948M716.181 243.692C709.67 242.347 702.971 243.557 701.652 250.568C701.085 253.579 702.113 257.128 704.353 260.628M716.181 243.692C712.534 244.144 705.063 248.164 704.353 260.628M716.181 243.692C716.282 243.825 716.399 243.962 716.528 244.1M718.797 272.951C711.896 269.596 715.05 252.867 717.489 244.922M718.797 272.951C720.009 273.543 721.346 273.93 722.767 274.149M718.797 272.951C716.353 271.755 714.092 270.345 712.067 268.797M739.129 257.405C741.227 261.052 753.858 264.934 752.751 265.709C752.495 265.888 751.141 266.661 749.073 267.677M739.129 257.405C738.024 255.484 737.157 251.906 736.584 248.948M721.76 245.017C723.752 251.059 731.196 264.421 745.035 269.533M745.035 269.533C746.263 269.005 747.391 268.488 748.384 268.011M745.035 269.533C743.783 270.07 742.427 270.618 741.002 271.142M719.41 245.523C720.611 256.819 720.808 275.957 732.225 273.683M719.41 245.523C719.038 245.546 718.672 245.479 718.324 245.352M719.41 245.523C719.858 245.495 720.315 245.337 720.762 244.995M732.225 273.683C728.946 274.336 725.679 274.596 722.767 274.149M732.225 273.683C733.201 273.489 734.178 273.26 735.147 273.004M717.489 244.922C717.275 244.779 717.075 244.621 716.89 244.455M717.489 244.922C717.75 245.096 718.031 245.245 718.324 245.352M704.353 260.628C705.054 261.724 705.873 262.815 706.8 263.883M704.353 260.628C701.344 245.521 711.216 243.315 716.528 244.1M716.89 244.455C714.031 246.942 708.009 254.31 706.8 263.883M716.89 244.455C716.761 244.339 716.64 244.219 716.528 244.1M706.8 263.883C708.294 265.605 710.066 267.268 712.067 268.797M718.324 245.352C717.326 252.065 716.818 267.224 722.767 274.149M720.762 244.995C722.42 253.787 727.618 271.699 735.147 273.004M720.762 244.995C721.018 244.798 721.272 244.54 721.517 244.212M735.147 273.004C737.161 272.473 739.139 271.827 741.002 271.142M721.517 244.212C725.79 250.974 737.146 265.2 748.384 268.011M721.517 244.212C728.656 251.471 744.162 266.327 749.073 267.677M721.517 244.212C724.598 254.211 732.808 273.595 741.002 271.142M748.384 268.011C748.621 267.897 748.851 267.785 749.073 267.677M716.88 244.908C713.697 250.568 708.279 263.269 712.067 268.797" stroke="black"/>
<path d="M663.693 83.1174L650.109 38.7112C649.069 38.5397 648.089 38.6186 647.219 38.8287C645.627 39.2132 644.402 40.0371 643.845 40.5682L647.744 56.3011L645.419 60.0202C637.124 62.2168 629.769 65.9412 627.129 67.5288C626.337 68.0051 623.152 69.1445 623.047 69.5671C619.403 70.6787 611.116 75.3771 612.474 78.7402C613.831 82.1033 616.947 78.8712 621.492 77.052C629.378 72.8439 630.26 70.8988 629.715 70.4523C634.295 66.0417 642.834 64.0889 646.531 63.6639L650.237 65.4165L656.027 83.7443C657.009 84.9041 658.961 84.7801 660.759 84.2808C661.891 83.9662 662.963 83.5027 663.693 83.1174Z" fill="white"/>
<path d="M647.219 38.8287C645.627 39.2132 644.402 40.0371 643.845 40.5682L647.744 56.3011L645.419 60.0202C637.124 62.2168 629.769 65.9412 627.129 67.5288C626.337 68.0051 623.152 69.1445 623.047 69.5671C619.403 70.6787 611.116 75.3771 612.474 78.7402C613.831 82.1033 616.947 78.8712 621.492 77.052C629.378 72.8439 630.26 70.8988 629.715 70.4523C634.295 66.0417 642.834 64.0889 646.531 63.6639L650.237 65.4165L656.027 83.7443C657.009 84.9041 658.961 84.7801 660.759 84.2808M647.219 38.8287C648.089 38.6186 649.069 38.5397 650.109 38.7112L663.693 83.1174C662.963 83.5027 661.891 83.9662 660.759 84.2808M647.219 38.8287L660.759 84.2808M624.559 70.5655C624.035 71.0737 623.588 72.2604 625.987 72.9413M622.28 71.1887C621.692 72.2333 621.181 74.3536 623.843 74.4786M619.904 72.6164C619.162 73.5879 618.434 75.6061 621.467 75.9063" stroke="black"/>
<path d="M65.843 133.14C71.1269 135.128 70.8257 130.702 70.3062 117.301L31.9587 98.1073C31.9587 98.1073 27.2402 105.347 23.591 106.429C19.9418 107.51 17.7692 107.006 21.5116 108.816L21.5953 112.869C23.3288 112.181 29.1391 109.278 30.7629 106.672C32.7429 103.495 26.4946 114.052 25.2057 114.203C26.0416 114.513 28.7498 115.741 28.6809 117.551C30.2108 114.909 33.7645 109.169 35.74 107.338C37.7154 105.508 33.2079 113.356 30.7073 117.509C31.1479 117.406 32.0716 118.585 33.8322 119.891C36.033 121.523 37.7176 111.701 40.5845 108.357L36.605 122.14C37.4421 122.053 39.8926 120.884 40.8776 122.541L45.5162 110.212L42.2413 124.261C44.885 123.647 47.9151 124.143 48.582 126.646L51.5046 112.465C51.6325 116.4 51.6498 124.905 50.6956 127.441C52.3848 126.871 55.9474 126.522 56.6841 129.695L58.6634 118.02C59.2662 122.119 60.0665 130.324 58.4454 130.357L58.3524 130.359L58.3514 130.359C58.3322 130.359 58.3141 130.36 58.2969 130.36L58.2958 130.36C59.2908 130.379 63.0695 130.586 63.413 132.226C63.7785 133.972 64.3434 124.4 64.5802 119.395L65.843 133.14Z" fill="white"/>
<path d="M56.9496 101.462C56.9496 101.462 113.183 25.0434 113.595 23.3271C114.008 21.6109 112.53 20.4248 111.199 19.7872C109.867 19.1496 108.309 19.8391 107.604 20.4581L78.9281 59.835L50.958 98.5929C41.0518 91.9356 34.6346 95.0826 31.9587 98.1073L70.3062 117.301C72.6169 111.159 63.5003 103.163 56.9496 101.462Z" fill="white"/>
<path d="M70.3062 117.301C72.6169 111.159 63.5003 103.163 56.9496 101.462C56.9496 101.462 113.183 25.0434 113.595 23.3271C114.008 21.6109 112.53 20.4248 111.199 19.7872C109.867 19.1496 108.309 19.8391 107.604 20.4581L78.9281 59.835L50.958 98.5929C41.0518 91.9356 34.6346 95.0826 31.9587 98.1073M70.3062 117.301C70.8257 130.702 71.1269 135.128 65.843 133.14L64.5802 119.395C64.3434 124.4 63.7785 133.972 63.413 132.226M70.3062 117.301L31.9587 98.1073M31.9587 98.1073C31.9587 98.1073 27.2402 105.347 23.591 106.429C19.9418 107.51 17.7692 107.006 21.5116 108.816L21.5953 112.869C23.3288 112.181 29.1391 109.278 30.7629 106.672C32.7429 103.495 26.4946 114.052 25.2057 114.203M58.4454 130.357C60.0665 130.324 59.2662 122.119 58.6634 118.02L56.6841 129.695C55.9474 126.522 52.3848 126.871 50.6956 127.441C51.6498 124.905 51.6325 116.4 51.5046 112.465L48.582 126.646C47.9151 124.143 44.885 123.647 42.2413 124.261L45.5162 110.212L40.8776 122.541C39.8926 120.884 37.4421 122.053 36.605 122.14L40.5845 108.357C37.7176 111.701 36.033 121.523 33.8322 119.891C32.0716 118.585 31.1479 117.406 30.7073 117.509C33.2079 113.356 37.7154 105.508 35.74 107.338C33.7645 109.169 30.2108 114.909 28.6809 117.551C28.7498 115.741 26.0416 114.513 25.2057 114.203M58.4454 130.357C58.4121 130.358 58.3811 130.358 58.3524 130.359M58.4454 130.357L58.3524 130.359M63.413 132.226C63.0695 130.586 59.2908 130.379 58.2958 130.36M63.413 132.226C63.0696 130.586 59.2937 130.379 58.2969 130.36M25.2057 114.203C24.9426 114.106 24.865 114.099 25.1181 114.194C25.144 114.204 25.1733 114.207 25.2057 114.203ZM58.2958 130.36L58.2969 130.36M58.2958 130.36C58.0036 130.354 57.9515 130.365 58.2969 130.36M58.3524 130.359L58.3514 130.359C58.3322 130.359 58.3141 130.36 58.2969 130.36" stroke="black"/>
</svg>
