<svg width="755" height="376" viewBox="0 0 755 376" fill="none" xmlns="http://www.w3.org/2000/svg">
<path d="M36.8009 315.789L10.8547 298.532C10.6418 297.172 11.0663 294.244 14.4671 293.411C17.868 292.578 21.7062 292.059 23.2001 291.903L29.6411 294.652L31.6539 295.511C32.0744 294.897 33.9384 293.725 38.0306 293.949L108.926 208.091C117.613 201.487 138.37 191.723 151.909 205.494C165.448 219.265 152.639 230.55 141.496 234.36C129.072 238.609 105.584 244.95 110.84 264.943C116.995 265.387 130.218 269.044 133.867 280.118C137.517 291.193 131.978 308.339 128.752 315.528C130.789 320.046 131.822 330.637 119.648 336.864L116.256 335.892L113.609 334.287L111.628 332.49L110.845 330.728L102.681 328.672C95.435 325.58 80.7239 319.018 79.8479 317.502C74.0595 320.362 73.4392 310.961 73.8526 305.903C75.7165 292.613 80.0586 291.896 81.9967 293.199C88.209 282.911 98.758 273.01 106.134 267.333C104.532 260.78 101.668 256.136 109.789 245.1C111.921 242.203 126.209 234.5 132.355 232.363C138.826 230.114 144.487 228.776 146.944 227.168C149.585 225.44 160.339 218 148.866 207.051C140.75 199.305 128.532 201.547 122.656 204.908L112.436 211.016L42.346 297.218C43.6189 297.952 44.5443 302.326 43.795 304.974L47.4771 307.497C50.9724 308.227 50.3183 311.247 49.5542 312.665L36.8009 315.789Z" fill="white"/>
<path d="M36.8009 315.789L10.8547 298.532C10.6418 297.172 11.0663 294.244 14.4671 293.411C17.868 292.578 21.7062 292.059 23.2001 291.903L29.6411 294.652L31.6539 295.511C32.0744 294.897 33.9384 293.725 38.0306 293.949L108.926 208.091M36.8009 315.789L49.5542 312.665C50.3183 311.247 50.9724 308.227 47.4771 307.497M36.8009 315.789L38.6904 311.361C40.1629 309.769 43.9818 306.766 47.4771 307.497M47.4771 307.497L43.7951 304.974C44.5443 302.326 43.6189 297.952 42.346 297.218L112.436 211.016M108.926 208.091L112.436 211.016M108.926 208.091C117.613 201.487 138.37 191.723 151.909 205.494C165.448 219.265 152.639 230.55 141.496 234.36C129.072 238.609 105.584 244.95 110.84 264.943M112.436 211.016L122.656 204.908C128.532 201.547 140.75 199.305 148.866 207.051C160.339 218 149.585 225.44 146.944 227.168C144.487 228.776 138.826 230.114 132.355 232.363C126.209 234.5 111.921 242.203 109.789 245.1C101.668 256.136 104.532 260.78 106.134 267.333M106.134 267.333C107.213 271.746 109.175 274.625 110.24 275.271C112.357 276.555 114.07 274.843 114.663 273.827C113.37 271.615 112.376 269.511 111.647 267.511M106.134 267.333C98.758 273.01 88.209 282.911 81.9967 293.199M79.8479 317.502C80.7239 319.018 95.435 325.58 102.681 328.672M79.8479 317.502C74.654 310.614 76.8193 301.772 81.9967 293.199M79.8479 317.502C74.0595 320.362 73.4392 310.961 73.8526 305.903C75.7165 292.613 80.0586 291.896 81.9967 293.199M102.681 328.672C105.208 328.249 109.565 326.553 113.499 322.819M102.681 328.672L110.845 330.728M120.298 311.921C129.039 298.498 139.546 270.824 111.647 267.511M120.298 311.921C119.967 312.926 119.594 313.878 119.186 314.777M120.298 311.921C106.541 321.278 79.6223 330.634 81.9967 293.199M111.647 267.511C111.328 266.635 111.06 265.779 110.84 264.943M110.84 264.943C116.995 265.387 130.218 269.044 133.867 280.118C137.517 291.193 131.978 308.339 128.752 315.528M128.752 315.528C130.789 320.046 131.822 330.637 119.648 336.864M128.752 315.528C114.182 318.447 116.612 330.968 119.648 336.864M128.752 315.528C128.446 313.811 126.104 311.257 119.186 314.777M119.648 336.864L116.256 335.892L113.609 334.287L111.628 332.49L110.845 330.728M110.845 330.728C110.547 329.491 110.662 326.177 113.499 322.819M113.499 322.819C115.642 320.785 117.659 318.145 119.186 314.777" stroke="black"/>
<path d="M421.678 102.27C421.775 101.758 421.909 101.116 422.086 100.407C424.246 87.8664 410.804 91.2747 418.384 89.9855C423.201 89.1661 425.857 82.0401 426.748 78.9602C427.216 77.3415 427.197 76.8404 426.748 78.9602C426.644 79.4496 426.518 80.0786 426.369 80.8659C424.349 91.551 433.711 93.3417 428.347 92.5488C424.794 92.0235 422.939 96.9932 422.086 100.407C421.985 100.993 421.85 101.613 421.678 102.27Z" fill="white"/>
<path d="M421.678 102.27C422.242 99.2942 424.056 91.9144 428.347 92.5488C433.711 93.3417 424.349 91.551 426.369 80.8659C428.389 70.1807 426.318 88.6361 418.384 89.9855C410.45 91.3349 425.547 87.5379 421.678 102.27Z" stroke="black"/>
<path d="M139.78 81.2462C139.789 80.8424 139.81 80.3342 139.855 79.7691C139.912 69.8994 130.106 74.2421 135.716 72.2771C139.281 71.0283 140.402 65.2355 140.691 62.7651C140.842 61.4666 140.764 61.086 140.691 62.7651C140.674 63.1527 140.657 63.6502 140.643 64.2714C140.457 72.7039 147.815 72.8642 143.629 72.9506C140.856 73.0079 140.072 77.048 139.855 79.7691C139.852 80.2298 139.828 80.7215 139.78 81.2462Z" fill="white"/>
<path d="M139.78 81.2462C139.833 78.8978 140.28 73.0197 143.629 72.9506C147.815 72.8642 140.457 72.7039 140.643 64.2714C140.829 55.8389 141.588 70.2204 135.716 72.2771C129.844 74.3338 140.862 69.4802 139.78 81.2462Z" stroke="black"/>
<path d="M719.601 74.8448C719.617 74.228 719.65 73.4517 719.721 72.5885C719.856 57.5141 705.02 64.194 713.504 61.1659C718.897 59.2415 720.618 50.3888 721.066 46.6143C721.301 44.6305 721.185 44.0494 721.066 46.6143C721.038 47.2064 721.01 47.9662 720.987 48.9151C720.666 61.7949 731.779 62.0043 725.455 62.1564C721.266 62.2572 720.063 68.4315 719.721 72.5885C719.715 73.2921 719.676 74.0431 719.601 74.8448Z" fill="white"/>
<path d="M719.601 74.8448C719.692 71.2578 720.396 62.2781 725.455 62.1564C731.779 62.0043 720.666 61.7949 720.987 48.9151C721.308 36.0354 722.385 57.9965 713.504 61.1659C704.624 64.3353 721.292 56.8694 719.601 74.8448Z" stroke="black"/>
<path d="M16.2551 169C16.4373 169.593 16.6495 170.343 16.8451 171.185C21.6012 185.613 37.4306 175.427 28.1195 180.496C22.2019 183.718 23.0019 192.612 23.6897 196.331C24.0512 198.286 24.3818 198.811 23.6897 196.331C23.53 195.759 23.3157 195.026 23.0347 194.114C19.2212 181.734 5.66193 184.387 13.289 182.618C18.3415 181.446 17.7867 175.242 16.8451 171.185C16.6231 170.512 16.4252 169.785 16.2551 169Z" fill="white"/>
<path d="M16.2551 169C17.3145 172.448 19.3907 181.203 13.289 182.618C5.66193 184.387 19.2212 181.734 23.0347 194.114C26.8483 206.495 18.3737 185.802 28.1195 180.496C37.8652 175.19 20.0687 186.597 16.2551 169Z" stroke="black"/>
<path d="M316.385 258.361C316.699 259.021 317.082 259.859 317.479 260.809C325.358 276.802 334.496 261.828 328.85 269.555C325.262 274.466 328.486 284.735 330.105 288.96C330.956 291.182 331.363 291.733 330.105 288.96C329.814 288.32 329.435 287.503 328.952 286.488C322.396 272.713 312.786 278.424 318.11 274.888C321.638 272.545 319.391 265.382 317.479 260.809C317.111 260.062 316.746 259.248 316.385 258.361Z" fill="white"/>
<path d="M316.385 258.361C318.209 262.199 322.37 272.059 318.11 274.888C312.786 278.424 322.396 272.713 328.952 286.488C335.508 300.263 322.941 277.643 328.85 269.555C334.76 261.467 324.473 278.25 316.385 258.361Z" stroke="black"/>
<path d="M690.721 264.17C690.609 264.997 690.483 266.043 690.375 267.217C687.405 287.365 674.25 273.759 681.936 280.484C686.821 284.758 686.686 297.11 686.348 302.286C686.171 305.007 685.937 305.745 686.348 302.286C686.443 301.488 686.572 300.466 686.744 299.193C689.079 281.912 700.007 285.152 693.844 282.946C689.762 281.486 689.854 272.87 690.375 267.217C690.513 266.277 690.63 265.263 690.721 264.17Z" fill="white"/>
<path d="M690.721 264.17C690.073 268.983 688.915 281.182 693.844 282.946C700.007 285.152 689.079 281.912 686.744 299.193C684.409 316.473 689.982 287.523 681.936 280.484C673.891 273.445 688.679 288.68 690.721 264.17Z" stroke="black"/>
<path d="M445.78 288.557C433.831 293.021 440.627 297.882 446.949 296.378L575.002 265.906C584.67 260.661 577.944 257.108 570.886 258.788L508.333 273.673L445.78 288.557Z" fill="white" stroke="black"/>
<path d="M466.094 339.51L446.119 296.575L575.414 265.808L576.588 313.217L466.094 339.51Z" fill="white" stroke="black"/>
<path d="M468.585 311.474C464.538 294.468 457.44 287.829 463.074 282.642C472.3 274.148 477.132 282.119 489.755 274.61C502.377 267.101 508.092 273.791 508.092 273.791C493.636 282.514 505.001 292.873 507.494 323.734C489.992 333.785 487.977 332.465 477.609 330.846C467.46 329.26 473.51 326.498 468.585 311.474Z" fill="white" stroke="black"/>
<path d="M166.45 95.6085C164.799 97.412 166.259 100.682 168.339 99.5892L195.934 76.375C201.65 83.0067 213.291 91.7373 214.125 73.6057C219.738 75.3382 229.467 75.3058 223.486 61.3158C229.459 62.6055 239.592 62.9772 232.343 54.1471C237.639 54.505 245.787 53.4975 236.009 46.6046C239.514 45.0362 244.737 40.6971 237.587 35.8876C236.882 35.4774 234.389 34.2789 230.051 32.7663C227.835 27.3419 223.159 20.3753 222.185 35.9039C218.128 31.7359 210.903 27.1445 214.467 42.1232C207.146 41.8149 194.632 44.2115 203.142 56.2643C192.569 55.6749 175.959 58.1517 194.102 72.7736L166.45 95.6085Z" fill="white"/>
<path d="M195.934 76.375L168.339 99.5892C166.259 100.682 164.799 97.412 166.45 95.6085L194.102 72.7736M195.934 76.375C201.65 83.0067 213.291 91.7373 214.125 73.6057C219.738 75.3382 229.467 75.3058 223.486 61.3158C229.459 62.6055 239.592 62.9772 232.343 54.1471C237.639 54.505 245.787 53.4975 236.009 46.6046C239.514 45.0362 244.737 40.6971 237.587 35.8876C236.882 35.4774 234.389 34.2789 230.051 32.7663C227.835 27.3419 223.159 20.3753 222.185 35.9039C218.128 31.7359 210.903 27.1445 214.467 42.1232C207.146 41.8149 194.632 44.2115 203.142 56.2643C192.569 55.6749 175.959 58.1517 194.102 72.7736M195.934 76.375L194.102 72.7736" stroke="black"/>
<path d="M229.996 260.812C228.49 258.553 226.232 260.059 228.022 262.406L254.94 308.162L255.731 309.506L256.522 310.851L257.392 312.33L258.153 313.624L258.89 314.876L259.626 316.128L260.22 317.137C260.536 317.471 260.839 317.744 261.126 317.961C261.674 318.374 262.166 318.585 262.589 318.635C263.235 318.711 263.723 318.413 264.009 317.887C264.143 317.64 264.232 317.343 264.273 317.012C264.353 316.359 264.273 315.762 263.912 314.764L263.15 313.469L262.389 312.175L260.866 309.586L259.937 308.007L259.343 306.998L258.691 305.888L229.996 260.812Z" fill="white" stroke="black"/>
<path d="M236.503 269.275L232.282 271.813L225.687 260.847C224.764 254.814 228.488 257.259 229.908 258.309L236.503 269.275Z" fill="white" stroke="black"/>
<path d="M235.546 267.656L243.289 265.197C241.561 264.875 241.166 264.247 241.544 262.294L234.77 266.366L233.995 265.075L241.157 261.649C239.616 261.155 239.235 260.511 239.411 258.745L233.413 264.108L232.056 261.85L239.024 258.1C238.098 257.047 236.247 257.134 237.278 255.197L231.28 260.559L232.056 261.85L233.413 264.108L233.995 265.075L234.77 266.366L235.546 267.656Z" fill="white"/>
<path d="M230.31 258.946L236.697 254.229C235.686 254.252 233.804 252.631 234.113 251.391L229.729 257.979L228.308 257.076L232.369 250.683C231.251 251.501 228.613 251.447 228.044 249.331L227.598 256.625L228.308 257.076L229.729 257.979L230.31 258.946Z" fill="white"/>
<path d="M224.881 249.914L226.759 256.69L225.791 257.272L221.655 251.853C222.792 252.575 224.28 250.861 224.881 249.914Z" fill="white"/>
<path d="M225.533 258.305L220.624 253.79C220.582 254.694 220.097 256.566 218.497 256.826L225.276 259.338L225.535 260.499L217.788 258.569C218.456 259.924 219.328 262.738 217.469 263.152L226.311 261.79L227.086 263.08L219.084 264.377C219.923 265.044 221.358 266.699 220.378 267.991L227.668 264.048L228.444 265.338L221.282 268.765C221.928 269.109 223.116 270.209 222.704 271.862L229.219 266.628L230.383 268.564L223.286 272.83C223.483 273.784 225.779 274.928 225.548 275.862L231.352 270.177L230.383 268.564L229.219 266.628L228.444 265.338L227.668 264.048L227.086 263.08L226.311 261.79L225.535 260.499L225.276 259.338L225.533 258.305Z" fill="white"/>
<path d="M234.77 266.366L241.544 262.294C241.166 264.247 241.561 264.875 243.289 265.197L235.546 267.656L234.77 266.366ZM234.77 266.366L233.995 265.075M233.995 265.075L241.157 261.649C239.616 261.155 239.235 260.511 239.411 258.745L233.413 264.108M233.995 265.075L233.413 264.108M233.413 264.108L232.056 261.85M232.056 261.85L239.024 258.1C238.098 257.047 236.247 257.134 237.278 255.197L231.28 260.559L232.056 261.85ZM229.729 257.979L234.113 251.391C233.804 252.631 235.686 254.252 236.697 254.229L230.31 258.946L229.729 257.979ZM229.729 257.979L228.308 257.076M228.308 257.076L232.369 250.683C231.251 251.501 228.613 251.447 228.044 249.331L227.598 256.625L228.308 257.076ZM225.276 259.338L218.497 256.826C220.097 256.566 220.582 254.694 220.624 253.79L225.533 258.305L225.276 259.338ZM225.276 259.338L225.535 260.499M225.535 260.499L217.788 258.569C218.456 259.924 219.328 262.738 217.469 263.152L226.311 261.79M225.535 260.499L226.311 261.79M226.311 261.79L227.086 263.08M227.086 263.08L219.084 264.377C219.923 265.044 221.358 266.699 220.378 267.991L227.668 264.048M227.086 263.08L227.668 264.048M227.668 264.048L228.444 265.338M228.444 265.338L221.282 268.765C221.928 269.109 223.116 270.209 222.704 271.862L229.219 266.628M228.444 265.338L229.219 266.628M229.219 266.628L230.383 268.564M230.383 268.564L223.286 272.83C223.483 273.784 225.779 274.928 225.548 275.862C227.814 273.641 229.085 272.397 231.352 270.177L230.383 268.564ZM226.759 256.69L224.881 249.914C224.28 250.861 222.792 252.575 221.655 251.853L225.791 257.272L226.759 256.69Z" stroke="black"/>
<path d="M261.796 314.13C261.158 313.652 259.968 313.149 260.313 314.959C260.743 317.221 264.183 316.41 261.796 314.13Z" fill="white" stroke="black"/>
<path d="M510.914 63.2559L508.325 68.2725C506.836 70.61 504.522 78.1689 505.94 83.56C506.969 87.4735 506.817 93.8505 506.77 97.5422C506.542 115.214 496.11 114.912 491.428 112.495L470.358 101.619C463.367 95.4687 468.734 86.8033 476.001 81.6598C479.116 79.4554 486.05 76.2439 489.39 74.5938C493.938 72.3471 496.896 66.891 498.626 63.2661L501.216 58.2494C502.411 55.9339 502.519 53.9541 502.015 52.309C497.407 57.7237 487.551 58.8197 483.198 58.6909C487.536 57.2592 496.716 53.1316 498.736 48.0747C497.738 47.3678 496.687 46.8647 495.811 46.565L491.798 44.4934C491.573 40.9892 494.121 38.3511 495.423 37.4701C496.921 37.9887 498.345 38.5121 499.696 39.039C523.491 48.318 524.977 58.6842 522.534 62.9004C513.722 56.9964 511.116 60.6774 510.914 63.2559Z" fill="white"/>
<path d="M501.216 58.2494L510.914 63.2559M501.216 58.2494L498.626 63.2661M501.216 58.2494C502.411 55.9339 502.519 53.9541 502.015 52.309M510.914 63.2559L508.325 68.2725M510.914 63.2559C511.116 60.6774 513.722 56.9964 522.534 62.9004C524.977 58.6842 523.491 48.318 499.696 39.039M508.325 68.2725L498.626 63.2661M508.325 68.2725C506.836 70.61 504.522 78.1689 505.94 83.56C506.969 87.4735 506.817 93.8505 506.77 97.5422C506.542 115.214 496.11 114.912 491.428 112.495L470.358 101.619C463.367 95.4687 468.734 86.8033 476.001 81.6598C479.116 79.4554 486.05 76.2439 489.39 74.5938C493.938 72.3471 496.896 66.891 498.626 63.2661M495.811 46.565L491.798 44.4934C491.573 40.9892 494.121 38.3511 495.423 37.4701C496.921 37.9887 498.345 38.5121 499.696 39.039M495.811 46.565L499.696 39.039M495.811 46.565C496.687 46.8647 497.738 47.3678 498.736 48.0747M502.015 52.309C497.407 57.7237 487.551 58.8197 483.198 58.6909C487.536 57.2592 496.716 53.1316 498.736 48.0747M502.015 52.309C501.458 50.4875 500.149 49.0764 498.736 48.0747" stroke="black"/>
<path d="M606.263 112.648C610.201 119.038 598.596 122.399 592.302 123.281C584.532 127.351 580.258 128.315 578.11 128.108C577.063 128.007 576.562 127.68 576.092 127.293C576.009 127.228 575.928 127.16 575.85 127.088C575.193 126.491 574.679 125.658 574.03 124.606C573.045 123.008 573.603 120.947 574.166 120.02C575.017 118.376 578.255 115.156 584.393 115.433C586.557 115.918 588.617 116.057 589.901 115.292C598.83 108.065 604.298 110.587 606.263 112.648Z" fill="white"/>
<path d="M606.263 112.648C610.201 119.038 598.596 122.399 592.302 123.281C584.532 127.351 580.258 128.315 578.11 128.108M606.263 112.648C604.298 110.587 598.83 108.065 589.901 115.292C588.617 116.057 586.557 115.918 584.393 115.433C578.255 115.156 575.017 118.376 574.166 120.02C573.603 120.947 573.045 123.008 574.03 124.606M606.263 112.648C606.527 113.53 605.904 115.82 601.29 117.929C595.522 120.565 592.079 119.182 591.049 119.113C590.225 119.057 589.78 119.368 589.661 119.53C581.944 126.09 576.025 125.647 574.03 124.606M574.03 124.606C575.251 126.587 575.996 127.79 578.11 128.108M574.03 124.606L575.85 127.088C576.406 127.561 576.883 127.989 578.11 128.108" stroke="black"/>
<path d="M573.191 133.568C576.523 132.566 576.76 129.213 576.462 127.662C578.303 128.061 583.991 127.685 592.019 122.987C593.38 123.147 598.078 122.456 605.977 118.414C607.405 119.247 610.302 121.053 610.469 121.609C610.636 122.164 609.443 122.674 608.826 122.86C609.204 122.998 610.002 123.415 610.169 123.971C610.336 124.527 608.836 125.129 608.064 125.361L603.677 122.514L606.467 125.083L603.182 127.585L599.824 124.807L601.794 128.002L599.48 128.698C594.619 128.643 591.762 129.881 590.941 130.506L588.509 127.45L589.761 131.618L583.953 134.121L582.238 130.092L582.819 133.704L581.431 134.121L581.242 133.495C581.225 133.757 581.145 134.021 580.968 134.26C580.394 135.039 579.047 134.585 578.445 134.261L578.073 131.343L576.385 134.123L573.191 133.568Z" fill="white"/>
<path d="M576.462 127.662C576.76 129.213 576.523 132.566 573.191 133.568L576.385 134.123L578.073 131.343L578.445 134.261C579.047 134.585 580.394 135.039 580.968 134.26C581.541 133.482 581.098 132.454 580.804 132.037L581.431 134.121L582.819 133.704L582.238 130.092L583.953 134.121L589.761 131.618L588.509 127.45L590.941 130.506C591.762 129.881 594.619 128.643 599.48 128.698L601.794 128.002L599.824 124.807L603.182 127.585L606.467 125.083L603.677 122.514L608.064 125.361C608.836 125.129 610.336 124.527 610.169 123.971C610.002 123.415 609.204 122.998 608.826 122.86C609.443 122.674 610.636 122.164 610.469 121.609C610.302 121.053 607.405 119.247 605.977 118.414C598.078 122.456 593.38 123.147 592.019 122.987C583.991 127.685 578.303 128.061 576.462 127.662Z" stroke="black"/>
<path d="M299.134 32.8052C302.809 29.6615 307.458 28.6268 309.111 28.592L310.358 31.5469L311.339 33.8686L311.003 34.259L311.627 35.7364C313.815 36.968 319.327 39.3988 323.875 39.269C328.422 39.1392 331.602 43.5498 332.624 45.7712L335.935 51.8343L338.876 58.7994C340.312 60.7793 338.233 65.3715 337.058 67.5256C338.23 68.5231 342.012 72.1487 343.205 74.3807C346.023 81.6466 343.078 86.1235 341.985 88.0772C334.868 91.1655 321.763 96.816 321.182 96.8622C320.456 96.9201 318.011 96.4605 313.647 93.8267C309.283 91.1929 308.725 84.0669 309.327 81.2264C309.928 78.3859 309.255 74.5415 308.843 72.9744C306.181 66.4719 300.349 53.3327 300.019 52.079C299.608 50.5119 302.02 43.3341 302.296 42.6617C302.542 42.0603 302.756 40.3949 302.712 39.5014L302.13 38.1242C301.873 38.1933 301.645 38.2495 301.451 38.2929L299.134 32.8052Z" fill="white"/>
<path d="M299.134 32.8052C301.17 32.6914 306.356 31.546 309.111 28.592M299.134 32.8052C302.809 29.6615 307.458 28.6268 309.111 28.592M299.134 32.8052L301.451 38.2929C301.645 38.2495 301.873 38.1933 302.13 38.1242M309.111 28.592L310.358 31.5469L311.339 33.8686L311.003 34.259M311.003 34.259C307.801 36.3152 304.102 37.5957 302.13 38.1242M311.003 34.259L311.627 35.7364C313.815 36.968 319.327 39.3988 323.875 39.269C328.422 39.1392 331.602 43.5498 332.624 45.7712L335.935 51.8343L338.876 58.7994C340.312 60.7793 338.233 65.3715 337.058 67.5256C338.23 68.5231 342.012 72.1487 343.205 74.3807C346.023 81.6466 343.078 86.1235 341.985 88.0772C334.868 91.1655 321.763 96.816 321.182 96.8622C320.456 96.9201 318.011 96.4605 313.647 93.8267C309.283 91.1929 308.725 84.0669 309.327 81.2264C309.928 78.3859 309.255 74.5415 308.843 72.9744C306.181 66.4719 300.349 53.3327 300.019 52.079C299.608 50.5119 302.02 43.3341 302.296 42.6617C302.542 42.0603 302.756 40.3949 302.712 39.5014L302.13 38.1242M323.446 44.1757C324.206 43.6061 326.082 43.311 327.254 44.3085C328.425 45.306 327.432 44.7306 331.825 51.58C335.34 57.0596 335.211 61.1763 334.495 62.6394C333.853 63.4904 331.882 64.3894 329.124 61.1766C326.367 57.9639 324.045 51.7154 323.229 48.9927C322.76 47.6156 322.306 45.0301 323.446 44.1757ZM313.726 70.9126L305.992 53.7846C305.153 51.4031 305.208 45.4113 312.467 44.8326C318.275 44.3697 319.408 50.6063 320.923 54.1944L326.627 67.7026C334.719 73.2391 339.757 82.8006 330.205 86.8345C326.226 89.2606 318.461 92.7885 315.121 82.5098C315.121 82.5098 314.141 80.1881 314.513 76.9223C314.884 73.6565 314.528 72.8122 314.528 72.8122L313.726 70.9126Z" stroke="black"/>
<path d="M670.993 185.704L708.946 191.858C711.557 192.281 713.198 196.139 708.095 197.108L699.692 229.867L668.667 224.836L668.853 220.562C667.084 220.277 665.741 219.325 664.539 217.881C659.499 211.828 667.954 201.469 670.142 190.954C667.949 190.498 665.985 186.089 670.993 185.704Z" fill="white"/>
<path d="M708.095 197.108C713.198 196.139 711.557 192.281 708.946 191.858L670.993 185.704C665.985 186.089 667.949 190.498 670.142 190.954M708.095 197.108L699.692 229.867L668.667 224.836L670.142 190.954M708.095 197.108C677.096 221.353 669.579 223.934 664.539 217.881C659.499 211.828 667.954 201.469 670.142 190.954M708.095 197.108L670.142 190.954" stroke="black"/>
<path d="M700.574 117.247C699.911 118.747 700.436 206.866 700.436 206.866C694.25 204.433 687.442 204.486 684.95 211.17C683.879 214.041 684.289 217.713 685.901 221.543C686.405 222.742 687.027 223.956 687.759 225.167C688.938 227.117 690.401 229.057 692.113 230.904C693.84 232.767 695.819 234.536 698.015 236.125C698.023 236.131 698.031 236.137 698.039 236.143C699.133 236.933 700.384 237.542 701.748 237.999C704.541 238.935 707.805 239.234 711.147 239.148C712.142 239.123 713.143 239.063 714.142 238.976C716.216 238.795 718.276 238.495 720.228 238.136C721.721 237.862 723.151 237.553 724.476 237.237C725.776 236.926 726.975 236.607 728.035 236.307C728.288 236.235 728.534 236.164 728.771 236.094C730.982 235.445 732.447 234.913 732.73 234.781C733.953 234.205 722.166 228.231 720.718 224.281C719.956 222.201 719.711 218.527 719.649 215.515C719.594 212.806 719.687 210.632 719.687 210.632C719.309 206.891 714.576 202.705 705.939 207.942L706.11 163.561L706.077 118.324C705.874 117.469 705.035 116.083 703.609 115.804C702.183 115.525 701.238 115.747 700.574 117.247Z" fill="white"/>
<path d="M705.939 207.942C714.576 202.705 719.309 206.891 719.687 210.632C719.687 210.632 719.594 212.806 719.649 215.515M705.939 207.942L706.11 163.561L706.077 118.324C705.874 117.469 705.035 116.083 703.609 115.804C702.183 115.525 701.238 115.747 700.574 117.247C699.911 118.747 700.436 206.866 700.436 206.866M705.939 207.942C705.828 208.067 705.717 208.181 705.607 208.285M705.939 207.942C709.527 210.139 717.507 216.481 720.718 224.281M705.939 207.942C709.61 207.166 717.491 207.595 719.649 215.515M700.436 206.866C694.25 204.433 687.442 204.486 684.95 211.17C683.879 214.041 684.289 217.713 685.901 221.543M700.436 206.866C696.766 206.691 688.721 209.382 685.901 221.543M700.436 206.866C700.514 207.013 700.606 207.169 700.709 207.327M698.039 236.143C691.809 231.664 697.762 215.714 701.517 208.3M698.039 236.143C699.133 236.933 700.384 237.542 701.748 237.999M698.039 236.143C695.834 234.549 693.846 232.774 692.113 230.904M720.718 224.281C722.166 228.231 733.953 234.205 732.73 234.781C732.447 234.913 730.982 235.445 728.771 236.094M720.718 224.281C719.956 222.201 719.711 218.527 719.649 215.515M705.709 209.12C706.645 215.412 711.708 229.846 724.476 237.237M724.476 237.237C725.776 236.926 726.975 236.607 728.035 236.307M724.476 237.237C723.151 237.553 721.721 237.862 720.228 238.136M703.307 209.219C702.57 220.555 699.51 239.447 711.147 239.148M703.307 209.219C702.937 209.178 702.588 209.05 702.266 208.865M703.307 209.219C703.754 209.268 704.231 209.189 704.729 208.928M711.147 239.148C707.805 239.234 704.541 238.935 701.748 237.999M711.147 239.148C712.142 239.123 713.143 239.063 714.142 238.976M701.517 208.3C701.33 208.123 701.16 207.932 701.006 207.738M701.517 208.3C701.745 208.515 701.996 208.71 702.266 208.865M685.901 221.543C686.405 222.742 687.027 223.956 687.759 225.167M685.901 221.543C685.505 206.144 695.608 205.649 700.709 207.327M701.006 207.738C697.765 209.703 690.578 215.939 687.759 225.167M701.006 207.738C700.898 207.601 700.799 207.463 700.709 207.327M687.759 225.167C688.938 227.117 690.401 229.057 692.113 230.904M702.266 208.865C700.141 215.311 697.063 230.163 701.748 237.999M704.729 208.928C704.868 217.875 706.945 236.41 714.142 238.976M704.729 208.928C705.016 208.778 705.309 208.567 705.607 208.285M714.142 238.976C716.216 238.795 718.276 238.495 720.228 238.136M705.607 208.285C708.668 215.675 717.439 231.626 728.035 236.307M705.607 208.285C711.407 216.652 724.161 233.929 728.771 236.094M705.607 208.285C706.943 218.662 711.737 239.161 720.228 238.136M728.035 236.307C728.288 236.235 728.534 236.164 728.771 236.094M700.919 208.183C696.82 213.218 689.32 224.813 692.113 230.904" stroke="black"/>
<path d="M656.505 66.8295L632.173 27.2772C631.123 27.3733 630.194 27.6965 629.406 28.1189C627.961 28.8921 626.984 29.9979 626.579 30.6521L634.315 44.8955L633.002 49.0805C625.527 53.2958 619.348 58.7527 617.193 60.9542C616.546 61.6147 613.752 63.5195 613.756 63.955C610.51 65.9487 603.673 72.5831 605.834 75.4958C607.995 78.4085 610.196 74.4958 614.137 71.5903C620.708 65.5315 621.072 63.427 620.432 63.1321C623.753 57.71 631.525 53.6693 634.995 52.3266L639.024 53.0891L649.244 69.3673C650.486 70.2424 652.344 69.6308 653.958 68.6947C654.975 68.1049 655.896 67.3862 656.505 66.8295Z" fill="white"/>
<path d="M629.406 28.1189C627.961 28.8921 626.984 29.9979 626.579 30.6521L634.315 44.8955L633.002 49.0805C625.527 53.2958 619.348 58.7527 617.193 60.9542C616.546 61.6147 613.752 63.5195 613.756 63.955C610.51 65.9487 603.673 72.5831 605.834 75.4958C607.995 78.4085 610.196 74.4958 614.137 71.5903C620.708 65.5315 621.072 63.427 620.432 63.1321C623.753 57.71 631.525 53.6693 634.995 52.3266L639.024 53.0891L649.244 69.3673C650.486 70.2424 652.344 69.6308 653.958 68.6947M629.406 28.1189C630.194 27.6965 631.123 27.3733 632.173 27.2772L656.505 66.8295C655.896 67.3862 654.975 68.1049 653.958 68.6947M629.406 28.1189L653.958 68.6947M615.471 64.5404C615.092 65.1641 614.958 66.4253 617.451 66.4799M613.423 65.7175C613.116 66.8766 613.156 69.0574 615.763 68.5077M611.483 67.6976C611.009 68.825 610.813 70.9613 613.824 70.4878" stroke="black"/>
<path d="M48.843 133.14C54.1269 135.128 53.8257 130.702 53.3062 117.301L14.9587 98.1073C14.9587 98.1073 10.2402 105.347 6.59103 106.429C2.94184 107.51 0.76925 107.006 4.51164 108.816L4.59535 112.869C6.32878 112.181 12.1391 109.278 13.7629 106.672C15.7429 103.495 9.49463 114.052 8.20575 114.203C9.04161 114.513 11.7498 115.741 11.6809 117.551C13.2108 114.909 16.7645 109.169 18.74 107.338C20.7154 105.508 16.2079 113.356 13.7073 117.509C14.1479 117.406 15.0716 118.585 16.8322 119.891C19.033 121.523 20.7176 111.701 23.5845 108.357L19.605 122.14C20.4421 122.053 22.8926 120.884 23.8776 122.541L28.5162 110.212L25.2413 124.261C27.885 123.647 30.9151 124.143 31.582 126.646L34.5046 112.465C34.6325 116.4 34.6498 124.905 33.6956 127.441C35.3848 126.871 38.9474 126.522 39.6841 129.695L41.6634 118.02C42.2662 122.119 43.0665 130.324 41.4454 130.357L41.3524 130.359L41.3514 130.359C41.3322 130.359 41.3141 130.36 41.2969 130.36L41.2958 130.36C42.2908 130.379 46.0695 130.586 46.413 132.226C46.7785 133.972 47.3434 124.4 47.5802 119.395L48.843 133.14Z" fill="white"/>
<path d="M39.9496 101.462C39.9496 101.462 96.1828 25.0434 96.5954 23.3271C97.0081 21.6109 95.5301 20.4248 94.1986 19.7872C92.8672 19.1496 91.3094 19.8391 90.6038 20.4581L61.9281 59.835L33.958 98.5929C24.0518 91.9356 17.6346 95.0826 14.9587 98.1073L53.3062 117.301C55.6169 111.159 46.5003 103.163 39.9496 101.462Z" fill="white"/>
<path d="M53.3062 117.301C55.6169 111.159 46.5003 103.163 39.9496 101.462C39.9496 101.462 96.1828 25.0434 96.5954 23.3271C97.0081 21.6109 95.5301 20.4248 94.1986 19.7872C92.8672 19.1496 91.3094 19.8391 90.6038 20.4581L61.9281 59.835L33.958 98.5929C24.0518 91.9356 17.6346 95.0826 14.9587 98.1073M53.3062 117.301C53.8257 130.702 54.1269 135.128 48.843 133.14L47.5802 119.395C47.3434 124.4 46.7785 133.972 46.413 132.226M53.3062 117.301L14.9587 98.1073M14.9587 98.1073C14.9587 98.1073 10.2402 105.347 6.59103 106.429C2.94184 107.51 0.76925 107.006 4.51164 108.816L4.59535 112.869C6.32878 112.181 12.1391 109.278 13.7629 106.672C15.7429 103.495 9.49463 114.052 8.20575 114.203M41.4454 130.357C43.0665 130.324 42.2662 122.119 41.6634 118.02L39.6841 129.695C38.9474 126.522 35.3848 126.871 33.6956 127.441C34.6498 124.905 34.6325 116.4 34.5046 112.465L31.582 126.646C30.9151 124.143 27.885 123.647 25.2413 124.261L28.5162 110.212L23.8776 122.541C22.8926 120.884 20.4421 122.053 19.605 122.14L23.5845 108.357C20.7176 111.701 19.033 121.523 16.8322 119.891C15.0716 118.585 14.1479 117.406 13.7073 117.509C16.2079 113.356 20.7154 105.508 18.74 107.338C16.7645 109.169 13.2108 114.909 11.6809 117.551C11.7498 115.741 9.04161 114.513 8.20575 114.203M41.4454 130.357C41.4121 130.358 41.3811 130.358 41.3524 130.359M41.4454 130.357L41.3524 130.359M46.413 132.226C46.0695 130.586 42.2908 130.379 41.2958 130.36M46.413 132.226C46.0696 130.586 42.2937 130.379 41.2969 130.36M8.20575 114.203C7.94261 114.106 7.86503 114.099 8.11806 114.194C8.144 114.204 8.1733 114.207 8.20575 114.203ZM41.2958 130.36L41.2969 130.36M41.2958 130.36C41.0036 130.354 40.9515 130.365 41.2969 130.36M41.3524 130.359L41.3514 130.359C41.3322 130.359 41.3141 130.36 41.2969 130.36" stroke="black"/>
</svg>
