<svg width="725" height="436" viewBox="0 0 725 436" fill="none" xmlns="http://www.w3.org/2000/svg">
<path d="M29.8009 343.789L3.85468 326.532C3.6418 325.172 4.06626 322.244 7.46713 321.411C10.868 320.578 14.7062 320.059 16.2001 319.903L22.6411 322.652L24.6539 323.511C25.0744 322.897 26.9384 321.725 31.0306 321.949L101.926 236.091C110.613 229.487 131.37 219.723 144.909 233.494C158.448 247.265 145.639 258.55 134.496 262.36C122.072 266.609 98.5838 272.95 103.84 292.943C109.995 293.387 123.218 297.044 126.867 308.118C130.517 319.193 124.978 336.339 121.752 343.528C123.789 348.046 124.822 358.637 112.648 364.864L109.256 363.892L106.609 362.287L104.628 360.49L103.845 358.728L95.6811 356.672C88.435 353.58 73.7239 347.018 72.8479 345.502C67.0595 348.362 66.4392 338.961 66.8526 333.903C68.7165 320.613 73.0586 319.896 74.9967 321.199C81.209 310.911 91.758 301.01 99.1339 295.333C97.5323 288.78 94.6683 284.136 102.789 273.1C104.921 270.203 119.209 262.5 125.355 260.363C131.826 258.114 137.487 256.776 139.944 255.168C142.585 253.44 153.339 246 141.866 235.051C133.75 227.305 121.532 229.547 115.656 232.908L105.436 239.016L35.346 325.218C36.6189 325.952 37.5443 330.326 36.795 332.974L40.4771 335.497C43.9724 336.227 43.3183 339.247 42.5542 340.665L29.8009 343.789Z" fill="white"/>
<path d="M29.8009 343.789L3.85468 326.532C3.6418 325.172 4.06626 322.244 7.46713 321.411C10.868 320.578 14.7062 320.059 16.2001 319.903L22.6411 322.652L24.6539 323.511C25.0744 322.897 26.9384 321.725 31.0306 321.949L101.926 236.091M29.8009 343.789L42.5542 340.665C43.3183 339.247 43.9724 336.227 40.4771 335.497M29.8009 343.789L31.6904 339.361C33.1629 337.769 36.9818 334.766 40.4771 335.497M40.4771 335.497L36.7951 332.974C37.5443 330.326 36.6189 325.952 35.346 325.218L105.436 239.016M101.926 236.091L105.436 239.016M101.926 236.091C110.613 229.487 131.37 219.723 144.909 233.494C158.448 247.265 145.639 258.55 134.496 262.36C122.072 266.609 98.5838 272.95 103.84 292.943M105.436 239.016L115.656 232.908C121.532 229.547 133.75 227.305 141.866 235.051C153.339 246 142.585 253.44 139.944 255.168C137.487 256.776 131.826 258.114 125.355 260.363C119.209 262.5 104.921 270.203 102.789 273.1C94.6683 284.136 97.5323 288.78 99.1339 295.333M99.1339 295.333C100.213 299.746 102.175 302.625 103.24 303.271C105.357 304.555 107.07 302.843 107.663 301.827C106.37 299.615 105.376 297.511 104.647 295.511M99.1339 295.333C91.758 301.01 81.209 310.911 74.9967 321.199M72.8479 345.502C73.7239 347.018 88.435 353.58 95.6811 356.672M72.8479 345.502C67.654 338.614 69.8193 329.772 74.9967 321.199M72.8479 345.502C67.0595 348.362 66.4392 338.961 66.8526 333.903C68.7165 320.613 73.0586 319.896 74.9967 321.199M95.6811 356.672C98.2076 356.249 102.565 354.553 106.499 350.819M95.6811 356.672L103.845 358.728M113.298 339.921C122.039 326.498 132.546 298.824 104.647 295.511M113.298 339.921C112.967 340.926 112.594 341.878 112.186 342.777M113.298 339.921C99.5414 349.278 72.6223 358.634 74.9967 321.199M104.647 295.511C104.328 294.635 104.06 293.779 103.84 292.943M103.84 292.943C109.995 293.387 123.218 297.044 126.867 308.118C130.517 319.193 124.978 336.339 121.752 343.528M121.752 343.528C123.789 348.046 124.822 358.637 112.648 364.864M121.752 343.528C107.182 346.447 109.612 358.968 112.648 364.864M121.752 343.528C121.446 341.811 119.104 339.257 112.186 342.777M112.648 364.864L109.256 363.892L106.609 362.287L104.628 360.49L103.845 358.728M103.845 358.728C103.547 357.491 103.662 354.177 106.499 350.819M106.499 350.819C108.642 348.785 110.659 346.145 112.186 342.777" stroke="black"/>
<path d="M411.678 112.27C411.775 111.758 411.909 111.116 412.086 110.407C414.246 97.8664 400.804 101.275 408.384 99.9855C413.201 99.1661 415.857 92.0401 416.748 88.9602C417.216 87.3415 417.197 86.8404 416.748 88.9602C416.644 89.4496 416.518 90.0786 416.369 90.8659C414.349 101.551 423.711 103.342 418.347 102.549C414.794 102.024 412.939 106.993 412.086 110.407C411.985 110.993 411.85 111.613 411.678 112.27Z" fill="white"/>
<path d="M411.678 112.27C412.242 109.294 414.056 101.914 418.347 102.549C423.711 103.342 414.349 101.551 416.369 90.8659C418.389 80.1807 416.318 98.6361 408.384 99.9855C400.45 101.335 415.547 97.5379 411.678 112.27Z" stroke="black"/>
<path d="M137.78 116.246C137.789 115.842 137.81 115.334 137.855 114.769C137.912 104.899 128.106 109.242 133.716 107.277C137.281 106.028 138.402 100.236 138.691 97.7651C138.842 96.4666 138.764 96.086 138.691 97.7651C138.674 98.1527 138.657 98.6502 138.643 99.2714C138.457 107.704 145.815 107.864 141.629 107.951C138.856 108.008 138.072 112.048 137.855 114.769C137.852 115.23 137.828 115.722 137.78 116.246Z" fill="white"/>
<path d="M137.78 116.246C137.833 113.898 138.28 108.02 141.629 107.951C145.815 107.864 138.457 107.704 138.643 99.2714C138.829 90.8389 139.588 105.22 133.716 107.277C127.844 109.334 138.862 104.48 137.78 116.246Z" stroke="black"/>
<path d="M709.601 156.845C709.616 156.228 709.65 155.452 709.721 154.588C709.856 139.514 695.02 146.194 703.504 143.166C708.896 141.241 710.617 132.389 711.066 128.614C711.301 126.63 711.185 126.049 711.066 128.614C711.038 129.206 711.01 129.966 710.987 130.915C710.666 143.795 721.779 144.004 715.455 144.156C711.266 144.257 710.063 150.431 709.721 154.588C709.715 155.292 709.676 156.043 709.601 156.845Z" fill="white"/>
<path d="M709.601 156.845C709.692 153.258 710.396 144.278 715.455 144.156C721.779 144.004 710.666 143.795 710.987 130.915C711.308 118.035 712.385 139.996 703.504 143.166C694.624 146.335 711.292 138.869 709.601 156.845Z" stroke="black"/>
<path d="M6.25511 251C6.43728 251.593 6.64951 252.343 6.84506 253.185C11.6012 267.613 27.4306 257.427 18.1195 262.496C12.2019 265.718 13.0019 274.612 13.6897 278.331C14.0512 280.286 14.3818 280.811 13.6897 278.331C13.53 277.759 13.3157 277.026 13.0347 276.114C9.2212 263.734 -4.33807 266.387 3.28901 264.618C8.34147 263.446 7.78673 257.242 6.84506 253.185C6.62306 252.512 6.42518 251.785 6.25511 251Z" fill="white"/>
<path d="M6.25511 251C7.31452 254.448 9.39069 263.203 3.28901 264.618C-4.33807 266.387 9.22119 263.734 13.0347 276.114C16.8483 288.495 8.37374 267.802 18.1195 262.496C27.8652 257.19 10.0687 268.597 6.25511 251Z" stroke="black"/>
<path d="M316.385 268.361C316.699 269.021 317.082 269.859 317.479 270.809C325.358 286.802 334.496 271.828 328.85 279.555C325.262 284.466 328.486 294.735 330.105 298.96C330.956 301.182 331.363 301.733 330.105 298.96C329.814 298.32 329.435 297.503 328.952 296.488C322.396 282.713 312.786 288.424 318.11 284.888C321.638 282.545 319.391 275.382 317.479 270.809C317.111 270.062 316.746 269.248 316.385 268.361Z" fill="white"/>
<path d="M316.385 268.361C318.209 272.199 322.37 282.059 318.11 284.888C312.786 288.424 322.396 282.713 328.952 296.488C335.508 310.263 322.941 287.643 328.85 279.555C334.76 271.467 324.473 288.25 316.385 268.361Z" stroke="black"/>
<path d="M545.721 186.17C545.609 186.997 545.483 188.043 545.375 189.217C542.405 209.365 529.25 195.759 536.936 202.484C541.821 206.758 541.686 219.11 541.348 224.286C541.17 227.007 540.937 227.745 541.348 224.286C541.443 223.488 541.572 222.466 541.744 221.193C544.079 203.912 555.006 207.152 548.844 204.946C544.762 203.486 544.854 194.87 545.375 189.217C545.513 188.277 545.63 187.263 545.721 186.17Z" fill="white"/>
<path d="M545.721 186.17C545.072 190.983 543.914 203.182 548.844 204.946C555.006 207.152 544.079 203.912 541.744 221.193C539.409 238.473 544.981 209.523 536.936 202.484C528.891 195.445 543.679 210.68 545.721 186.17Z" stroke="black"/>
<path d="M469.78 348.557C457.831 353.021 464.627 357.882 470.949 356.378L599.002 325.906C608.67 320.661 601.944 317.108 594.886 318.788L532.333 333.673L469.78 348.557Z" fill="white" stroke="black"/>
<path d="M490.094 399.51L470.119 356.575L599.414 325.808L600.588 373.217L490.094 399.51Z" fill="white" stroke="black"/>
<path d="M492.585 371.474C488.538 354.468 481.44 347.829 487.074 342.642C496.3 334.148 501.132 342.119 513.755 334.61C526.377 327.101 532.092 333.791 532.092 333.791C517.636 342.514 529.001 352.873 531.494 383.734C513.992 393.785 511.977 392.465 501.609 390.846C491.46 389.26 497.51 386.498 492.585 371.474Z" fill="white" stroke="black"/>
<path d="M179.061 98.424C178.588 100.823 181.536 102.857 182.744 100.842L194.246 66.6647C202.577 69.3575 217.06 70.7626 208.345 54.8409C214.04 53.4027 222.334 48.3164 209.952 39.4756C215.724 37.4718 224.573 32.5206 213.79 28.7469C218.5 26.299 224.936 21.2022 213 20.3983C215.178 17.2361 217.384 10.8141 208.775 10.4234C207.96 10.4392 205.208 10.7117 200.716 11.6751C196.002 8.1939 188.385 4.67426 195.628 18.4451C189.995 16.9944 181.436 16.8285 192.269 27.7705C185.855 31.3135 176.411 39.8674 189.947 45.7385C180.609 50.7322 167.708 61.484 190.809 64.5408L179.061 98.424Z" fill="white"/>
<path d="M194.246 66.6647L182.744 100.842C181.536 102.857 178.588 100.823 179.061 98.424L190.809 64.5408M194.246 66.6647C202.577 69.3575 217.06 70.7626 208.345 54.8409C214.04 53.4028 222.334 48.3164 209.952 39.4756C215.724 37.4718 224.573 32.5206 213.79 28.7469C218.5 26.299 224.936 21.2022 213 20.3983C215.178 17.2361 217.384 10.8141 208.775 10.4234C207.96 10.4392 205.208 10.7117 200.716 11.6751C196.002 8.1939 188.385 4.67426 195.628 18.4451C189.995 16.9944 181.436 16.8285 192.269 27.7705C185.855 31.3135 176.411 39.8674 189.947 45.7385C180.609 50.7322 167.708 61.484 190.809 64.5408M194.246 66.6647L190.809 64.5408" stroke="black"/>
<path d="M216.996 247.812C215.49 245.553 213.232 247.059 215.022 249.406L241.94 295.162L242.731 296.506L243.522 297.851L244.392 299.33L245.153 300.624L245.89 301.876L246.626 303.128L247.22 304.137C247.536 304.471 247.839 304.744 248.126 304.961C248.674 305.374 249.166 305.585 249.589 305.635C250.235 305.711 250.723 305.413 251.009 304.887C251.143 304.64 251.232 304.343 251.273 304.012C251.353 303.359 251.273 302.762 250.912 301.764L250.15 300.469L249.389 299.175L247.866 296.586L246.937 295.007L246.343 293.998L245.691 292.888L216.996 247.812Z" fill="white" stroke="black"/>
<path d="M223.503 256.275L219.282 258.813L212.687 247.847C211.764 241.814 215.488 244.259 216.908 245.309L223.503 256.275Z" fill="white" stroke="black"/>
<path d="M222.546 254.656L230.289 252.197C228.561 251.875 228.166 251.247 228.544 249.294L221.77 253.366L220.995 252.075L228.157 248.649C226.616 248.155 226.235 247.511 226.411 245.745L220.413 251.108L219.056 248.85L226.024 245.1C225.098 244.047 223.247 244.134 224.278 242.197L218.28 247.559L219.056 248.85L220.413 251.108L220.995 252.075L221.77 253.366L222.546 254.656Z" fill="white"/>
<path d="M217.31 245.946L223.697 241.229C222.686 241.252 220.804 239.631 221.113 238.391L216.729 244.979L215.308 244.076L219.369 237.683C218.251 238.501 215.613 238.447 215.044 236.331L214.598 243.625L215.308 244.076L216.729 244.979L217.31 245.946Z" fill="white"/>
<path d="M211.881 236.914L213.759 243.69L212.791 244.272L208.655 238.853C209.792 239.575 211.28 237.861 211.881 236.914Z" fill="white"/>
<path d="M212.533 245.305L207.624 240.79C207.582 241.694 207.097 243.566 205.497 243.826L212.276 246.338L212.535 247.499L204.788 245.569C205.456 246.924 206.328 249.738 204.469 250.152L213.311 248.79L214.086 250.08L206.084 251.377C206.923 252.044 208.358 253.699 207.378 254.991L214.668 251.048L215.444 252.338L208.282 255.765C208.928 256.109 210.116 257.209 209.704 258.862L216.219 253.628L217.383 255.564L210.286 259.83C210.483 260.784 212.779 261.928 212.548 262.862L218.352 257.177L217.383 255.564L216.219 253.628L215.444 252.338L214.668 251.048L214.086 250.08L213.311 248.79L212.535 247.499L212.276 246.338L212.533 245.305Z" fill="white"/>
<path d="M221.77 253.366L228.544 249.294C228.166 251.247 228.561 251.875 230.289 252.197L222.546 254.656L221.77 253.366ZM221.77 253.366L220.995 252.075M220.995 252.075L228.157 248.649C226.616 248.155 226.235 247.511 226.411 245.745L220.413 251.108M220.995 252.075L220.413 251.108M220.413 251.108L219.056 248.85M219.056 248.85L226.024 245.1C225.098 244.047 223.247 244.134 224.278 242.197L218.28 247.559L219.056 248.85ZM216.729 244.979L221.113 238.391C220.804 239.631 222.686 241.252 223.697 241.229L217.31 245.946L216.729 244.979ZM216.729 244.979L215.308 244.076M215.308 244.076L219.369 237.683C218.251 238.501 215.613 238.447 215.044 236.331L214.598 243.625L215.308 244.076ZM212.276 246.338L205.497 243.826C207.097 243.566 207.582 241.694 207.624 240.79L212.533 245.305L212.276 246.338ZM212.276 246.338L212.535 247.499M212.535 247.499L204.788 245.569C205.456 246.924 206.328 249.738 204.469 250.152L213.311 248.79M212.535 247.499L213.311 248.79M213.311 248.79L214.086 250.08M214.086 250.08L206.084 251.377C206.923 252.044 208.358 253.699 207.378 254.991L214.668 251.048M214.086 250.08L214.668 251.048M214.668 251.048L215.444 252.338M215.444 252.338L208.282 255.765C208.928 256.109 210.116 257.209 209.704 258.862L216.219 253.628M215.444 252.338L216.219 253.628M216.219 253.628L217.383 255.564M217.383 255.564L210.286 259.83C210.483 260.784 212.779 261.928 212.548 262.862C214.814 260.641 216.085 259.397 218.352 257.177L217.383 255.564ZM213.759 243.69L211.881 236.914C211.28 237.861 209.792 239.575 208.655 238.853L212.791 244.272L213.759 243.69Z" stroke="black"/>
<path d="M248.796 301.13C248.158 300.652 246.968 300.149 247.313 301.959C247.743 304.221 251.183 303.41 248.796 301.13Z" fill="white" stroke="black"/>
<path d="M500.914 105.256L498.325 110.272C496.836 112.61 494.522 120.169 495.94 125.56C496.969 129.474 496.817 135.85 496.77 139.542C496.542 157.214 486.11 156.912 481.428 154.495L460.358 143.619C453.367 137.469 458.734 128.803 466.001 123.66C469.116 121.455 476.05 118.244 479.39 116.594C483.938 114.347 486.896 108.891 488.626 105.266L491.216 100.249C492.411 97.9339 492.519 95.9541 492.015 94.309C487.407 99.7237 477.551 100.82 473.198 100.691C477.536 99.2592 486.716 95.1316 488.736 90.0747C487.738 89.3678 486.687 88.8647 485.811 88.565L481.798 86.4934C481.573 82.9892 484.121 80.3511 485.423 79.4701C486.921 79.9887 488.345 80.5121 489.696 81.039C513.491 90.318 514.977 100.684 512.534 104.9C503.722 98.9964 501.116 102.677 500.914 105.256Z" fill="white"/>
<path d="M491.216 100.249L500.914 105.256M491.216 100.249L488.626 105.266M491.216 100.249C492.411 97.9339 492.519 95.9541 492.015 94.309M500.914 105.256L498.325 110.272M500.914 105.256C501.116 102.677 503.722 98.9964 512.534 104.9C514.977 100.684 513.491 90.318 489.696 81.039M498.325 110.272L488.626 105.266M498.325 110.272C496.836 112.61 494.522 120.169 495.94 125.56C496.969 129.474 496.817 135.85 496.77 139.542C496.542 157.214 486.11 156.912 481.428 154.495L460.358 143.619C453.367 137.469 458.734 128.803 466.001 123.66C469.116 121.455 476.05 118.244 479.39 116.594C483.938 114.347 486.896 108.891 488.626 105.266M485.811 88.565L481.798 86.4934C481.573 82.9892 484.121 80.3511 485.423 79.4701C486.921 79.9887 488.345 80.5121 489.696 81.039M485.811 88.565L489.696 81.039M485.811 88.565C486.687 88.8647 487.738 89.3678 488.736 90.0747M492.015 94.309C487.407 99.7237 477.551 100.82 473.198 100.691C477.536 99.2592 486.716 95.1316 488.736 90.0747M492.015 94.309C491.458 92.4875 490.149 91.0764 488.736 90.0747" stroke="black"/>
<path d="M561.263 106.648C565.201 113.038 553.596 116.399 547.302 117.281C539.532 121.351 535.258 122.315 533.11 122.108C532.063 122.007 531.562 121.68 531.092 121.293C531.009 121.228 530.928 121.16 530.85 121.088C530.193 120.491 529.679 119.658 529.03 118.606C528.045 117.008 528.603 114.947 529.166 114.02C530.017 112.376 533.255 109.156 539.393 109.433C541.557 109.918 543.617 110.057 544.901 109.292C553.83 102.065 559.298 104.587 561.263 106.648Z" fill="white"/>
<path d="M561.263 106.648C565.201 113.038 553.596 116.399 547.302 117.281C539.532 121.351 535.258 122.315 533.11 122.108M561.263 106.648C559.298 104.587 553.83 102.065 544.901 109.292C543.617 110.057 541.557 109.918 539.393 109.433C533.255 109.156 530.017 112.376 529.166 114.02C528.603 114.947 528.045 117.008 529.03 118.606M561.263 106.648C561.527 107.53 560.904 109.82 556.29 111.929C550.522 114.565 547.079 113.182 546.049 113.113C545.225 113.057 544.78 113.368 544.661 113.53C536.944 120.09 531.025 119.647 529.03 118.606M529.03 118.606C530.251 120.587 530.996 121.79 533.11 122.108M529.03 118.606L530.85 121.088C531.406 121.561 531.883 121.989 533.11 122.108" stroke="black"/>
<path d="M528.191 127.568C531.523 126.566 531.76 123.213 531.462 121.662C533.303 122.061 538.991 121.685 547.019 116.987C548.38 117.147 553.078 116.456 560.977 112.414C562.405 113.247 565.302 115.053 565.469 115.609C565.636 116.164 564.443 116.674 563.826 116.86C564.204 116.998 565.002 117.415 565.169 117.971C565.336 118.527 563.836 119.129 563.064 119.361L558.677 116.514L561.467 119.083L558.182 121.585L554.824 118.807L556.794 122.002L554.48 122.698C549.619 122.643 546.762 123.881 545.941 124.506L543.509 121.45L544.761 125.618L538.953 128.121L537.238 124.092L537.819 127.704L536.431 128.121L536.242 127.495C536.225 127.757 536.145 128.021 535.968 128.26C535.394 129.039 534.047 128.585 533.445 128.261L533.073 125.343L531.385 128.123L528.191 127.568Z" fill="white"/>
<path d="M531.462 121.662C531.76 123.213 531.523 126.566 528.191 127.568L531.385 128.123L533.073 125.343L533.445 128.261C534.047 128.585 535.394 129.039 535.968 128.26C536.541 127.482 536.098 126.454 535.804 126.037L536.431 128.121L537.819 127.704L537.238 124.092L538.953 128.121L544.761 125.618L543.509 121.45L545.941 124.506C546.762 123.881 549.619 122.643 554.48 122.698L556.794 122.002L554.824 118.807L558.182 121.585L561.467 119.083L558.677 116.514L563.064 119.361C563.836 119.129 565.336 118.527 565.169 117.971C565.002 117.415 564.204 116.998 563.826 116.86C564.443 116.674 565.636 116.164 565.469 115.609C565.302 115.053 562.405 113.247 560.977 112.414C553.078 116.456 548.38 117.147 547.019 116.987C538.991 121.685 533.303 122.061 531.462 121.662Z" stroke="black"/>
<path d="M289.134 68.8052C292.809 65.6615 297.458 64.6268 299.111 64.592L300.358 67.5469L301.339 69.8686L301.003 70.259L301.627 71.7364C303.815 72.968 309.327 75.3988 313.875 75.269C318.422 75.1392 321.602 79.5498 322.624 81.7712L325.935 87.8343L328.876 94.7994C330.312 96.7793 328.233 101.372 327.058 103.526C328.23 104.523 332.012 108.149 333.205 110.381C336.023 117.647 333.078 122.124 331.985 124.077C324.868 127.166 311.763 132.816 311.182 132.862C310.456 132.92 308.011 132.461 303.647 129.827C299.283 127.193 298.725 120.067 299.327 117.226C299.928 114.386 299.255 110.542 298.843 108.974C296.181 102.472 290.349 89.3327 290.019 88.079C289.608 86.5119 292.02 79.3341 292.296 78.6617C292.542 78.0603 292.756 76.3949 292.712 75.5014L292.13 74.1242C291.873 74.1933 291.645 74.2495 291.451 74.2929L289.134 68.8052Z" fill="white"/>
<path d="M289.134 68.8052C291.17 68.6914 296.356 67.546 299.111 64.592M289.134 68.8052C292.809 65.6615 297.458 64.6268 299.111 64.592M289.134 68.8052L291.451 74.2929C291.645 74.2495 291.873 74.1933 292.13 74.1242M299.111 64.592L300.358 67.5469L301.339 69.8686L301.003 70.259M301.003 70.259C297.801 72.3152 294.102 73.5957 292.13 74.1242M301.003 70.259L301.627 71.7364C303.815 72.968 309.327 75.3988 313.875 75.269C318.422 75.1392 321.602 79.5498 322.624 81.7712L325.935 87.8343L328.876 94.7994C330.312 96.7793 328.233 101.372 327.058 103.526C328.23 104.523 332.012 108.149 333.205 110.381C336.023 117.647 333.078 122.124 331.985 124.077C324.868 127.166 311.763 132.816 311.182 132.862C310.456 132.92 308.011 132.461 303.647 129.827C299.283 127.193 298.725 120.067 299.327 117.226C299.928 114.386 299.255 110.542 298.843 108.974C296.181 102.472 290.349 89.3327 290.019 88.079C289.608 86.5119 292.02 79.3341 292.296 78.6617C292.542 78.0603 292.756 76.3949 292.712 75.5014L292.13 74.1242M313.446 80.1757C314.206 79.606 316.082 79.311 317.254 80.3085C318.425 81.306 317.432 80.7306 321.825 87.58C325.34 93.0596 325.211 97.1763 324.495 98.6394C323.853 99.4904 321.882 100.389 319.124 97.1766C316.367 93.9639 314.045 87.7154 313.229 84.9927C312.76 83.6156 312.306 81.0301 313.446 80.1757ZM303.726 106.913L295.992 89.7846C295.153 87.4031 295.208 81.4113 302.467 80.8326C308.275 80.3697 309.408 86.6063 310.923 90.1944L316.627 103.703C324.719 109.239 329.757 118.801 320.205 122.835C316.226 125.261 308.461 128.788 305.121 118.51C305.121 118.51 304.141 116.188 304.513 112.922C304.884 109.656 304.528 108.812 304.528 108.812L303.726 106.913Z" stroke="black"/>
<path d="M640.993 242.704L678.946 248.858C681.557 249.281 683.198 253.139 678.095 254.108L669.692 286.867L638.667 281.836L638.853 277.562C637.084 277.277 635.741 276.325 634.539 274.881C629.499 268.828 637.954 258.469 640.142 247.954C637.949 247.498 635.985 243.089 640.993 242.704Z" fill="white"/>
<path d="M678.095 254.108C683.198 253.139 681.557 249.281 678.946 248.858L640.993 242.704C635.985 243.089 637.949 247.498 640.142 247.954M678.095 254.108L669.692 286.867L638.667 281.836L640.142 247.954M678.095 254.108C647.096 278.353 639.579 280.934 634.539 274.881C629.499 268.828 637.954 258.469 640.142 247.954M678.095 254.108L640.142 247.954" stroke="black"/>
<path d="M670.574 174.247C669.91 175.747 670.436 263.866 670.436 263.866C664.25 261.433 657.442 261.486 654.95 268.17C653.879 271.041 654.288 274.713 655.9 278.543C656.405 279.742 657.027 280.956 657.759 282.167C658.938 284.117 660.401 286.057 662.113 287.904C663.84 289.767 665.819 291.536 668.015 293.125C668.023 293.131 668.031 293.137 668.039 293.143C669.133 293.933 670.384 294.542 671.748 294.999C674.541 295.935 677.805 296.234 681.147 296.148C682.141 296.123 683.143 296.063 684.141 295.976C686.216 295.795 688.276 295.495 690.228 295.136C691.721 294.862 693.151 294.553 694.476 294.237C695.776 293.926 696.975 293.607 698.035 293.307C698.288 293.235 698.534 293.164 698.771 293.094C700.982 292.445 702.447 291.913 702.729 291.781C703.952 291.205 692.166 285.231 690.718 281.281C689.956 279.201 689.71 275.527 689.649 272.515C689.594 269.806 689.687 267.632 689.687 267.632C689.309 263.891 684.576 259.705 675.939 264.942L676.11 220.561L676.077 175.324C675.874 174.469 675.035 173.083 673.609 172.804C672.183 172.525 671.238 172.747 670.574 174.247Z" fill="white"/>
<path d="M675.939 264.942C684.576 259.705 689.309 263.891 689.687 267.632C689.687 267.632 689.594 269.806 689.649 272.515M675.939 264.942L676.11 220.561L676.077 175.324C675.874 174.469 675.035 173.083 673.609 172.804C672.183 172.525 671.238 172.747 670.574 174.247C669.91 175.747 670.436 263.866 670.436 263.866M675.939 264.942C675.828 265.067 675.717 265.181 675.607 265.285M675.939 264.942C679.527 267.139 687.506 273.481 690.718 281.281M675.939 264.942C679.61 264.166 687.49 264.595 689.649 272.515M670.436 263.866C664.25 261.433 657.442 261.486 654.95 268.17C653.879 271.041 654.288 274.713 655.9 278.543M670.436 263.866C666.766 263.691 658.721 266.382 655.9 278.543M670.436 263.866C670.514 264.013 670.605 264.169 670.709 264.327M668.039 293.143C661.809 288.664 667.762 272.714 671.517 265.3M668.039 293.143C669.133 293.933 670.384 294.542 671.748 294.999M668.039 293.143C665.834 291.549 663.846 289.774 662.113 287.904M690.718 281.281C692.166 285.231 703.952 291.205 702.729 291.781C702.447 291.913 700.982 292.445 698.771 293.094M690.718 281.281C689.956 279.201 689.71 275.527 689.649 272.515M675.709 266.12C676.645 272.412 681.708 286.846 694.476 294.237M694.476 294.237C695.776 293.926 696.975 293.607 698.035 293.307M694.476 294.237C693.151 294.553 691.721 294.862 690.228 295.136M673.307 266.219C672.57 277.555 669.51 296.447 681.147 296.148M673.307 266.219C672.937 266.178 672.587 266.05 672.266 265.865M673.307 266.219C673.754 266.268 674.231 266.189 674.729 265.928M681.147 296.148C677.805 296.234 674.541 295.935 671.748 294.999M681.147 296.148C682.141 296.123 683.143 296.063 684.141 295.976M671.517 265.3C671.33 265.123 671.159 264.932 671.006 264.738M671.517 265.3C671.745 265.515 671.996 265.71 672.266 265.865M655.9 278.543C656.405 279.742 657.027 280.956 657.759 282.167M655.9 278.543C655.504 263.144 665.608 262.649 670.709 264.327M671.006 264.738C667.765 266.703 660.578 272.939 657.759 282.167M671.006 264.738C670.898 264.601 670.799 264.463 670.709 264.327M657.759 282.167C658.938 284.117 660.401 286.057 662.113 287.904M672.266 265.865C670.141 272.311 667.062 287.163 671.748 294.999M674.729 265.928C674.868 274.875 676.945 293.41 684.141 295.976M674.729 265.928C675.016 265.778 675.309 265.567 675.607 265.285M684.141 295.976C686.216 295.795 688.276 295.495 690.228 295.136M675.607 265.285C678.668 272.675 687.438 288.626 698.035 293.307M675.607 265.285C681.407 273.652 694.161 290.929 698.771 293.094M675.607 265.285C676.942 275.662 681.736 296.161 690.228 295.136M698.035 293.307C698.288 293.235 698.534 293.164 698.771 293.094M670.919 265.183C666.82 270.218 659.32 281.813 662.113 287.904" stroke="black"/>
<path d="M690.952 85.2333L652.057 59.8644C651.148 60.3999 650.447 61.0886 649.914 61.8075C648.939 63.1235 648.527 64.5409 648.441 65.3054L661.52 74.8794L662.12 79.2245C657.162 86.2286 653.906 93.802 652.897 96.7133C652.595 97.5866 650.882 100.503 651.072 100.895C648.988 104.084 645.641 113.003 648.839 114.713C652.037 116.424 652.356 111.946 654.677 107.636C658.031 99.3504 657.461 97.2923 656.756 97.2988C657.443 90.9777 662.744 84.0045 665.309 81.308L669.277 80.2766L685.471 90.6296C686.968 90.8901 688.386 89.5437 689.446 88.0078C690.114 87.04 690.639 85.997 690.952 85.2333Z" fill="white"/>
<path d="M649.914 61.8075C648.939 63.1235 648.527 64.5409 648.441 65.3054L661.52 74.8794L662.12 79.2245C657.162 86.2286 653.906 93.802 652.897 96.7133C652.595 97.5866 650.882 100.503 651.072 100.895C648.988 104.084 645.641 113.003 648.839 114.713C652.037 116.424 652.356 111.946 654.677 107.636C658.031 99.3504 657.461 97.2923 656.756 97.2988C657.443 90.9777 662.744 84.0045 665.309 81.308L669.277 80.2766L685.471 90.6296C686.968 90.8901 688.386 89.5437 689.446 88.0078M649.914 61.8075C650.447 61.0886 651.148 60.3999 652.057 59.8644L690.952 85.2333C690.639 85.997 690.114 87.04 689.446 88.0078M649.914 61.8075L689.446 88.0078M652.872 100.691C652.796 101.417 653.213 102.615 655.491 101.599M651.523 102.631C651.741 103.809 652.708 105.764 654.831 104.154M650.615 105.249C650.668 106.471 651.404 108.487 653.923 106.772" stroke="black"/>
<path d="M69.7432 207.202C75.3888 207.202 73.5484 203.166 68.3431 190.806L25.693 186.344C25.693 186.344 23.8261 194.782 20.7915 197.079C17.7569 199.377 15.546 199.67 19.686 200.046L21.1915 203.81C22.5715 202.555 26.9877 197.793 27.5898 194.782C28.3241 191.11 26.1934 203.192 25.0404 203.787C25.9318 203.783 28.8992 203.979 29.4717 205.697C29.9735 202.686 31.2783 196.061 32.4827 193.653C33.687 191.244 32.2317 200.176 31.3535 204.944C31.7299 204.693 33.0095 205.471 35.1172 206.073C37.7518 206.826 35.87 197.04 37.3755 192.9L38.5045 207.202C39.2572 206.826 41.1392 204.869 42.6446 206.073L42.6446 192.9L44.5264 207.202C46.7846 205.697 49.7956 205.094 51.3011 207.202L49.0428 192.9C50.5483 196.538 53.5593 204.492 53.5593 207.202C54.9393 206.073 58.151 204.492 59.9576 207.202L57.6993 195.579C59.7067 199.202 63.3449 206.6 61.8394 207.202L61.753 207.236L61.752 207.237C61.7342 207.244 61.7173 207.25 61.7014 207.257L61.7003 207.257C62.6384 206.925 66.2478 205.787 67.1469 207.202C68.1039 208.707 65.2619 199.549 63.7213 194.782L69.7432 207.202Z" fill="white"/>
<path d="M50.2646 180.684C50.2646 180.684 75.9871 89.3588 75.7689 87.6072C75.5508 85.8556 73.7498 85.2658 72.2791 85.1379C70.8084 85.0101 69.5932 86.2039 69.1508 87.0317L56.1774 133.984L43.6465 180.109C32.0305 177.366 27.1325 182.571 25.693 186.344L68.3431 190.806C68.3431 184.243 56.9949 179.97 50.2646 180.684Z" fill="white"/>
<path d="M68.3431 190.806C68.3431 184.243 56.9949 179.97 50.2646 180.684C50.2646 180.684 75.9871 89.3588 75.7689 87.6072C75.5508 85.8556 73.7498 85.2658 72.2791 85.1379C70.8084 85.0101 69.5932 86.2039 69.1508 87.0317L56.1774 133.984L43.6465 180.109C32.0305 177.366 27.1325 182.571 25.693 186.344M68.3431 190.806C73.5484 203.166 75.3888 207.202 69.7432 207.202L63.7213 194.782C65.2619 199.549 68.1039 208.707 67.1469 207.202M68.3431 190.806L25.693 186.344M25.693 186.344C25.693 186.344 23.8261 194.782 20.7915 197.079C17.7569 199.377 15.546 199.67 19.686 200.046L21.1915 203.81C22.5715 202.555 26.9877 197.793 27.5898 194.782C28.3241 191.11 26.1934 203.192 25.0404 203.787M61.8394 207.202C63.3449 206.6 59.7067 199.202 57.6993 195.579L59.9576 207.202C58.151 204.492 54.9393 206.073 53.5593 207.202C53.5593 204.492 50.5483 196.538 49.0428 192.9L51.3011 207.202C49.7956 205.094 46.7846 205.697 44.5264 207.202L42.6446 192.9L42.6446 206.073C41.1392 204.869 39.2572 206.826 38.5045 207.202L37.3755 192.9C35.87 197.04 37.7518 206.826 35.1172 206.073C33.0095 205.471 31.7299 204.693 31.3535 204.944C32.2317 200.176 33.687 191.244 32.4827 193.653C31.2783 196.061 29.9735 202.686 29.4717 205.697C28.8992 203.979 25.9318 203.783 25.0404 203.787M61.8394 207.202C61.8085 207.214 61.7797 207.226 61.753 207.236M61.8394 207.202L61.753 207.236M67.1469 207.202C66.2478 205.787 62.6384 206.925 61.7003 207.257M67.1469 207.202C66.2481 205.788 62.6411 206.924 61.7014 207.257M25.0404 203.787C24.7598 203.789 24.6849 203.81 24.9553 203.81C24.983 203.81 25.0114 203.802 25.0404 203.787ZM61.7003 207.257L61.7014 207.257M61.7003 207.257C61.4248 207.355 61.3798 207.383 61.7014 207.257M61.753 207.236L61.752 207.237C61.7342 207.244 61.7173 207.25 61.7014 207.257" stroke="black"/>
</svg>
