<svg width="743" height="363" viewBox="0 0 743 363" fill="none" xmlns="http://www.w3.org/2000/svg">
<path d="M28.8009 318.789L2.85468 301.532C2.6418 300.172 3.06626 297.244 6.46713 296.411C9.86801 295.578 13.7062 295.059 15.2001 294.903L21.6411 297.652L23.6539 298.511C24.0744 297.897 25.9384 296.725 30.0306 296.949L100.926 211.091C109.613 204.487 130.37 194.723 143.909 208.494C157.448 222.265 144.639 233.55 133.496 237.36C121.072 241.609 97.5838 247.95 102.84 267.943C108.995 268.387 122.218 272.044 125.867 283.118C129.517 294.193 123.978 311.339 120.752 318.528C122.789 323.046 123.822 333.637 111.648 339.864L108.256 338.892L105.609 337.287L103.628 335.49L102.845 333.728L94.6811 331.672C87.435 328.58 72.7239 322.018 71.8479 320.502C66.0595 323.362 65.4392 313.961 65.8526 308.903C67.7165 295.613 72.0586 294.896 73.9967 296.199C80.209 285.911 90.758 276.01 98.1339 270.333C96.5323 263.78 93.6683 259.136 101.789 248.1C103.921 245.203 118.209 237.5 124.355 235.363C130.826 233.114 136.487 231.776 138.944 230.168C141.585 228.44 152.339 221 140.866 210.051C132.75 202.305 120.532 204.547 114.656 207.908L104.436 214.016L34.346 300.218C35.6189 300.952 36.5443 305.326 35.795 307.974L39.4771 310.497C42.9724 311.227 42.3183 314.247 41.5542 315.665L28.8009 318.789Z" fill="white"/>
<path d="M28.8009 318.789L2.85468 301.532C2.6418 300.172 3.06626 297.244 6.46713 296.411C9.86801 295.578 13.7062 295.059 15.2001 294.903L21.6411 297.652L23.6539 298.511C24.0744 297.897 25.9384 296.725 30.0306 296.949L100.926 211.091M28.8009 318.789L41.5542 315.665C42.3183 314.247 42.9724 311.227 39.4771 310.497M28.8009 318.789L30.6904 314.361C32.1629 312.769 35.9818 309.766 39.4771 310.497M39.4771 310.497L35.7951 307.974C36.5443 305.326 35.6189 300.952 34.346 300.218L104.436 214.016M100.926 211.091L104.436 214.016M100.926 211.091C109.613 204.487 130.37 194.723 143.909 208.494C157.448 222.265 144.639 233.55 133.496 237.36C121.072 241.609 97.5838 247.95 102.84 267.943M104.436 214.016L114.656 207.908C120.532 204.547 132.75 202.305 140.866 210.051C152.339 221 141.585 228.44 138.944 230.168C136.487 231.776 130.826 233.114 124.355 235.363C118.209 237.5 103.921 245.203 101.789 248.1C93.6683 259.136 96.5323 263.78 98.1339 270.333M98.1339 270.333C99.2126 274.746 101.175 277.625 102.24 278.271C104.357 279.555 106.07 277.843 106.663 276.827C105.37 274.615 104.376 272.511 103.647 270.511M98.1339 270.333C90.758 276.01 80.209 285.911 73.9967 296.199M71.8479 320.502C72.7239 322.018 87.435 328.58 94.6811 331.672M71.8479 320.502C66.654 313.614 68.8193 304.772 73.9967 296.199M71.8479 320.502C66.0595 323.362 65.4392 313.961 65.8526 308.903C67.7165 295.613 72.0586 294.896 73.9967 296.199M94.6811 331.672C97.2076 331.249 101.565 329.553 105.499 325.819M94.6811 331.672L102.845 333.728M112.298 314.921C121.039 301.498 131.546 273.824 103.647 270.511M112.298 314.921C111.967 315.926 111.594 316.878 111.186 317.777M112.298 314.921C98.5414 324.278 71.6223 333.634 73.9967 296.199M103.647 270.511C103.328 269.635 103.06 268.779 102.84 267.943M102.84 267.943C108.995 268.387 122.218 272.044 125.867 283.118C129.517 294.193 123.978 311.339 120.752 318.528M120.752 318.528C122.789 323.046 123.822 333.637 111.648 339.864M120.752 318.528C106.182 321.447 108.612 333.968 111.648 339.864M120.752 318.528C120.446 316.811 118.104 314.257 111.186 317.777M111.648 339.864L108.256 338.892L105.609 337.287L103.628 335.49L102.845 333.728M102.845 333.728C102.547 332.491 102.662 329.177 105.499 325.819M105.499 325.819C107.642 323.785 109.659 321.145 111.186 317.777" stroke="black"/>
<path d="M414.678 111.27C414.775 110.758 414.909 110.116 415.086 109.407C417.246 96.8664 403.804 100.275 411.384 98.9855C416.201 98.1661 418.857 91.0401 419.748 87.9602C420.216 86.3415 420.197 85.8404 419.748 87.9602C419.644 88.4496 419.518 89.0786 419.369 89.8659C417.349 100.551 426.711 102.342 421.347 101.549C417.794 101.024 415.939 105.993 415.086 109.407C414.985 109.993 414.85 110.613 414.678 111.27Z" fill="white"/>
<path d="M414.678 111.27C415.242 108.294 417.056 100.914 421.347 101.549C426.711 102.342 417.349 100.551 419.369 89.8659C421.389 79.1807 419.318 97.6361 411.384 98.9855C403.45 100.335 418.547 96.5379 414.678 111.27Z" stroke="black"/>
<path d="M140.78 58.2462C140.789 57.8424 140.81 57.3342 140.855 56.7691C140.912 46.8994 131.106 51.2421 136.716 49.2771C140.281 48.0283 141.402 42.2355 141.691 39.7651C141.842 38.4666 141.764 38.086 141.691 39.7651C141.674 40.1527 141.657 40.6502 141.643 41.2714C141.457 49.7039 148.815 49.8642 144.629 49.9506C141.856 50.0079 141.072 54.048 140.855 56.7691C140.852 57.2298 140.828 57.7215 140.78 58.2462Z" fill="white"/>
<path d="M140.78 58.2462C140.833 55.8978 141.28 50.0197 144.629 49.9506C148.815 49.8642 141.457 49.7039 141.643 41.2714C141.829 32.8389 142.588 47.2204 136.716 49.2771C130.844 51.3338 141.862 46.4802 140.78 58.2462Z" stroke="black"/>
<path d="M712.601 83.8448C712.617 83.228 712.65 82.4517 712.721 81.5885C712.856 66.5141 698.02 73.194 706.504 70.1659C711.897 68.2415 713.618 59.3888 714.066 55.6143C714.301 53.6305 714.185 53.0494 714.066 55.6143C714.038 56.2064 714.01 56.9662 713.987 57.9151C713.666 70.7949 724.779 71.0043 718.455 71.1564C714.266 71.2572 713.063 77.4315 712.721 81.5885C712.715 82.2921 712.676 83.0431 712.601 83.8448Z" fill="white"/>
<path d="M712.601 83.8448C712.692 80.2578 713.396 71.2781 718.455 71.1564C724.779 71.0043 713.666 70.7949 713.987 57.9151C714.308 45.0354 715.385 66.9965 706.504 70.1659C697.624 73.3353 714.292 65.8694 712.601 83.8448Z" stroke="black"/>
<path d="M9.25511 178C9.43728 178.593 9.64951 179.343 9.84506 180.185C14.6012 194.613 30.4306 184.427 21.1195 189.496C15.2019 192.718 16.0019 201.612 16.6897 205.331C17.0512 207.286 17.3818 207.811 16.6897 205.331C16.53 204.759 16.3157 204.026 16.0347 203.114C12.2212 190.734 -1.33807 193.387 6.28901 191.618C11.3415 190.446 10.7867 184.242 9.84506 180.185C9.62306 179.512 9.42518 178.785 9.25511 178Z" fill="white"/>
<path d="M9.25511 178C10.3145 181.448 12.3907 190.203 6.28901 191.618C-1.33807 193.387 12.2212 190.734 16.0347 203.114C19.8483 215.495 11.3737 194.802 21.1195 189.496C30.8652 184.19 13.0687 195.597 9.25511 178Z" stroke="black"/>
<path d="M319.385 255.361C319.699 256.021 320.082 256.859 320.479 257.809C328.358 273.802 337.496 258.828 331.85 266.555C328.262 271.466 331.486 281.735 333.105 285.96C333.956 288.182 334.363 288.733 333.105 285.96C332.814 285.32 332.435 284.503 331.952 283.488C325.396 269.713 315.786 275.424 321.11 271.888C324.638 269.545 322.391 262.382 320.479 257.809C320.111 257.062 319.746 256.248 319.385 255.361Z" fill="white"/>
<path d="M319.385 255.361C321.209 259.199 325.37 269.059 321.11 271.888C315.786 275.424 325.396 269.713 331.952 283.488C338.508 297.263 325.941 274.643 331.85 266.555C337.76 258.467 327.473 275.25 319.385 255.361Z" stroke="black"/>
<path d="M683.721 273.17C683.609 273.997 683.483 275.043 683.375 276.217C680.405 296.365 667.25 282.759 674.936 289.484C679.821 293.758 679.686 306.11 679.348 311.286C679.171 314.007 678.937 314.745 679.348 311.286C679.443 310.488 679.572 309.466 679.744 308.193C682.079 290.912 693.007 294.152 686.844 291.946C682.762 290.486 682.854 281.87 683.375 276.217C683.513 275.277 683.63 274.263 683.721 273.17Z" fill="white"/>
<path d="M683.721 273.17C683.073 277.983 681.915 290.182 686.844 291.946C693.007 294.152 682.079 290.912 679.744 308.193C677.409 325.473 682.982 296.523 674.936 289.484C666.891 282.445 681.679 297.68 683.721 273.17Z" stroke="black"/>
<path d="M472.78 275.557C460.831 280.021 467.627 284.882 473.949 283.378L602.002 252.906C611.67 247.661 604.944 244.108 597.886 245.788L535.333 260.673L472.78 275.557Z" fill="white" stroke="black"/>
<path d="M493.094 326.51L473.119 283.575L602.414 252.808L603.588 300.217L493.094 326.51Z" fill="white" stroke="black"/>
<path d="M495.585 298.474C491.538 281.468 484.44 274.829 490.074 269.642C499.3 261.148 504.132 269.119 516.755 261.61C529.377 254.101 535.092 260.791 535.092 260.791C520.636 269.514 532.001 279.873 534.494 310.734C516.992 320.785 514.977 319.465 504.609 317.846C494.46 316.26 500.51 313.498 495.585 298.474Z" fill="white" stroke="black"/>
<path d="M182.061 118.424C181.588 120.823 184.536 122.857 185.744 120.842L197.246 86.6647C205.577 89.3575 220.06 90.7626 211.345 74.8409C217.04 73.4027 225.334 68.3164 212.952 59.4756C218.724 57.4718 227.573 52.5206 216.79 48.7469C221.5 46.299 227.936 41.2022 216 40.3983C218.178 37.2361 220.384 30.8141 211.775 30.4234C210.96 30.4392 208.208 30.7117 203.716 31.6751C199.002 28.1939 191.385 24.6743 198.628 38.4451C192.995 36.9944 184.436 36.8285 195.269 47.7705C188.855 51.3135 179.411 59.8674 192.947 65.7385C183.609 70.7322 170.708 81.484 193.809 84.5408L182.061 118.424Z" fill="white"/>
<path d="M197.246 86.6647L185.744 120.842C184.536 122.857 181.588 120.823 182.061 118.424L193.809 84.5408M197.246 86.6647C205.577 89.3575 220.06 90.7626 211.345 74.8409C217.04 73.4028 225.334 68.3164 212.952 59.4756C218.724 57.4718 227.573 52.5206 216.79 48.7469C221.5 46.299 227.936 41.2022 216 40.3983C218.178 37.2361 220.384 30.8141 211.775 30.4234C210.96 30.4392 208.208 30.7117 203.716 31.6751C199.002 28.1939 191.385 24.6743 198.628 38.4451C192.995 36.9944 184.436 36.8285 195.269 47.7705C188.855 51.3135 179.411 59.8674 192.947 65.7385C183.609 70.7322 170.708 81.484 193.809 84.5408M197.246 86.6647L193.809 84.5408" stroke="black"/>
<path d="M222.996 269.812C221.49 267.553 219.232 269.059 221.022 271.406L247.94 317.162L248.731 318.506L249.522 319.851L250.392 321.33L251.153 322.624L251.89 323.876L252.626 325.128L253.22 326.137C253.536 326.471 253.839 326.744 254.126 326.961C254.674 327.374 255.166 327.585 255.589 327.635C256.235 327.711 256.723 327.413 257.009 326.887C257.143 326.64 257.232 326.343 257.273 326.012C257.353 325.359 257.273 324.762 256.912 323.764L256.15 322.469L255.389 321.175L253.866 318.586L252.937 317.007L252.343 315.998L251.691 314.888L222.996 269.812Z" fill="white" stroke="black"/>
<path d="M229.503 278.275L225.282 280.813L218.687 269.847C217.764 263.814 221.488 266.259 222.908 267.309L229.503 278.275Z" fill="white" stroke="black"/>
<path d="M228.546 276.656L236.289 274.197C234.561 273.875 234.166 273.247 234.544 271.294L227.77 275.366L226.995 274.075L234.157 270.649C232.616 270.155 232.235 269.511 232.411 267.745L226.413 273.108L225.056 270.85L232.024 267.1C231.098 266.047 229.247 266.134 230.278 264.197L224.28 269.559L225.056 270.85L226.413 273.108L226.995 274.075L227.77 275.366L228.546 276.656Z" fill="white"/>
<path d="M223.31 267.946L229.697 263.229C228.686 263.252 226.804 261.631 227.113 260.391L222.729 266.979L221.308 266.076L225.369 259.683C224.251 260.501 221.613 260.447 221.044 258.331L220.598 265.625L221.308 266.076L222.729 266.979L223.31 267.946Z" fill="white"/>
<path d="M217.881 258.914L219.759 265.69L218.791 266.272L214.655 260.853C215.792 261.575 217.28 259.861 217.881 258.914Z" fill="white"/>
<path d="M218.533 267.305L213.624 262.79C213.582 263.694 213.097 265.566 211.497 265.826L218.276 268.338L218.535 269.499L210.788 267.569C211.456 268.924 212.328 271.738 210.469 272.152L219.311 270.79L220.086 272.08L212.084 273.377C212.923 274.044 214.358 275.699 213.378 276.991L220.668 273.048L221.444 274.338L214.282 277.765C214.928 278.109 216.116 279.209 215.704 280.862L222.219 275.628L223.383 277.564L216.286 281.83C216.483 282.784 218.779 283.928 218.548 284.862L224.352 279.177L223.383 277.564L222.219 275.628L221.444 274.338L220.668 273.048L220.086 272.08L219.311 270.79L218.535 269.499L218.276 268.338L218.533 267.305Z" fill="white"/>
<path d="M227.77 275.366L234.544 271.294C234.166 273.247 234.561 273.875 236.289 274.197L228.546 276.656L227.77 275.366ZM227.77 275.366L226.995 274.075M226.995 274.075L234.157 270.649C232.616 270.155 232.235 269.511 232.411 267.745L226.413 273.108M226.995 274.075L226.413 273.108M226.413 273.108L225.056 270.85M225.056 270.85L232.024 267.1C231.098 266.047 229.247 266.134 230.278 264.197L224.28 269.559L225.056 270.85ZM222.729 266.979L227.113 260.391C226.804 261.631 228.686 263.252 229.697 263.229L223.31 267.946L222.729 266.979ZM222.729 266.979L221.308 266.076M221.308 266.076L225.369 259.683C224.251 260.501 221.613 260.447 221.044 258.331L220.598 265.625L221.308 266.076ZM218.276 268.338L211.497 265.826C213.097 265.566 213.582 263.694 213.624 262.79L218.533 267.305L218.276 268.338ZM218.276 268.338L218.535 269.499M218.535 269.499L210.788 267.569C211.456 268.924 212.328 271.738 210.469 272.152L219.311 270.79M218.535 269.499L219.311 270.79M219.311 270.79L220.086 272.08M220.086 272.08L212.084 273.377C212.923 274.044 214.358 275.699 213.378 276.991L220.668 273.048M220.086 272.08L220.668 273.048M220.668 273.048L221.444 274.338M221.444 274.338L214.282 277.765C214.928 278.109 216.116 279.209 215.704 280.862L222.219 275.628M221.444 274.338L222.219 275.628M222.219 275.628L223.383 277.564M223.383 277.564L216.286 281.83C216.483 282.784 218.779 283.928 218.548 284.862C220.814 282.641 222.085 281.397 224.352 279.177L223.383 277.564ZM219.759 265.69L217.881 258.914C217.28 259.861 215.792 261.575 214.655 260.853L218.791 266.272L219.759 265.69Z" stroke="black"/>
<path d="M254.796 323.13C254.158 322.652 252.968 322.149 253.313 323.959C253.743 326.221 257.183 325.41 254.796 323.13Z" fill="white" stroke="black"/>
<path d="M503.914 69.2559L501.325 74.2725C499.836 76.61 497.522 84.1689 498.94 89.56C499.969 93.4735 499.817 99.8505 499.77 103.542C499.542 121.214 489.11 120.912 484.428 118.495L463.358 107.619C456.367 101.469 461.734 92.8033 469.001 87.6598C472.116 85.4554 479.05 82.2439 482.39 80.5938C486.938 78.3471 489.896 72.891 491.626 69.2661L494.216 64.2494C495.411 61.9339 495.519 59.9541 495.015 58.309C490.407 63.7237 480.551 64.8197 476.198 64.6909C480.536 63.2592 489.716 59.1316 491.736 54.0747C490.738 53.3678 489.687 52.8647 488.811 52.565L484.798 50.4934C484.573 46.9892 487.121 44.3511 488.423 43.4701C489.921 43.9887 491.345 44.5121 492.696 45.039C516.491 54.318 517.977 64.6842 515.534 68.9004C506.722 62.9964 504.116 66.6774 503.914 69.2559Z" fill="white"/>
<path d="M494.216 64.2494L503.914 69.2559M494.216 64.2494L491.626 69.2661M494.216 64.2494C495.411 61.9339 495.519 59.9541 495.015 58.309M503.914 69.2559L501.325 74.2725M503.914 69.2559C504.116 66.6774 506.722 62.9964 515.534 68.9004C517.977 64.6842 516.491 54.318 492.696 45.039M501.325 74.2725L491.626 69.2661M501.325 74.2725C499.836 76.61 497.522 84.1689 498.94 89.56C499.969 93.4735 499.817 99.8505 499.77 103.542C499.542 121.214 489.11 120.912 484.428 118.495L463.358 107.619C456.367 101.469 461.734 92.8033 469.001 87.6598C472.116 85.4554 479.05 82.2439 482.39 80.5938C486.938 78.3471 489.896 72.891 491.626 69.2661M488.811 52.565L484.798 50.4934C484.573 46.9892 487.121 44.3511 488.423 43.4701C489.921 43.9887 491.345 44.5121 492.696 45.039M488.811 52.565L492.696 45.039M488.811 52.565C489.687 52.8647 490.738 53.3678 491.736 54.0747M495.015 58.309C490.407 63.7237 480.551 64.8197 476.198 64.6909C480.536 63.2592 489.716 59.1316 491.736 54.0747M495.015 58.309C494.458 56.4875 493.149 55.0764 491.736 54.0747" stroke="black"/>
<path d="M581.263 49.6479C585.201 56.0383 573.596 59.3992 567.302 60.2808C559.532 64.3509 555.258 65.3148 553.11 65.1077C552.063 65.0067 551.562 64.6802 551.092 64.2929C551.009 64.2281 550.928 64.16 550.85 64.0884C550.193 63.4912 549.679 62.6582 549.03 61.6056C548.045 60.008 548.603 57.9469 549.166 57.0204C550.017 55.376 553.255 52.1563 559.393 52.4326C561.557 52.9183 563.617 53.0567 564.901 52.2922C573.83 45.0648 579.298 47.5875 581.263 49.6479Z" fill="white"/>
<path d="M581.263 49.6479C585.201 56.0383 573.596 59.3992 567.302 60.2808C559.532 64.3509 555.258 65.3148 553.11 65.1077M581.263 49.6479C579.298 47.5875 573.83 45.0648 564.901 52.2922C563.617 53.0567 561.557 52.9183 559.393 52.4326C553.255 52.1563 550.017 55.376 549.166 57.0204C548.603 57.9469 548.045 60.008 549.03 61.6056M581.263 49.6479C581.527 50.5296 580.904 52.8201 576.29 54.9291C570.522 57.5654 567.079 56.182 566.049 56.1128C565.225 56.0575 564.78 56.3679 564.661 56.53C556.944 63.0902 551.025 62.6472 549.03 61.6056M549.03 61.6056C550.251 63.5872 550.996 64.7904 553.11 65.1077M549.03 61.6056L550.85 64.0884C551.406 64.5611 551.883 64.9893 553.11 65.1077" stroke="black"/>
<path d="M548.191 70.5677C551.523 69.5664 551.76 66.2132 551.462 64.6617C553.303 65.0609 558.991 64.6848 567.019 59.987C568.38 60.1468 573.078 59.4559 580.977 55.4142C582.405 56.2475 585.302 58.053 585.469 58.6087C585.636 59.1644 584.443 59.6742 583.826 59.8596C584.204 59.9985 585.002 60.4151 585.169 60.9708C585.336 61.5266 583.836 62.129 583.064 62.3608L578.677 59.5136L581.467 62.0834L578.182 64.5852L574.824 61.8072L576.794 65.0024L574.48 65.6977C569.619 65.6434 566.762 66.8808 565.941 67.5063L563.509 64.4501L564.761 68.6181L558.953 71.1206L557.238 67.0917L557.819 70.7041L556.431 71.1213L556.242 70.495C556.225 70.7571 556.145 71.0206 555.968 71.2604C555.394 72.0386 554.047 71.5851 553.445 71.261L553.073 68.3433L551.385 71.1226L548.191 70.5677Z" fill="white"/>
<path d="M551.462 64.6617C551.76 66.2132 551.523 69.5664 548.191 70.5677L551.385 71.1226L553.073 68.3433L553.445 71.261C554.047 71.5851 555.394 72.0386 555.968 71.2604C556.541 70.4821 556.098 69.4541 555.804 69.0373L556.431 71.1213L557.819 70.7041L557.238 67.0917L558.953 71.1206L564.761 68.6181L563.509 64.4501L565.941 67.5063C566.762 66.8808 569.619 65.6434 574.48 65.6977L576.794 65.0024L574.824 61.8072L578.182 64.5852L581.467 62.0834L578.677 59.5136L583.064 62.3608C583.836 62.129 585.336 61.5266 585.169 60.9708C585.002 60.4151 584.204 59.9985 583.826 59.8596C584.443 59.6742 585.636 59.1644 585.469 58.6087C585.302 58.053 582.405 56.2475 580.977 55.4142C573.078 59.4559 568.38 60.1468 567.019 59.987C558.991 64.6848 553.303 65.0609 551.462 64.6617Z" stroke="black"/>
<path d="M292.134 41.8052C295.809 38.6615 300.458 37.6268 302.111 37.592L303.358 40.5469L304.339 42.8686L304.003 43.259L304.627 44.7364C306.815 45.968 312.327 48.3988 316.875 48.269C321.422 48.1392 324.602 52.5498 325.624 54.7712L328.935 60.8343L331.876 67.7994C333.312 69.7793 331.233 74.3715 330.058 76.5256C331.23 77.5231 335.012 81.1487 336.205 83.3807C339.023 90.6466 336.078 95.1235 334.985 97.0772C327.868 100.166 314.763 105.816 314.182 105.862C313.456 105.92 311.011 105.461 306.647 102.827C302.283 100.193 301.725 93.0669 302.327 90.2264C302.928 87.3859 302.255 83.5415 301.843 81.9744C299.181 75.4719 293.349 62.3327 293.019 61.079C292.608 59.5119 295.02 52.3341 295.296 51.6617C295.542 51.0603 295.756 49.3949 295.712 48.5014L295.13 47.1242C294.873 47.1933 294.645 47.2495 294.451 47.2929L292.134 41.8052Z" fill="white"/>
<path d="M292.134 41.8052C294.17 41.6914 299.356 40.546 302.111 37.592M292.134 41.8052C295.809 38.6615 300.458 37.6268 302.111 37.592M292.134 41.8052L294.451 47.2929C294.645 47.2495 294.873 47.1933 295.13 47.1242M302.111 37.592L303.358 40.5469L304.339 42.8686L304.003 43.259M304.003 43.259C300.801 45.3152 297.102 46.5957 295.13 47.1242M304.003 43.259L304.627 44.7364C306.815 45.968 312.327 48.3988 316.875 48.269C321.422 48.1392 324.602 52.5498 325.624 54.7712L328.935 60.8343L331.876 67.7994C333.312 69.7793 331.233 74.3715 330.058 76.5256C331.23 77.5231 335.012 81.1487 336.205 83.3807C339.023 90.6466 336.078 95.1235 334.985 97.0772C327.868 100.166 314.763 105.816 314.182 105.862C313.456 105.92 311.011 105.461 306.647 102.827C302.283 100.193 301.725 93.0669 302.327 90.2264C302.928 87.3859 302.255 83.5415 301.843 81.9744C299.181 75.4719 293.349 62.3327 293.019 61.079C292.608 59.5119 295.02 52.3341 295.296 51.6617C295.542 51.0603 295.756 49.3949 295.712 48.5014L295.13 47.1242M316.446 53.1757C317.206 52.6061 319.082 52.311 320.254 53.3085C321.425 54.306 320.432 53.7306 324.825 60.58C328.34 66.0596 328.211 70.1763 327.495 71.6394C326.853 72.4904 324.882 73.3894 322.124 70.1766C319.367 66.9639 317.045 60.7154 316.229 57.9927C315.76 56.6156 315.306 54.0301 316.446 53.1757ZM306.726 79.9126L298.992 62.7846C298.153 60.4031 298.208 54.4113 305.467 53.8326C311.275 53.3697 312.408 59.6063 313.923 63.1944L319.627 76.7026C327.719 82.2391 332.757 91.8006 323.205 95.8345C319.226 98.2606 311.461 101.788 308.121 91.5098C308.121 91.5098 307.141 89.1881 307.513 85.9223C307.884 82.6565 307.528 81.8122 307.528 81.8122L306.726 79.9126Z" stroke="black"/>
<path d="M658.993 184.704L696.946 190.858C699.557 191.281 701.198 195.139 696.095 196.108L687.692 228.867L656.667 223.836L656.853 219.562C655.084 219.277 653.741 218.325 652.539 216.881C647.499 210.828 655.954 200.469 658.142 189.954C655.949 189.498 653.985 185.089 658.993 184.704Z" fill="white"/>
<path d="M696.095 196.108C701.198 195.139 699.557 191.281 696.946 190.858L658.993 184.704C653.985 185.089 655.949 189.498 658.142 189.954M696.095 196.108L687.692 228.867L656.667 223.836L658.142 189.954M696.095 196.108C665.096 220.353 657.579 222.934 652.539 216.881C647.499 210.828 655.954 200.469 658.142 189.954M696.095 196.108L658.142 189.954" stroke="black"/>
<path d="M688.574 116.247C687.911 117.747 688.436 205.866 688.436 205.866C682.25 203.433 675.442 203.486 672.95 210.17C671.879 213.041 672.289 216.713 673.901 220.543C674.405 221.742 675.027 222.956 675.759 224.167C676.938 226.117 678.401 228.057 680.113 229.904C681.84 231.767 683.819 233.536 686.015 235.125C686.023 235.131 686.031 235.137 686.039 235.143C687.133 235.933 688.384 236.542 689.748 236.999C692.541 237.935 695.805 238.234 699.147 238.148C700.142 238.123 701.143 238.063 702.142 237.976C704.216 237.795 706.276 237.495 708.228 237.136C709.721 236.862 711.151 236.553 712.476 236.237C713.776 235.926 714.975 235.607 716.035 235.307C716.288 235.235 716.534 235.164 716.771 235.094C718.982 234.445 720.447 233.913 720.73 233.781C721.953 233.205 710.166 227.231 708.718 223.281C707.956 221.201 707.711 217.527 707.649 214.515C707.594 211.806 707.687 209.632 707.687 209.632C707.309 205.891 702.576 201.705 693.939 206.942L694.11 162.561L694.077 117.324C693.874 116.469 693.035 115.083 691.609 114.804C690.183 114.525 689.238 114.747 688.574 116.247Z" fill="white"/>
<path d="M693.939 206.942C702.576 201.705 707.309 205.891 707.687 209.632C707.687 209.632 707.594 211.806 707.649 214.515M693.939 206.942L694.11 162.561L694.077 117.324C693.874 116.469 693.035 115.083 691.609 114.804C690.183 114.525 689.238 114.747 688.574 116.247C687.911 117.747 688.436 205.866 688.436 205.866M693.939 206.942C693.828 207.067 693.717 207.181 693.607 207.285M693.939 206.942C697.527 209.139 705.507 215.481 708.718 223.281M693.939 206.942C697.61 206.166 705.491 206.595 707.649 214.515M688.436 205.866C682.25 203.433 675.442 203.486 672.95 210.17C671.879 213.041 672.289 216.713 673.901 220.543M688.436 205.866C684.766 205.691 676.721 208.382 673.901 220.543M688.436 205.866C688.514 206.013 688.606 206.169 688.709 206.327M686.039 235.143C679.809 230.664 685.762 214.714 689.517 207.3M686.039 235.143C687.133 235.933 688.384 236.542 689.748 236.999M686.039 235.143C683.834 233.549 681.846 231.774 680.113 229.904M708.718 223.281C710.166 227.231 721.953 233.205 720.73 233.781C720.447 233.913 718.982 234.445 716.771 235.094M708.718 223.281C707.956 221.201 707.711 217.527 707.649 214.515M693.709 208.12C694.645 214.412 699.708 228.846 712.476 236.237M712.476 236.237C713.776 235.926 714.975 235.607 716.035 235.307M712.476 236.237C711.151 236.553 709.721 236.862 708.228 237.136M691.307 208.219C690.57 219.555 687.51 238.447 699.147 238.148M691.307 208.219C690.937 208.178 690.588 208.05 690.266 207.865M691.307 208.219C691.754 208.268 692.231 208.189 692.729 207.928M699.147 238.148C695.805 238.234 692.541 237.935 689.748 236.999M699.147 238.148C700.142 238.123 701.143 238.063 702.142 237.976M689.517 207.3C689.33 207.123 689.16 206.932 689.006 206.738M689.517 207.3C689.745 207.515 689.996 207.71 690.266 207.865M673.901 220.543C674.405 221.742 675.027 222.956 675.759 224.167M673.901 220.543C673.505 205.144 683.608 204.649 688.709 206.327M689.006 206.738C685.765 208.703 678.578 214.939 675.759 224.167M689.006 206.738C688.898 206.601 688.799 206.463 688.709 206.327M675.759 224.167C676.938 226.117 678.401 228.057 680.113 229.904M690.266 207.865C688.141 214.311 685.063 229.163 689.748 236.999M692.729 207.928C692.868 216.875 694.945 235.41 702.142 237.976M692.729 207.928C693.016 207.778 693.309 207.567 693.607 207.285M702.142 237.976C704.216 237.795 706.276 237.495 708.228 237.136M693.607 207.285C696.668 214.675 705.439 230.626 716.035 235.307M693.607 207.285C699.407 215.652 712.161 232.929 716.771 235.094M693.607 207.285C694.943 217.662 699.737 238.161 708.228 237.136M716.035 235.307C716.288 235.235 716.534 235.164 716.771 235.094M688.919 207.183C684.82 212.218 677.32 223.813 680.113 229.904" stroke="black"/>
<path d="M677.952 33.2333L639.057 7.86442C638.148 8.39988 637.447 9.08858 636.914 9.80752C635.939 11.1235 635.527 12.5409 635.441 13.3054L648.52 22.8794L649.12 27.2245C644.162 34.2286 640.906 41.802 639.898 44.7133C639.595 45.5866 637.882 48.5027 638.072 48.8945C635.988 52.0837 632.641 61.0028 635.839 62.7133C639.037 64.4238 639.356 59.9458 641.677 55.6356C645.031 47.3504 644.461 45.2923 643.756 45.2988C644.443 38.9777 649.744 32.0045 652.309 29.308L656.277 28.2766L672.471 38.6296C673.968 38.8901 675.386 37.5437 676.446 36.0078C677.114 35.04 677.639 33.997 677.952 33.2333Z" fill="white"/>
<path d="M636.914 9.80752C635.939 11.1235 635.527 12.5409 635.441 13.3054L648.52 22.8794L649.12 27.2245C644.162 34.2286 640.906 41.802 639.898 44.7133C639.595 45.5866 637.882 48.5027 638.072 48.8945C635.988 52.0837 632.641 61.0028 635.839 62.7133C639.037 64.4238 639.356 59.9458 641.677 55.6356C645.031 47.3504 644.461 45.2923 643.756 45.2988C644.443 38.9777 649.744 32.0045 652.309 29.308L656.277 28.2766L672.471 38.6296C673.968 38.8901 675.386 37.5437 676.446 36.0078M636.914 9.80752C637.447 9.08858 638.148 8.39988 639.057 7.86442L677.952 33.2333C677.639 33.997 677.114 35.04 676.446 36.0078M636.914 9.80752L676.446 36.0078M639.872 48.6913C639.796 49.4171 640.214 50.6148 642.491 49.5992M638.523 50.6306C638.741 51.8095 639.708 53.7645 641.831 52.1536M637.615 53.2495C637.668 54.4713 638.404 56.4865 640.924 54.7725" stroke="black"/>
<path d="M64.7432 139.202C70.3888 139.202 68.5484 135.166 63.3431 122.806L20.693 118.344C20.693 118.344 18.8261 126.782 15.7915 129.079C12.7569 131.377 10.546 131.67 14.686 132.046L16.1915 135.81C17.5715 134.555 21.9877 129.793 22.5898 126.782C23.3241 123.11 21.1934 135.192 20.0404 135.787C20.9318 135.783 23.8992 135.979 24.4717 137.697C24.9735 134.686 26.2783 128.061 27.4827 125.653C28.687 123.244 27.2317 132.176 26.3535 136.944C26.7299 136.693 28.0095 137.471 30.1172 138.073C32.7518 138.826 30.87 129.04 32.3755 124.9L33.5045 139.202C34.2572 138.826 36.1392 136.869 37.6446 138.073L37.6446 124.9L39.5264 139.202C41.7846 137.697 44.7956 137.094 46.3011 139.202L44.0428 124.9C45.5483 128.538 48.5593 136.492 48.5593 139.202C49.9393 138.073 53.151 136.492 54.9576 139.202L52.6993 127.579C54.7067 131.202 58.3449 138.6 56.8394 139.202L56.753 139.236L56.752 139.237C56.7342 139.244 56.7173 139.25 56.7014 139.257L56.7003 139.257C57.6384 138.925 61.2478 137.787 62.1469 139.202C63.1039 140.707 60.2619 131.549 58.7213 126.782L64.7432 139.202Z" fill="white"/>
<path d="M45.2646 112.684C45.2646 112.684 70.9871 21.3588 70.7689 19.6072C70.5508 17.8556 68.7498 17.2658 67.2791 17.1379C65.8084 17.0101 64.5932 18.2039 64.1508 19.0317L51.1774 65.9841L38.6465 112.109C27.0305 109.366 22.1325 114.571 20.693 118.344L63.3431 122.806C63.3431 116.243 51.9949 111.97 45.2646 112.684Z" fill="white"/>
<path d="M63.3431 122.806C63.3431 116.243 51.9949 111.97 45.2646 112.684C45.2646 112.684 70.9871 21.3588 70.7689 19.6072C70.5508 17.8556 68.7498 17.2658 67.2791 17.1379C65.8084 17.0101 64.5932 18.2039 64.1508 19.0317L51.1774 65.9841L38.6465 112.109C27.0305 109.366 22.1325 114.571 20.693 118.344M63.3431 122.806C68.5484 135.166 70.3888 139.202 64.7432 139.202L58.7213 126.782C60.2619 131.549 63.1039 140.707 62.1469 139.202M63.3431 122.806L20.693 118.344M20.693 118.344C20.693 118.344 18.8261 126.782 15.7915 129.079C12.7569 131.377 10.546 131.67 14.686 132.046L16.1915 135.81C17.5715 134.555 21.9877 129.793 22.5898 126.782C23.3241 123.11 21.1934 135.192 20.0404 135.787M56.8394 139.202C58.3449 138.6 54.7067 131.202 52.6993 127.579L54.9576 139.202C53.151 136.492 49.9393 138.073 48.5593 139.202C48.5593 136.492 45.5483 128.538 44.0428 124.9L46.3011 139.202C44.7956 137.094 41.7846 137.697 39.5264 139.202L37.6446 124.9L37.6446 138.073C36.1392 136.869 34.2572 138.826 33.5045 139.202L32.3755 124.9C30.87 129.04 32.7518 138.826 30.1172 138.073C28.0095 137.471 26.7299 136.693 26.3535 136.944C27.2317 132.176 28.687 123.244 27.4827 125.653C26.2783 128.061 24.9735 134.686 24.4717 137.697C23.8992 135.979 20.9318 135.783 20.0404 135.787M56.8394 139.202C56.8085 139.214 56.7797 139.226 56.753 139.236M56.8394 139.202L56.753 139.236M62.1469 139.202C61.2478 137.787 57.6384 138.925 56.7003 139.257M62.1469 139.202C61.2481 137.788 57.6411 138.924 56.7014 139.257M20.0404 135.787C19.7598 135.789 19.6849 135.81 19.9553 135.81C19.983 135.81 20.0114 135.802 20.0404 135.787ZM56.7003 139.257L56.7014 139.257M56.7003 139.257C56.4248 139.355 56.3798 139.383 56.7014 139.257M56.753 139.236L56.752 139.237C56.7342 139.244 56.7173 139.25 56.7014 139.257" stroke="black"/>
</svg>
