<svg width="703" height="532" viewBox="0 0 703 532" fill="none" xmlns="http://www.w3.org/2000/svg">
<path d="M28.8009 489.3L2.85468 472.043C2.6418 470.683 3.06626 467.756 6.46713 466.923C9.86801 466.09 13.7062 465.57 15.2001 465.415L21.6411 468.163L23.6539 469.022C24.0744 468.408 25.9384 467.237 30.0306 467.46L100.926 381.602C109.613 374.999 130.37 365.234 143.909 379.005C157.448 392.776 144.639 404.061 133.496 407.872C121.072 412.12 97.5838 418.462 102.84 438.454C108.995 438.898 122.218 442.555 125.867 453.63C129.517 464.704 123.978 481.85 120.752 489.039C122.789 493.557 123.822 504.149 111.648 510.375L108.256 509.403L105.609 507.798L103.628 506.001L102.845 504.239L94.6811 502.184C87.435 499.092 72.7239 492.529 71.8479 491.013C66.0595 493.873 65.4392 484.472 65.8526 479.414C67.7165 466.124 72.0586 465.407 73.9967 466.71C80.209 456.423 90.758 446.522 98.1339 440.844C96.5323 434.291 93.6683 429.647 101.789 418.611C103.921 415.714 118.209 408.011 124.355 405.875C130.826 403.626 136.487 402.287 138.944 400.679C141.585 398.951 152.339 391.511 140.866 380.562C132.75 372.816 120.532 375.058 114.656 378.42L104.436 384.528L34.346 470.729C35.6189 471.463 36.5443 475.837 35.795 478.485L39.4771 481.008C42.9724 481.738 42.3183 484.758 41.5542 486.177L28.8009 489.3Z" fill="white"/>
<path d="M28.8009 489.3L2.85468 472.043C2.6418 470.683 3.06626 467.756 6.46713 466.923C9.86801 466.09 13.7062 465.57 15.2001 465.415L21.6411 468.163L23.6539 469.022C24.0744 468.408 25.9384 467.237 30.0306 467.46L100.926 381.602M28.8009 489.3L41.5542 486.177C42.3183 484.758 42.9724 481.738 39.4771 481.008M28.8009 489.3L30.6904 484.872C32.1629 483.28 35.9818 480.278 39.4771 481.008M39.4771 481.008L35.7951 478.485C36.5443 475.837 35.6189 471.463 34.346 470.729L104.436 384.528M100.926 381.602L104.436 384.528M100.926 381.602C109.613 374.999 130.37 365.234 143.909 379.005C157.448 392.776 144.639 404.061 133.496 407.872C121.072 412.12 97.5838 418.462 102.84 438.454M104.436 384.528L114.656 378.42C120.532 375.058 132.75 372.816 140.866 380.562C152.339 391.511 141.585 398.951 138.944 400.679C136.487 402.287 130.826 403.626 124.355 405.875C118.209 408.011 103.921 415.714 101.789 418.611C93.6683 429.647 96.5323 434.291 98.1339 440.844M98.1339 440.844C99.2126 445.258 101.175 448.136 102.24 448.782C104.357 450.066 106.07 448.355 106.663 447.338C105.37 445.126 104.376 443.022 103.647 441.023M98.1339 440.844C90.758 446.522 80.209 456.423 73.9967 466.71M71.8479 491.013C72.7239 492.529 87.435 499.092 94.6811 502.184M71.8479 491.013C66.654 484.125 68.8193 475.283 73.9967 466.71M71.8479 491.013C66.0595 493.873 65.4392 484.472 65.8526 479.414C67.7165 466.124 72.0586 465.407 73.9967 466.71M94.6811 502.184C97.2076 501.76 101.565 500.064 105.499 496.33M94.6811 502.184L102.845 504.239M112.298 485.432C121.039 472.009 131.546 444.335 103.647 441.023M112.298 485.432C111.967 486.438 111.594 487.389 111.186 488.289M112.298 485.432C98.5414 494.789 71.6223 504.146 73.9967 466.71M103.647 441.023C103.328 440.146 103.06 439.29 102.84 438.454M102.84 438.454C108.995 438.898 122.218 442.555 125.867 453.63C129.517 464.704 123.978 481.85 120.752 489.039M120.752 489.039C122.789 493.557 123.822 504.149 111.648 510.375M120.752 489.039C106.182 491.959 108.612 504.479 111.648 510.375M120.752 489.039C120.446 487.322 118.104 484.769 111.186 488.289M111.648 510.375L108.256 509.403L105.609 507.798L103.628 506.001L102.845 504.239M102.845 504.239C102.547 503.002 102.662 499.688 105.499 496.33M105.499 496.33C107.642 494.296 109.659 491.657 111.186 488.289" stroke="black"/>
<path d="M370.678 254.27C370.775 253.758 370.909 253.116 371.086 252.407C373.246 239.866 359.804 243.275 367.384 241.985C372.201 241.166 374.857 234.04 375.748 230.96C376.216 229.341 376.197 228.84 375.748 230.96C375.644 231.45 375.518 232.079 375.369 232.866C373.349 243.551 382.711 245.342 377.347 244.549C373.794 244.024 371.939 248.993 371.086 252.407C370.985 252.993 370.85 253.613 370.678 254.27Z" fill="white"/>
<path d="M370.678 254.27C371.242 251.294 373.056 243.914 377.347 244.549C382.711 245.342 373.349 243.551 375.369 232.866C377.389 222.181 375.318 240.636 367.384 241.985C359.45 243.335 374.547 239.538 370.678 254.27Z" stroke="black"/>
<path d="M68.7798 205.246C68.7889 204.842 68.8097 204.334 68.8549 203.769C68.9125 193.899 59.1056 198.242 64.7157 196.277C68.2811 195.028 69.4018 189.236 69.6906 186.765C69.8423 185.467 69.7643 185.086 69.6906 186.765C69.6736 187.153 69.6568 187.65 69.6431 188.271C69.4575 196.704 76.8148 196.864 72.6288 196.951C69.8559 197.008 69.0725 201.048 68.8549 203.769C68.8522 204.23 68.828 204.722 68.7798 205.246Z" fill="white"/>
<path d="M68.7798 205.246C68.8329 202.898 69.28 197.02 72.6288 196.951C76.8148 196.864 69.4575 196.704 69.6431 188.271C69.8287 179.839 70.5876 194.22 64.7157 196.277C58.8437 198.334 69.8616 193.48 68.7798 205.246Z" stroke="black"/>
<path d="M690.601 280.845C690.616 280.228 690.65 279.452 690.721 278.588C690.856 263.514 676.02 270.194 684.504 267.166C689.896 265.241 691.617 256.389 692.065 252.614C692.301 250.63 692.185 250.049 692.065 252.614C692.038 253.206 692.01 253.966 691.986 254.915C691.665 267.795 702.779 268.004 696.455 268.156C692.266 268.257 691.063 274.431 690.721 278.588C690.715 279.292 690.676 280.043 690.601 280.845Z" fill="white"/>
<path d="M690.601 280.845C690.692 277.258 691.396 268.278 696.455 268.156C702.779 268.004 691.665 267.795 691.986 254.915C692.307 242.035 693.385 263.996 684.504 267.166C675.624 270.335 692.291 262.869 690.601 280.845Z" stroke="black"/>
<path d="M191.255 36.3809C191.437 36.9738 191.65 37.7237 191.845 38.5662C196.601 52.9941 212.431 42.8077 203.119 47.8769C197.202 51.0986 198.002 59.9931 198.69 63.7122C199.051 65.6669 199.382 66.1919 198.69 63.7122C198.53 63.1397 198.316 62.4071 198.035 61.495C194.221 49.1146 180.662 51.7676 188.289 49.9989C193.341 48.8273 192.787 42.6231 191.845 38.5662C191.623 37.8927 191.425 37.1656 191.255 36.3809Z" fill="white"/>
<path d="M191.255 36.3809C192.315 39.8293 194.391 48.584 188.289 49.9989C180.662 51.7676 194.221 49.1146 198.035 61.495C201.848 73.8754 193.374 53.1828 203.119 47.8769C212.865 42.571 195.069 53.9783 191.255 36.3809Z" stroke="black"/>
<path d="M275.385 392.361C275.699 393.021 276.082 393.859 276.479 394.809C284.358 410.802 293.496 395.828 287.85 403.555C284.262 408.466 287.486 418.735 289.105 422.96C289.956 425.182 290.363 425.733 289.105 422.96C288.814 422.32 288.435 421.503 287.952 420.488C281.396 406.713 271.786 412.424 277.11 408.888C280.638 406.545 278.391 399.382 276.479 394.809C276.111 394.062 275.746 393.248 275.385 392.361Z" fill="white"/>
<path d="M275.385 392.361C277.209 396.199 281.37 406.059 277.11 408.888C271.786 412.424 281.396 406.713 287.952 420.488C294.508 434.263 281.941 411.643 287.85 403.555C293.76 395.467 283.473 412.25 275.385 392.361Z" stroke="black"/>
<path d="M508.26 227.76C508.371 228.588 508.498 229.634 508.606 230.808C511.575 250.956 524.73 237.35 517.044 244.075C512.159 248.349 512.295 260.701 512.632 265.877C512.81 268.598 513.043 269.336 512.632 265.877C512.538 265.079 512.408 264.057 512.236 262.783C509.901 245.503 498.974 248.742 505.136 246.537C509.218 245.077 509.126 236.461 508.606 230.808C508.467 229.867 508.351 228.853 508.26 227.76Z" fill="white"/>
<path d="M508.26 227.76C508.908 232.574 510.066 244.773 505.136 246.537C498.974 248.742 509.901 245.503 512.236 262.783C514.572 280.064 508.999 251.114 517.044 244.075C525.089 237.036 510.301 252.271 508.26 227.76Z" stroke="black"/>
<path d="M450.453 443.584C438.504 448.047 445.3 452.908 451.622 451.404L579.675 420.933C589.343 415.687 582.616 412.134 575.559 413.814L513.006 428.699L450.453 443.584Z" fill="white" stroke="black"/>
<path d="M470.767 494.537L450.791 451.601L580.087 420.834L581.261 468.244L470.767 494.537Z" fill="white" stroke="black"/>
<path d="M473.258 466.5C469.211 449.494 462.113 442.855 467.747 437.668C476.973 429.174 481.805 437.146 494.428 429.636C507.05 422.127 512.765 428.817 512.765 428.817C498.309 437.541 509.674 447.899 512.167 478.761C494.665 488.812 492.65 487.492 482.282 485.872C472.133 484.286 478.183 481.524 473.258 466.5Z" fill="white" stroke="black"/>
<path d="M75.8254 98.424C75.3528 100.823 78.3006 102.857 79.5092 100.842L91.0109 66.6647C99.3418 69.3575 113.825 70.7626 105.11 54.8409C110.805 53.4027 119.099 48.3164 106.717 39.4756C112.489 37.4718 121.338 32.5206 110.555 28.7469C115.265 26.299 121.701 21.2022 109.764 20.3983C111.943 17.2361 114.149 10.8141 105.54 10.4234C104.725 10.4392 101.973 10.7117 97.4805 11.6751C92.767 8.1939 85.1504 4.67426 92.3926 18.4451C86.7595 16.9944 78.2014 16.8285 89.0336 27.7705C82.6196 31.3135 73.1758 39.8674 86.7116 45.7385C77.3737 50.7322 64.4732 61.484 87.5736 64.5408L75.8254 98.424Z" fill="white"/>
<path d="M91.0109 66.6647L79.5092 100.842C78.3006 102.857 75.3528 100.823 75.8254 98.424L87.5736 64.5408M91.0109 66.6647C99.3418 69.3575 113.825 70.7626 105.11 54.8409C110.805 53.4028 119.099 48.3164 106.717 39.4756C112.489 37.4718 121.338 32.5206 110.555 28.7469C115.265 26.299 121.701 21.2022 109.764 20.3983C111.943 17.2361 114.149 10.8141 105.54 10.4234C104.725 10.4392 101.973 10.7117 97.4805 11.6751C92.767 8.1939 85.1504 4.67426 92.3926 18.4451C86.7595 16.9944 78.2014 16.8285 89.0336 27.7705C82.6196 31.3135 73.1758 39.8674 86.7116 45.7385C77.3737 50.7322 64.4732 61.484 87.5736 64.5408M91.0109 66.6647L87.5736 64.5408" stroke="black"/>
<path d="M201.996 336.812C200.49 334.553 198.232 336.059 200.022 338.406L226.94 384.162L227.731 385.506L228.522 386.851L229.392 388.33L230.153 389.624L230.89 390.876L231.626 392.128L232.22 393.137C232.536 393.471 232.839 393.744 233.126 393.961C233.674 394.374 234.166 394.585 234.589 394.635C235.235 394.711 235.723 394.413 236.009 393.887C236.143 393.64 236.232 393.343 236.273 393.012C236.353 392.359 236.273 391.762 235.912 390.764L235.15 389.469L234.389 388.175L232.866 385.586L231.937 384.007L231.343 382.998L230.691 381.888L201.996 336.812Z" fill="white" stroke="black"/>
<path d="M208.503 345.275L204.282 347.813L197.687 336.847C196.764 330.814 200.488 333.259 201.908 334.309L208.503 345.275Z" fill="white" stroke="black"/>
<path d="M207.546 343.656L215.289 341.197C213.561 340.875 213.166 340.247 213.544 338.294L206.77 342.366L205.995 341.075L213.157 337.649C211.616 337.155 211.235 336.511 211.411 334.745L205.413 340.108L204.056 337.85L211.024 334.1C210.098 333.047 208.247 333.134 209.278 331.197L203.28 336.559L204.056 337.85L205.413 340.108L205.995 341.075L206.77 342.366L207.546 343.656Z" fill="white"/>
<path d="M202.31 334.946L208.697 330.229C207.686 330.252 205.804 328.631 206.113 327.391L201.729 333.979L200.308 333.076L204.369 326.683C203.251 327.501 200.613 327.447 200.044 325.331L199.598 332.625L200.308 333.076L201.729 333.979L202.31 334.946Z" fill="white"/>
<path d="M196.881 325.914L198.759 332.69L197.791 333.272L193.655 327.853C194.792 328.575 196.28 326.861 196.881 325.914Z" fill="white"/>
<path d="M197.533 334.305L192.624 329.79C192.582 330.694 192.097 332.566 190.497 332.826L197.276 335.338L197.535 336.499L189.788 334.569C190.456 335.924 191.328 338.738 189.469 339.152L198.311 337.79L199.086 339.08L191.084 340.377C191.923 341.044 193.358 342.699 192.378 343.991L199.668 340.048L200.444 341.338L193.282 344.765C193.928 345.109 195.116 346.209 194.704 347.862L201.219 342.628L202.383 344.564L195.286 348.83C195.483 349.784 197.779 350.928 197.548 351.862L203.352 346.177L202.383 344.564L201.219 342.628L200.444 341.338L199.668 340.048L199.086 339.08L198.311 337.79L197.535 336.499L197.276 335.338L197.533 334.305Z" fill="white"/>
<path d="M206.77 342.366L213.544 338.294C213.166 340.247 213.561 340.875 215.289 341.197L207.546 343.656L206.77 342.366ZM206.77 342.366L205.995 341.075M205.995 341.075L213.157 337.649C211.616 337.155 211.235 336.511 211.411 334.745L205.413 340.108M205.995 341.075L205.413 340.108M205.413 340.108L204.056 337.85M204.056 337.85L211.024 334.1C210.098 333.047 208.247 333.134 209.278 331.197L203.28 336.559L204.056 337.85ZM201.729 333.979L206.113 327.391C205.804 328.631 207.686 330.252 208.697 330.229L202.31 334.946L201.729 333.979ZM201.729 333.979L200.308 333.076M200.308 333.076L204.369 326.683C203.251 327.501 200.613 327.447 200.044 325.331L199.598 332.625L200.308 333.076ZM197.276 335.338L190.497 332.826C192.097 332.566 192.582 330.694 192.624 329.79L197.533 334.305L197.276 335.338ZM197.276 335.338L197.535 336.499M197.535 336.499L189.788 334.569C190.456 335.924 191.328 338.738 189.469 339.152L198.311 337.79M197.535 336.499L198.311 337.79M198.311 337.79L199.086 339.08M199.086 339.08L191.084 340.377C191.923 341.044 193.358 342.699 192.378 343.991L199.668 340.048M199.086 339.08L199.668 340.048M199.668 340.048L200.444 341.338M200.444 341.338L193.282 344.765C193.928 345.109 195.116 346.209 194.704 347.862L201.219 342.628M200.444 341.338L201.219 342.628M201.219 342.628L202.383 344.564M202.383 344.564L195.286 348.83C195.483 349.784 197.779 350.928 197.548 351.862C199.814 349.641 201.085 348.397 203.352 346.177L202.383 344.564ZM198.759 332.69L196.881 325.914C196.28 326.861 194.792 328.575 193.655 327.853L197.791 333.272L198.759 332.69Z" stroke="black"/>
<path d="M233.796 390.13C233.158 389.652 231.968 389.149 232.313 390.959C232.743 393.221 236.183 392.41 233.796 390.13Z" fill="white" stroke="black"/>
<path d="M477.7 47.9901L476.172 53.4251C475.184 56.0142 474.437 63.8841 476.911 68.8799C478.706 72.5064 479.84 78.7836 480.536 82.4095C483.867 99.7661 473.586 101.568 468.514 100.142L445.687 93.7254C437.602 89.107 441.117 79.5392 447.201 73.0394C449.809 70.2537 455.956 65.7133 458.896 63.4251C462.899 60.3097 464.699 54.3702 465.665 50.4714L467.193 45.0365C467.898 42.5279 467.606 40.5667 466.781 39.0566C463.356 45.2874 453.922 48.3433 449.632 49.0924C453.594 46.8176 461.756 40.9281 462.717 35.5684C461.598 35.0766 460.467 34.795 459.549 34.6777L455.201 33.4555C454.276 30.068 456.241 26.9715 457.339 25.8467C458.912 26.0533 460.411 26.2798 461.841 26.5242C487.015 30.8283 490.556 40.6837 489.011 45.3051C479.191 41.2939 477.379 45.4238 477.7 47.9901Z" fill="white"/>
<path d="M467.193 45.0365L477.7 47.9901M467.193 45.0365L465.665 50.4714M467.193 45.0365C467.898 42.5279 467.606 40.5667 466.781 39.0566M477.7 47.9901L476.172 53.4251M477.7 47.9901C477.379 45.4238 479.191 41.2939 489.011 45.3051C490.556 40.6837 487.015 30.8283 461.841 26.5242M476.172 53.4251L465.665 50.4714M476.172 53.4251C475.184 56.0142 474.437 63.8841 476.911 68.8799C478.706 72.5064 479.84 78.7836 480.536 82.4095C483.867 99.7661 473.586 101.568 468.514 100.142L445.687 93.7254C437.602 89.107 441.117 79.5392 447.201 73.0394C449.809 70.2537 455.956 65.7133 458.896 63.4251C462.899 60.3097 464.699 54.3702 465.665 50.4714M459.549 34.6777L455.201 33.4555C454.276 30.068 456.241 26.9715 457.339 25.8467C458.912 26.0533 460.411 26.2798 461.841 26.5242M459.549 34.6777L461.841 26.5242M459.549 34.6777C460.467 34.795 461.598 35.0766 462.717 35.5684M466.781 39.0566C463.356 45.2874 453.922 48.3433 449.632 49.0924C453.594 46.8176 461.756 40.9281 462.717 35.5684M466.781 39.0566C465.869 37.3844 464.304 36.2653 462.717 35.5684" stroke="black"/>
<path d="M520.263 152.648C524.201 159.038 512.596 162.399 506.302 163.281C498.532 167.351 494.258 168.315 492.11 168.108C491.063 168.007 490.562 167.68 490.092 167.293C490.009 167.228 489.928 167.16 489.85 167.088C489.193 166.491 488.679 165.658 488.03 164.606C487.045 163.008 487.603 160.947 488.166 160.02C489.017 158.376 492.255 155.156 498.393 155.433C500.557 155.918 502.617 156.057 503.901 155.292C512.83 148.065 518.298 150.587 520.263 152.648Z" fill="white"/>
<path d="M520.263 152.648C524.201 159.038 512.596 162.399 506.302 163.281C498.532 167.351 494.258 168.315 492.11 168.108M520.263 152.648C518.298 150.587 512.83 148.065 503.901 155.292C502.617 156.057 500.557 155.918 498.393 155.433C492.255 155.156 489.017 158.376 488.166 160.02C487.603 160.947 487.045 163.008 488.03 164.606M520.263 152.648C520.527 153.53 519.904 155.82 515.29 157.929C509.522 160.565 506.079 159.182 505.049 159.113C504.225 159.057 503.78 159.368 503.661 159.53C495.944 166.09 490.025 165.647 488.03 164.606M488.03 164.606C489.251 166.587 489.996 167.79 492.11 168.108M488.03 164.606L489.85 167.088C490.406 167.561 490.883 167.989 492.11 168.108" stroke="black"/>
<path d="M487.191 173.568C490.523 172.566 490.76 169.213 490.462 167.662C492.303 168.061 497.991 167.685 506.019 162.987C507.38 163.147 512.078 162.456 519.977 158.414C521.405 159.247 524.302 161.053 524.469 161.609C524.636 162.164 523.443 162.674 522.826 162.86C523.204 162.998 524.002 163.415 524.169 163.971C524.336 164.527 522.836 165.129 522.064 165.361L517.677 162.514L520.467 165.083L517.182 167.585L513.824 164.807L515.794 168.002L513.48 168.698C508.619 168.643 505.762 169.881 504.941 170.506L502.509 167.45L503.761 171.618L497.953 174.121L496.238 170.092L496.819 173.704L495.431 174.121L495.242 173.495C495.225 173.757 495.145 174.021 494.968 174.26C494.394 175.039 493.047 174.585 492.445 174.261L492.073 171.343L490.385 174.123L487.191 173.568Z" fill="white"/>
<path d="M490.462 167.662C490.76 169.213 490.523 172.566 487.191 173.568L490.385 174.123L492.073 171.343L492.445 174.261C493.047 174.585 494.394 175.039 494.968 174.26C495.541 173.482 495.098 172.454 494.804 172.037L495.431 174.121L496.819 173.704L496.238 170.092L497.953 174.121L503.761 171.618L502.509 167.45L504.941 170.506C505.762 169.881 508.619 168.643 513.48 168.698L515.794 168.002L513.824 164.807L517.182 167.585L520.467 165.083L517.677 162.514L522.064 165.361C522.836 165.129 524.336 164.527 524.169 163.971C524.002 163.415 523.204 162.998 522.826 162.86C523.443 162.674 524.636 162.164 524.469 161.609C524.302 161.053 521.405 159.247 519.977 158.414C512.078 162.456 507.38 163.147 506.019 162.987C497.991 167.685 492.303 168.061 490.462 167.662Z" stroke="black"/>
<path d="M229.134 95.8052C232.809 92.6615 237.458 91.6268 239.111 91.592L240.358 94.5469L241.339 96.8686L241.003 97.259L241.627 98.7364C243.815 99.968 249.327 102.399 253.875 102.269C258.422 102.139 261.602 106.55 262.624 108.771L265.935 114.834L268.876 121.799C270.312 123.779 268.233 128.372 267.058 130.526C268.23 131.523 272.012 135.149 273.205 137.381C276.023 144.647 273.078 149.124 271.985 151.077C264.868 154.166 251.763 159.816 251.182 159.862C250.456 159.92 248.011 159.461 243.647 156.827C239.283 154.193 238.725 147.067 239.327 144.226C239.928 141.386 239.255 137.542 238.843 135.974C236.181 129.472 230.349 116.333 230.019 115.079C229.608 113.512 232.02 106.334 232.296 105.662C232.542 105.06 232.756 103.395 232.712 102.501L232.13 101.124C231.873 101.193 231.645 101.249 231.451 101.293L229.134 95.8052Z" fill="white"/>
<path d="M229.134 95.8052C231.17 95.6914 236.356 94.546 239.111 91.592M229.134 95.8052C232.809 92.6615 237.458 91.6268 239.111 91.592M229.134 95.8052L231.451 101.293C231.645 101.249 231.873 101.193 232.13 101.124M239.111 91.592L240.358 94.5469L241.339 96.8686L241.003 97.259M241.003 97.259C237.801 99.3152 234.102 100.596 232.13 101.124M241.003 97.259L241.627 98.7364C243.815 99.968 249.327 102.399 253.875 102.269C258.422 102.139 261.602 106.55 262.624 108.771L265.935 114.834L268.876 121.799C270.312 123.779 268.233 128.372 267.058 130.526C268.23 131.523 272.012 135.149 273.205 137.381C276.023 144.647 273.078 149.124 271.985 151.077C264.868 154.166 251.763 159.816 251.182 159.862C250.456 159.92 248.011 159.461 243.647 156.827C239.283 154.193 238.725 147.067 239.327 144.226C239.928 141.386 239.255 137.542 238.843 135.974C236.181 129.472 230.349 116.333 230.019 115.079C229.608 113.512 232.02 106.334 232.296 105.662C232.542 105.06 232.756 103.395 232.712 102.501L232.13 101.124M253.446 107.176C254.206 106.606 256.082 106.311 257.254 107.308C258.425 108.306 257.432 107.731 261.825 114.58C265.34 120.06 265.211 124.176 264.495 125.639C263.853 126.49 261.882 127.389 259.124 124.177C256.367 120.964 254.045 114.715 253.229 111.993C252.76 110.616 252.306 108.03 253.446 107.176ZM243.726 133.913L235.992 116.785C235.153 114.403 235.208 108.411 242.467 107.833C248.275 107.37 249.408 113.606 250.923 117.194L256.627 130.703C264.719 136.239 269.757 145.801 260.205 149.835C256.226 152.261 248.461 155.788 245.121 145.51C245.121 145.51 244.141 143.188 244.513 139.922C244.884 136.656 244.528 135.812 244.528 135.812L243.726 133.913Z" stroke="black"/>
<path d="M586.669 322.381H625.118C627.762 322.381 630 325.926 625.118 327.699L622.066 361.381H590.636L590.135 357.132C588.344 357.134 586.866 356.409 585.448 355.176C579.504 350.008 586.192 338.43 586.669 327.699C584.431 327.601 581.786 323.563 586.669 322.381Z" fill="white"/>
<path d="M625.118 327.699C630 325.926 627.762 322.381 625.118 322.381H586.669C581.786 323.563 584.431 327.601 586.669 327.699M625.118 327.699L622.066 361.381H590.636L586.669 327.699M625.118 327.699C598.399 356.594 591.392 360.344 585.448 355.176C579.504 350.008 586.192 338.43 586.669 327.699M625.118 327.699H586.669" stroke="black"/>
<path d="M604.911 250.072C604.496 251.659 619.119 338.557 619.119 338.557C612.623 337.146 605.912 338.288 604.521 345.285C603.924 348.29 604.916 351.849 607.12 355.372C607.81 356.475 608.619 357.574 609.535 358.651C611.011 360.388 612.766 362.069 614.751 363.618C616.754 365.181 618.991 366.61 621.412 367.827C621.421 367.831 621.43 367.836 621.439 367.84C622.645 368.445 623.978 368.846 625.397 369.079C628.304 369.556 631.573 369.329 634.859 368.709C635.837 368.525 636.816 368.306 637.787 368.06C639.806 367.549 641.792 366.923 643.661 366.257C645.091 365.747 646.453 365.213 647.71 364.689C648.944 364.174 650.077 363.668 651.074 363.201C651.313 363.09 651.544 362.98 651.767 362.874C653.845 361.879 655.207 361.12 655.464 360.943C656.579 360.179 643.989 356.169 641.927 352.501C640.842 350.57 640.012 346.983 639.469 344.019C638.981 341.355 638.725 339.194 638.725 339.194C637.753 335.561 632.411 332.187 624.724 338.739L617.788 294.902L610.516 250.254C610.179 249.443 609.128 248.209 607.676 248.161C606.224 248.114 605.326 248.485 604.911 250.072Z" fill="white"/>
<path d="M624.724 338.739C632.411 332.187 637.753 335.561 638.725 339.194C638.725 339.194 638.981 341.355 639.469 344.019M624.724 338.739L617.788 294.902L610.516 250.254C610.179 249.443 609.128 248.209 607.676 248.161C606.224 248.114 605.326 248.485 604.911 250.072C604.496 251.659 619.119 338.557 619.119 338.557M624.724 338.739C624.634 338.88 624.543 339.01 624.451 339.13M624.724 338.739C628.617 340.333 637.509 345.316 641.927 352.501M624.724 338.739C628.223 337.386 636.07 336.547 639.469 344.019M619.119 338.557C612.623 337.146 605.912 338.288 604.521 345.285C603.924 348.29 604.916 351.849 607.12 355.372M619.119 338.557C615.469 338.972 607.957 342.916 607.12 355.372M619.119 338.557C619.22 338.69 619.335 338.829 619.463 338.968M621.439 367.84C614.572 364.416 617.896 347.72 620.416 339.8M621.439 367.84C622.645 368.445 623.978 368.846 625.397 369.079M621.439 367.84C619.007 366.62 616.761 365.187 614.751 363.618M641.927 352.501C643.989 356.169 656.579 360.179 655.464 360.943C655.207 361.12 653.845 361.879 651.767 362.874M641.927 352.501C640.842 350.57 640.012 346.983 639.469 344.019M624.685 339.938C626.616 346 633.924 359.437 647.71 364.689M647.71 364.689C648.944 364.174 650.077 363.668 651.074 363.201M647.71 364.689C646.453 365.213 645.091 365.747 643.661 366.257M622.33 340.42C623.416 351.728 623.42 370.866 634.859 368.709M622.33 340.42C621.958 340.44 621.593 340.369 621.246 340.238M622.33 340.42C622.778 340.397 623.237 340.243 623.687 339.906M634.859 368.709C631.573 369.329 628.304 369.556 625.397 369.079M634.859 368.709C635.837 368.525 636.816 368.306 637.787 368.06M620.416 339.8C620.203 339.655 620.004 339.494 619.821 339.327M620.416 339.8C620.675 339.976 620.954 340.128 621.246 340.238M607.12 355.372C607.81 356.475 608.619 357.574 609.535 358.651M607.12 355.372C604.265 340.235 614.159 338.129 619.463 338.968M619.821 339.327C616.937 341.785 610.841 349.091 609.535 358.651M619.821 339.327C619.693 339.209 619.573 339.089 619.463 338.968M609.535 358.651C611.011 360.388 612.766 362.069 614.751 363.618M621.246 340.238C620.18 346.941 619.518 362.094 625.397 369.079M623.687 339.906C625.256 348.715 630.272 366.678 637.787 368.06M623.687 339.906C623.946 339.712 624.202 339.456 624.451 339.13M637.787 368.06C639.806 367.549 641.792 366.923 643.661 366.257M624.451 339.13C628.655 345.935 639.865 360.277 651.074 363.201M624.451 339.13C631.515 346.462 646.87 361.474 651.767 362.874M624.451 339.13C627.43 349.16 635.443 368.627 643.661 366.257M651.074 363.201C651.313 363.09 651.544 362.98 651.767 362.874M619.807 339.78C616.567 345.407 611.019 358.052 614.751 363.618" stroke="black"/>
<path d="M622.387 132.265L583.491 106.896C582.583 107.431 581.882 108.12 581.349 108.839C580.373 110.155 579.962 111.572 579.875 112.337L592.954 121.911L593.554 126.256C588.597 133.26 585.34 140.833 584.332 143.745C584.029 144.618 582.316 147.534 582.506 147.926C580.423 151.115 577.075 160.034 580.273 161.745C583.471 163.455 583.79 158.977 586.112 154.667C589.466 146.382 588.895 144.324 588.191 144.33C588.878 138.009 594.179 131.036 596.743 128.339L600.712 127.308L616.906 137.661C618.403 137.921 619.821 136.575 620.881 135.039C621.548 134.071 622.074 133.028 622.387 132.265Z" fill="white"/>
<path d="M581.349 108.839C580.373 110.155 579.962 111.572 579.875 112.337L592.954 121.911L593.554 126.256C588.597 133.26 585.34 140.833 584.332 143.745C584.029 144.618 582.316 147.534 582.506 147.926C580.423 151.115 577.075 160.034 580.273 161.745C583.471 163.455 583.79 158.977 586.112 154.667C589.466 146.382 588.895 144.324 588.191 144.33C588.878 138.009 594.179 131.036 596.743 128.339L600.712 127.308L616.906 137.661C618.403 137.921 619.821 136.575 620.881 135.039M581.349 108.839C581.882 108.12 582.583 107.431 583.491 106.896L622.387 132.265C622.074 133.028 621.548 134.071 620.881 135.039M581.349 108.839L620.881 135.039M584.307 147.723C584.231 148.448 584.648 149.646 586.926 148.63M582.958 149.662C583.176 150.841 584.143 152.796 586.266 151.185M582.05 152.281C582.103 153.503 582.838 155.518 585.358 153.804" stroke="black"/>
<path d="M130.743 288.202C136.389 288.202 134.548 284.166 129.343 271.806L86.693 267.344C86.693 267.344 84.8261 275.782 81.7915 278.079C78.7569 280.377 76.546 280.67 80.686 281.046L82.1915 284.81C83.5715 283.555 87.9877 278.793 88.5898 275.782C89.3241 272.11 87.1934 284.192 86.0404 284.787C86.9318 284.783 89.8992 284.979 90.4717 286.697C90.9735 283.686 92.2783 277.061 93.4827 274.653C94.687 272.244 93.2317 281.176 92.3535 285.944C92.7299 285.693 94.0095 286.471 96.1172 287.073C98.7518 287.826 96.87 278.04 98.3755 273.9L99.5045 288.202C100.257 287.826 102.139 285.869 103.645 287.073L103.645 273.9L105.526 288.202C107.785 286.697 110.796 286.094 112.301 288.202L110.043 273.9C111.548 277.538 114.559 285.492 114.559 288.202C115.939 287.073 119.151 285.492 120.958 288.202L118.699 276.579C120.707 280.202 124.345 287.6 122.839 288.202L122.753 288.236L122.752 288.237C122.734 288.244 122.717 288.25 122.701 288.257L122.7 288.257C123.638 287.925 127.248 286.787 128.147 288.202C129.104 289.707 126.262 280.549 124.721 275.782L130.743 288.202Z" fill="white"/>
<path d="M111.265 261.684C111.265 261.684 136.987 170.359 136.769 168.607C136.551 166.856 134.75 166.266 133.279 166.138C131.808 166.01 130.593 167.204 130.151 168.032L117.177 214.984L104.647 261.109C93.0305 258.366 88.1325 263.571 86.693 267.344L129.343 271.806C129.343 265.243 117.995 260.97 111.265 261.684Z" fill="white"/>
<path d="M129.343 271.806C129.343 265.243 117.995 260.97 111.265 261.684C111.265 261.684 136.987 170.359 136.769 168.607C136.551 166.856 134.75 166.266 133.279 166.138C131.808 166.01 130.593 167.204 130.151 168.032L117.177 214.984L104.647 261.109C93.0305 258.366 88.1325 263.571 86.693 267.344M129.343 271.806C134.548 284.166 136.389 288.202 130.743 288.202L124.721 275.782C126.262 280.549 129.104 289.707 128.147 288.202M129.343 271.806L86.693 267.344M86.693 267.344C86.693 267.344 84.8261 275.782 81.7915 278.079C78.7569 280.377 76.546 280.67 80.686 281.046L82.1915 284.81C83.5715 283.555 87.9877 278.793 88.5898 275.782C89.3241 272.11 87.1934 284.192 86.0404 284.787M122.839 288.202C124.345 287.6 120.707 280.202 118.699 276.579L120.958 288.202C119.151 285.492 115.939 287.073 114.559 288.202C114.559 285.492 111.548 277.538 110.043 273.9L112.301 288.202C110.796 286.094 107.785 286.697 105.526 288.202L103.645 273.9L103.645 287.073C102.139 285.869 100.257 287.826 99.5045 288.202L98.3755 273.9C96.87 278.04 98.7518 287.826 96.1172 287.073C94.0095 286.471 92.7299 285.693 92.3535 285.944C93.2317 281.176 94.687 272.244 93.4827 274.653C92.2783 277.061 90.9735 283.686 90.4717 286.697C89.8992 284.979 86.9318 284.783 86.0404 284.787M122.839 288.202C122.809 288.214 122.78 288.226 122.753 288.236M122.839 288.202L122.753 288.236M128.147 288.202C127.248 286.787 123.638 287.925 122.7 288.257M128.147 288.202C127.248 286.788 123.641 287.924 122.701 288.257M86.0404 284.787C85.7598 284.789 85.6849 284.81 85.9553 284.81C85.983 284.81 86.0114 284.802 86.0404 284.787ZM122.7 288.257L122.701 288.257M122.7 288.257C122.425 288.355 122.38 288.383 122.701 288.257M122.753 288.236L122.752 288.237C122.734 288.244 122.717 288.25 122.701 288.257" stroke="black"/>
</svg>
