<svg width="691" height="379" viewBox="0 0 691 379" fill="none" xmlns="http://www.w3.org/2000/svg">
<path d="M41.8008 311.789L15.8546 294.532C15.6417 293.172 16.0661 290.244 19.467 289.411C22.8679 288.578 26.706 288.059 28.2 287.903L34.641 290.652L36.6538 291.511C37.0743 290.897 38.9382 289.725 43.0304 289.949L113.926 204.091C122.613 197.487 143.37 187.723 156.909 201.494C170.448 215.265 157.639 226.55 146.496 230.36C134.072 234.609 110.584 240.95 115.84 260.943C121.995 261.387 135.218 265.044 138.867 276.118C142.517 287.193 136.978 304.339 133.751 311.528C135.789 316.046 136.821 326.637 124.648 332.864L121.256 331.892L118.609 330.287L116.628 328.49L115.845 326.728L107.681 324.672C100.435 321.58 85.7237 315.018 84.8478 313.502C79.0594 316.362 78.4391 306.961 78.8525 301.903C80.7164 288.613 85.0585 287.896 86.9965 289.199C93.2089 278.911 103.758 269.01 111.134 263.333C109.532 256.78 106.668 252.136 114.789 241.1C116.921 238.203 131.209 230.5 137.355 228.363C143.826 226.114 149.487 224.776 151.944 223.168C154.585 221.44 165.338 214 153.866 203.051C145.75 195.305 133.532 197.547 127.656 200.908L117.436 207.016L47.3459 293.218C48.6188 293.952 49.5441 298.326 48.7949 300.974L52.477 303.497C55.9723 304.227 55.3181 307.247 54.5541 308.665L41.8008 311.789Z" fill="white"/>
<path d="M41.8008 311.789L15.8546 294.532C15.6417 293.172 16.0661 290.244 19.467 289.411C22.8679 288.578 26.706 288.059 28.2 287.903L34.641 290.652L36.6538 291.511C37.0743 290.897 38.9382 289.725 43.0304 289.949L113.926 204.091M41.8008 311.789L54.5541 308.665C55.3181 307.247 55.9723 304.227 52.477 303.497M41.8008 311.789L43.6903 307.361C45.1628 305.769 48.9817 302.766 52.477 303.497M52.477 303.497L48.7949 300.974C49.5441 298.326 48.6188 293.952 47.3459 293.218L117.436 207.016M113.926 204.091L117.436 207.016M113.926 204.091C122.613 197.487 143.37 187.723 156.909 201.494C170.448 215.265 157.639 226.55 146.496 230.36C134.072 234.609 110.584 240.95 115.84 260.943M117.436 207.016L127.656 200.908C133.532 197.547 145.75 195.305 153.866 203.051C165.338 214 154.585 221.44 151.944 223.168C149.487 224.776 143.826 226.114 137.355 228.363C131.209 230.5 116.921 238.203 114.789 241.1C106.668 252.136 109.532 256.78 111.134 263.333M111.134 263.333C112.212 267.746 114.175 270.625 115.24 271.271C117.357 272.555 119.07 270.843 119.662 269.827C118.37 267.615 117.376 265.511 116.647 263.511M111.134 263.333C103.758 269.01 93.2089 278.911 86.9965 289.199M84.8478 313.502C85.7237 315.018 100.435 321.58 107.681 324.672M84.8478 313.502C79.6539 306.614 81.8192 297.772 86.9965 289.199M84.8478 313.502C79.0594 316.362 78.4391 306.961 78.8525 301.903C80.7164 288.613 85.0585 287.896 86.9965 289.199M107.681 324.672C110.208 324.249 114.565 322.553 118.498 318.819M107.681 324.672L115.845 326.728M125.298 307.921C134.039 294.498 144.546 266.824 116.647 263.511M125.298 307.921C124.967 308.926 124.594 309.878 124.186 310.777M125.298 307.921C111.541 317.278 84.6222 326.634 86.9965 289.199M116.647 263.511C116.328 262.635 116.06 261.779 115.84 260.943M115.84 260.943C121.995 261.387 135.218 265.044 138.867 276.118C142.517 287.193 136.978 304.339 133.751 311.528M133.751 311.528C135.789 316.046 136.821 326.637 124.648 332.864M133.751 311.528C119.182 314.447 121.612 326.968 124.648 332.864M133.751 311.528C133.445 309.811 131.104 307.257 124.186 310.777M124.648 332.864L121.256 331.892L118.609 330.287L116.628 328.49L115.845 326.728M115.845 326.728C115.547 325.491 115.661 322.177 118.498 318.819M118.498 318.819C120.642 316.785 122.659 314.145 124.186 310.777" stroke="black"/>
<path d="M380.678 132.27C380.775 131.758 380.909 131.116 381.086 130.407C383.246 117.866 369.804 121.275 377.384 119.985C382.201 119.166 384.857 112.04 385.748 108.96C386.216 107.341 386.197 106.84 385.748 108.96C385.644 109.45 385.518 110.079 385.369 110.866C383.349 121.551 392.711 123.342 387.347 122.549C383.794 122.024 381.939 126.993 381.086 130.407C380.985 130.993 380.85 131.613 380.678 132.27Z" fill="white"/>
<path d="M380.678 132.27C381.242 129.294 383.056 121.914 387.347 122.549C392.711 123.342 383.349 121.551 385.369 110.866C387.389 100.181 385.318 118.636 377.384 119.985C369.45 121.335 384.547 117.538 380.678 132.27Z" stroke="black"/>
<path d="M106.78 136.246C106.789 135.842 106.81 135.334 106.855 134.769C106.912 124.899 97.1056 129.242 102.716 127.277C106.281 126.028 107.402 120.236 107.691 117.765C107.842 116.467 107.764 116.086 107.691 117.765C107.674 118.153 107.657 118.65 107.643 119.271C107.457 127.704 114.815 127.864 110.629 127.951C107.856 128.008 107.072 132.048 106.855 134.769C106.852 135.23 106.828 135.722 106.78 136.246Z" fill="white"/>
<path d="M106.78 136.246C106.833 133.898 107.28 128.02 110.629 127.951C114.815 127.864 107.457 127.704 107.643 119.271C107.829 110.839 108.588 125.22 102.716 127.277C96.8437 129.334 107.862 124.48 106.78 136.246Z" stroke="black"/>
<path d="M678.601 176.845C678.616 176.228 678.65 175.452 678.721 174.588C678.856 159.514 664.02 166.194 672.504 163.166C677.896 161.241 679.617 152.389 680.065 148.614C680.301 146.63 680.185 146.049 680.065 148.614C680.038 149.206 680.01 149.966 679.986 150.915C679.665 163.795 690.779 164.004 684.455 164.156C680.266 164.257 679.063 170.431 678.721 174.588C678.715 175.292 678.676 176.043 678.601 176.845Z" fill="white"/>
<path d="M678.601 176.845C678.692 173.258 679.396 164.278 684.455 164.156C690.779 164.004 679.665 163.795 679.986 150.915C680.307 138.035 681.385 159.996 672.504 163.166C663.624 166.335 680.291 158.869 678.601 176.845Z" stroke="black"/>
<path d="M201.255 73.3809C201.437 73.9738 201.65 74.7237 201.845 75.5662C206.601 89.9941 222.431 79.8077 213.119 84.8769C207.202 88.0986 208.002 96.9931 208.69 100.712C209.051 102.667 209.382 103.192 208.69 100.712C208.53 100.14 208.316 99.4071 208.035 98.495C204.221 86.1146 190.662 88.7676 198.289 86.9989C203.341 85.8273 202.787 79.6231 201.845 75.5662C201.623 74.8927 201.425 74.1656 201.255 73.3809Z" fill="white"/>
<path d="M201.255 73.3809C202.315 76.8293 204.391 85.584 198.289 86.9989C190.662 88.7676 204.221 86.1146 208.035 98.495C211.848 110.875 203.374 90.1828 213.119 84.8769C222.865 79.571 205.069 90.9783 201.255 73.3809Z" stroke="black"/>
<path d="M285.385 288.361C285.699 289.021 286.082 289.859 286.479 290.809C294.358 306.802 303.496 291.828 297.85 299.555C294.262 304.466 297.486 314.735 299.105 318.96C299.956 321.182 300.363 321.733 299.105 318.96C298.814 318.32 298.435 317.503 297.952 316.488C291.396 302.713 281.786 308.424 287.11 304.888C290.638 302.545 288.391 295.382 286.479 290.809C286.111 290.062 285.746 289.248 285.385 288.361Z" fill="white"/>
<path d="M285.385 288.361C287.209 292.199 291.37 302.059 287.11 304.888C281.786 308.424 291.396 302.713 297.952 316.488C304.508 330.263 291.941 307.643 297.85 299.555C303.76 291.467 293.473 308.25 285.385 288.361Z" stroke="black"/>
<path d="M491.721 193.17C491.609 193.997 491.483 195.043 491.375 196.217C488.405 216.365 475.25 202.759 482.936 209.484C487.821 213.758 487.686 226.11 487.348 231.286C487.17 234.007 486.937 234.745 487.348 231.286C487.443 230.488 487.572 229.466 487.744 228.193C490.079 210.912 501.006 214.152 494.844 211.946C490.762 210.486 490.854 201.87 491.375 196.217C491.513 195.277 491.63 194.263 491.721 193.17Z" fill="white"/>
<path d="M491.721 193.17C491.072 197.983 489.914 210.182 494.844 211.946C501.006 214.152 490.079 210.912 487.744 228.193C485.409 245.473 490.981 216.523 482.936 209.484C474.891 202.445 489.679 217.68 491.721 193.17Z" stroke="black"/>
<path d="M356.78 291.557C344.831 296.021 351.627 300.882 357.949 299.378L486.002 268.906C495.67 263.661 488.944 260.108 481.886 261.788L419.333 276.673L356.78 291.557Z" fill="white" stroke="black"/>
<path d="M377.094 342.51L357.119 299.575L486.414 268.808L487.588 316.217L377.094 342.51Z" fill="white" stroke="black"/>
<path d="M379.585 314.474C375.538 297.468 368.44 290.829 374.074 285.642C383.3 277.148 388.132 285.119 400.755 277.61C413.377 270.101 419.092 276.791 419.092 276.791C404.636 285.514 416.001 295.873 418.494 326.734C400.992 336.785 398.977 335.465 388.609 333.846C378.46 332.26 384.51 329.498 379.585 314.474Z" fill="white" stroke="black"/>
<path d="M135.061 98.424C134.588 100.823 137.536 102.857 138.744 100.842L150.246 66.6647C158.577 69.3575 173.06 70.7626 164.345 54.8409C170.04 53.4027 178.334 48.3164 165.952 39.4756C171.724 37.4718 180.573 32.5206 169.79 28.7469C174.5 26.299 180.936 21.2022 169 20.3983C171.178 17.2361 173.384 10.8141 164.775 10.4234C163.96 10.4392 161.208 10.7117 156.716 11.6751C152.002 8.1939 144.385 4.67426 151.628 18.4451C145.995 16.9944 137.436 16.8285 148.269 27.7705C141.855 31.3135 132.411 39.8674 145.947 45.7385C136.609 50.7322 123.708 61.484 146.809 64.5408L135.061 98.424Z" fill="white"/>
<path d="M150.246 66.6647L138.744 100.842C137.536 102.857 134.588 100.823 135.061 98.424L146.809 64.5408M150.246 66.6647C158.577 69.3575 173.06 70.7626 164.345 54.8409C170.04 53.4028 178.334 48.3164 165.952 39.4756C171.724 37.4718 180.573 32.5206 169.79 28.7469C174.5 26.299 180.936 21.2022 169 20.3983C171.178 17.2361 173.384 10.8141 164.775 10.4234C163.96 10.4392 161.208 10.7117 156.716 11.6751C152.002 8.1939 144.385 4.67426 151.628 18.4451C145.995 16.9944 137.436 16.8285 148.269 27.7705C141.855 31.3135 132.411 39.8674 145.947 45.7385C136.609 50.7322 123.708 61.484 146.809 64.5408M150.246 66.6647L146.809 64.5408" stroke="black"/>
<path d="M185.996 267.812C184.49 265.553 182.232 267.059 184.022 269.406L210.94 315.162L211.731 316.506L212.522 317.851L213.392 319.33L214.153 320.624L214.89 321.876L215.626 323.128L216.22 324.137C216.536 324.471 216.839 324.744 217.126 324.961C217.674 325.374 218.166 325.585 218.589 325.635C219.235 325.711 219.723 325.413 220.009 324.887C220.143 324.64 220.232 324.343 220.273 324.012C220.353 323.359 220.273 322.762 219.912 321.764L219.15 320.469L218.389 319.175L216.866 316.586L215.937 315.007L215.343 313.998L214.691 312.888L185.996 267.812Z" fill="white" stroke="black"/>
<path d="M192.503 276.275L188.282 278.813L181.687 267.847C180.764 261.814 184.488 264.259 185.908 265.309L192.503 276.275Z" fill="white" stroke="black"/>
<path d="M191.546 274.656L199.289 272.197C197.561 271.875 197.166 271.247 197.544 269.294L190.77 273.366L189.995 272.075L197.157 268.649C195.616 268.155 195.235 267.511 195.411 265.745L189.413 271.108L188.056 268.85L195.024 265.1C194.098 264.047 192.247 264.134 193.278 262.197L187.28 267.559L188.056 268.85L189.413 271.108L189.995 272.075L190.77 273.366L191.546 274.656Z" fill="white"/>
<path d="M186.31 265.946L192.697 261.229C191.686 261.252 189.804 259.631 190.113 258.391L185.729 264.979L184.308 264.076L188.369 257.683C187.251 258.501 184.613 258.447 184.044 256.331L183.598 263.625L184.308 264.076L185.729 264.979L186.31 265.946Z" fill="white"/>
<path d="M180.881 256.914L182.759 263.69L181.791 264.272L177.655 258.853C178.792 259.575 180.28 257.861 180.881 256.914Z" fill="white"/>
<path d="M181.533 265.305L176.624 260.79C176.582 261.694 176.097 263.566 174.497 263.826L181.276 266.338L181.535 267.499L173.788 265.569C174.456 266.924 175.328 269.738 173.469 270.152L182.311 268.79L183.086 270.08L175.084 271.377C175.923 272.044 177.358 273.699 176.378 274.991L183.668 271.048L184.444 272.338L177.282 275.765C177.928 276.109 179.116 277.209 178.704 278.862L185.219 273.628L186.383 275.564L179.286 279.83C179.483 280.784 181.779 281.928 181.548 282.862L187.352 277.177L186.383 275.564L185.219 273.628L184.444 272.338L183.668 271.048L183.086 270.08L182.311 268.79L181.535 267.499L181.276 266.338L181.533 265.305Z" fill="white"/>
<path d="M190.77 273.366L197.544 269.294C197.166 271.247 197.561 271.875 199.289 272.197L191.546 274.656L190.77 273.366ZM190.77 273.366L189.995 272.075M189.995 272.075L197.157 268.649C195.616 268.155 195.235 267.511 195.411 265.745L189.413 271.108M189.995 272.075L189.413 271.108M189.413 271.108L188.056 268.85M188.056 268.85L195.024 265.1C194.098 264.047 192.247 264.134 193.278 262.197L187.28 267.559L188.056 268.85ZM185.729 264.979L190.113 258.391C189.804 259.631 191.686 261.252 192.697 261.229L186.31 265.946L185.729 264.979ZM185.729 264.979L184.308 264.076M184.308 264.076L188.369 257.683C187.251 258.501 184.613 258.447 184.044 256.331L183.598 263.625L184.308 264.076ZM181.276 266.338L174.497 263.826C176.097 263.566 176.582 261.694 176.624 260.79L181.533 265.305L181.276 266.338ZM181.276 266.338L181.535 267.499M181.535 267.499L173.788 265.569C174.456 266.924 175.328 269.738 173.469 270.152L182.311 268.79M181.535 267.499L182.311 268.79M182.311 268.79L183.086 270.08M183.086 270.08L175.084 271.377C175.923 272.044 177.358 273.699 176.378 274.991L183.668 271.048M183.086 270.08L183.668 271.048M183.668 271.048L184.444 272.338M184.444 272.338L177.282 275.765C177.928 276.109 179.116 277.209 178.704 278.862L185.219 273.628M184.444 272.338L185.219 273.628M185.219 273.628L186.383 275.564M186.383 275.564L179.286 279.83C179.483 280.784 181.779 281.928 181.548 282.862C183.814 280.641 185.085 279.397 187.352 277.177L186.383 275.564ZM182.759 263.69L180.881 256.914C180.28 257.861 178.792 259.575 177.655 258.853L181.791 264.272L182.759 263.69Z" stroke="black"/>
<path d="M217.796 321.13C217.158 320.652 215.968 320.149 216.313 321.959C216.743 324.221 220.183 323.41 217.796 321.13Z" fill="white" stroke="black"/>
<path d="M442.7 30.9904L441.172 36.4253C440.184 39.0145 439.437 46.8843 441.911 51.8801C443.706 55.5067 444.84 61.7839 445.536 65.4097C448.867 82.7663 438.586 84.568 433.514 83.1421L410.687 76.7256C402.602 72.1073 406.117 62.5395 412.201 56.0396C414.809 53.254 420.956 48.7136 423.896 46.4253C427.899 43.3099 429.699 37.3705 430.665 33.4717L432.193 28.0368C432.898 25.5282 432.606 23.567 431.781 22.0568C428.356 28.2877 418.922 31.3435 414.632 32.0926C418.594 29.8178 426.756 23.9283 427.717 18.5686C426.598 18.0768 425.467 17.7952 424.549 17.678L420.201 16.4558C419.276 13.0683 421.241 9.97174 422.339 8.84691C423.912 9.05354 425.411 9.28005 426.841 9.52446C452.015 13.8285 455.556 23.6839 454.011 28.3054C444.191 24.2942 442.379 28.424 442.7 30.9904Z" fill="white"/>
<path d="M432.193 28.0368L442.7 30.9904M432.193 28.0368L430.665 33.4717M432.193 28.0368C432.898 25.5282 432.606 23.567 431.781 22.0568M442.7 30.9904L441.172 36.4253M442.7 30.9904C442.379 28.424 444.191 24.2942 454.011 28.3054C455.556 23.6839 452.015 13.8285 426.841 9.52446M441.172 36.4253L430.665 33.4717M441.172 36.4253C440.184 39.0145 439.437 46.8843 441.911 51.8801C443.706 55.5067 444.84 61.7839 445.536 65.4097C448.867 82.7663 438.586 84.568 433.514 83.1421L410.687 76.7256C402.602 72.1073 406.117 62.5395 412.201 56.0396C414.809 53.254 420.956 48.7136 423.896 46.4253C427.899 43.3099 429.699 37.3705 430.665 33.4717M424.549 17.678L420.201 16.4558C419.276 13.0683 421.241 9.97174 422.339 8.84691C423.912 9.05354 425.411 9.28005 426.841 9.52446M424.549 17.678L426.841 9.52446M424.549 17.678C425.467 17.7952 426.598 18.0768 427.717 18.5686M431.781 22.0568C428.356 28.2877 418.922 31.3435 414.632 32.0926C418.594 29.8178 426.756 23.9283 427.717 18.5686M431.781 22.0568C430.869 20.3847 429.304 19.2656 427.717 18.5686" stroke="black"/>
<path d="M530.263 69.6479C534.201 76.0383 522.596 79.3992 516.302 80.2808C508.532 84.3509 504.258 85.3148 502.11 85.1077C501.063 85.0067 500.562 84.6802 500.092 84.2929C500.009 84.2281 499.928 84.16 499.85 84.0884C499.193 83.4912 498.679 82.6582 498.03 81.6056C497.045 80.008 497.603 77.9469 498.166 77.0204C499.017 75.376 502.255 72.1563 508.393 72.4326C510.557 72.9183 512.617 73.0567 513.901 72.2922C522.83 65.0648 528.298 67.5875 530.263 69.6479Z" fill="white"/>
<path d="M530.263 69.6479C534.201 76.0383 522.596 79.3992 516.302 80.2808C508.532 84.3509 504.258 85.3148 502.11 85.1077M530.263 69.6479C528.298 67.5875 522.83 65.0648 513.901 72.2922C512.617 73.0567 510.557 72.9183 508.393 72.4326C502.255 72.1563 499.017 75.376 498.166 77.0204C497.603 77.9469 497.045 80.008 498.03 81.6056M530.263 69.6479C530.527 70.5296 529.904 72.8201 525.29 74.9291C519.522 77.5654 516.079 76.182 515.049 76.1128C514.225 76.0575 513.78 76.3679 513.661 76.53C505.944 83.0902 500.025 82.6472 498.03 81.6056M498.03 81.6056C499.251 83.5872 499.996 84.7904 502.11 85.1077M498.03 81.6056L499.85 84.0884C500.406 84.5611 500.883 84.9893 502.11 85.1077" stroke="black"/>
<path d="M497.191 90.5677C500.523 89.5664 500.76 86.2132 500.462 84.6617C502.303 85.0609 507.991 84.6848 516.019 79.987C517.38 80.1468 522.078 79.4559 529.977 75.4142C531.405 76.2475 534.302 78.053 534.469 78.6087C534.636 79.1644 533.443 79.6742 532.826 79.8596C533.204 79.9985 534.002 80.4151 534.169 80.9708C534.336 81.5266 532.836 82.129 532.064 82.3608L527.677 79.5136L530.467 82.0834L527.182 84.5852L523.824 81.8072L525.794 85.0024L523.48 85.6977C518.619 85.6434 515.762 86.8808 514.941 87.5063L512.509 84.4501L513.761 88.6181L507.953 91.1206L506.238 87.0917L506.819 90.7041L505.431 91.1213L505.242 90.495C505.225 90.7571 505.145 91.0206 504.968 91.2604C504.394 92.0386 503.047 91.5851 502.445 91.261L502.073 88.3433L500.385 91.1226L497.191 90.5677Z" fill="white"/>
<path d="M500.462 84.6617C500.76 86.2132 500.523 89.5664 497.191 90.5677L500.385 91.1226L502.073 88.3433L502.445 91.261C503.047 91.5851 504.394 92.0386 504.968 91.2604C505.541 90.4821 505.098 89.4541 504.804 89.0373L505.431 91.1213L506.819 90.7041L506.238 87.0917L507.953 91.1206L513.761 88.6181L512.509 84.4501L514.941 87.5063C515.762 86.8808 518.619 85.6434 523.48 85.6977L525.794 85.0024L523.824 81.8072L527.182 84.5852L530.467 82.0834L527.677 79.5136L532.064 82.3608C532.836 82.129 534.336 81.5266 534.169 80.9708C534.002 80.4151 533.204 79.9985 532.826 79.8596C533.443 79.6742 534.636 79.1644 534.469 78.6087C534.302 78.053 531.405 76.2475 529.977 75.4142C522.078 79.4559 517.38 80.1468 516.019 79.987C507.991 84.6848 502.303 85.0609 500.462 84.6617Z" stroke="black"/>
<path d="M239.134 48.8052C242.809 45.6615 247.458 44.6268 249.111 44.592L250.358 47.5469L251.339 49.8686L251.003 50.259L251.627 51.7364C253.815 52.968 259.327 55.3988 263.875 55.269C268.422 55.1392 271.602 59.5498 272.624 61.7712L275.935 67.8343L278.876 74.7994C280.312 76.7793 278.233 81.3715 277.058 83.5256C278.23 84.5231 282.012 88.1487 283.205 90.3807C286.023 97.6466 283.078 102.124 281.985 104.077C274.868 107.166 261.763 112.816 261.182 112.862C260.456 112.92 258.011 112.461 253.647 109.827C249.283 107.193 248.725 100.067 249.327 97.2264C249.928 94.3859 249.255 90.5415 248.843 88.9744C246.181 82.4719 240.349 69.3327 240.019 68.079C239.608 66.5119 242.02 59.3341 242.296 58.6617C242.542 58.0603 242.756 56.3949 242.712 55.5014L242.13 54.1242C241.873 54.1933 241.645 54.2495 241.451 54.2929L239.134 48.8052Z" fill="white"/>
<path d="M239.134 48.8052C241.17 48.6914 246.356 47.546 249.111 44.592M239.134 48.8052C242.809 45.6615 247.458 44.6268 249.111 44.592M239.134 48.8052L241.451 54.2929C241.645 54.2495 241.873 54.1933 242.13 54.1242M249.111 44.592L250.358 47.5469L251.339 49.8686L251.003 50.259M251.003 50.259C247.801 52.3152 244.102 53.5957 242.13 54.1242M251.003 50.259L251.627 51.7364C253.815 52.968 259.327 55.3988 263.875 55.269C268.422 55.1392 271.602 59.5498 272.624 61.7712L275.935 67.8343L278.876 74.7994C280.312 76.7793 278.233 81.3715 277.058 83.5256C278.23 84.5231 282.012 88.1487 283.205 90.3807C286.023 97.6466 283.078 102.124 281.985 104.077C274.868 107.166 261.763 112.816 261.182 112.862C260.456 112.92 258.011 112.461 253.647 109.827C249.283 107.193 248.725 100.067 249.327 97.2264C249.928 94.3859 249.255 90.5415 248.843 88.9744C246.181 82.4719 240.349 69.3327 240.019 68.079C239.608 66.5119 242.02 59.3341 242.296 58.6617C242.542 58.0603 242.756 56.3949 242.712 55.5014L242.13 54.1242M263.446 60.1757C264.206 59.606 266.082 59.311 267.254 60.3085C268.425 61.306 267.432 60.7306 271.825 67.58C275.34 73.0596 275.211 77.1763 274.495 78.6394C273.853 79.4904 271.882 80.3894 269.124 77.1766C266.367 73.9639 264.045 67.7154 263.229 64.9927C262.76 63.6156 262.306 61.0301 263.446 60.1757ZM253.726 86.9126L245.992 69.7846C245.153 67.4031 245.208 61.4113 252.467 60.8326C258.275 60.3697 259.408 66.6063 260.923 70.1944L266.627 83.7026C274.719 89.2391 279.757 98.8006 270.205 102.835C266.226 105.261 258.461 108.788 255.121 98.5098C255.121 98.5098 254.141 96.1881 254.513 92.9223C254.884 89.6565 254.528 88.8122 254.528 88.8122L253.726 86.9126Z" stroke="black"/>
<path d="M600.669 226.381H639.118C641.762 226.381 644 229.926 639.118 231.699L636.066 265.381H604.636L604.135 261.132C602.344 261.134 600.866 260.409 599.448 259.176C593.504 254.008 600.192 242.43 600.669 231.699C598.431 231.601 595.786 227.563 600.669 226.381Z" fill="white"/>
<path d="M639.118 231.699C644 229.926 641.762 226.381 639.118 226.381H600.669C595.786 227.563 598.431 231.601 600.669 231.699M639.118 231.699L636.066 265.381H604.636L600.669 231.699M639.118 231.699C612.399 260.594 605.392 264.344 599.448 259.176C593.504 254.008 600.192 242.43 600.669 231.699M639.118 231.699H600.669" stroke="black"/>
<path d="M618.911 154.072C618.496 155.659 633.119 242.557 633.119 242.557C626.623 241.146 619.912 242.288 618.521 249.285C617.924 252.29 618.916 255.849 621.12 259.372C621.81 260.475 622.619 261.574 623.535 262.651C625.011 264.388 626.766 266.069 628.751 267.618C630.754 269.181 632.991 270.61 635.412 271.827C635.421 271.831 635.43 271.836 635.439 271.84C636.645 272.445 637.978 272.846 639.397 273.079C642.304 273.556 645.573 273.329 648.859 272.709C649.837 272.525 650.816 272.306 651.787 272.06C653.806 271.549 655.792 270.923 657.661 270.257C659.091 269.747 660.453 269.213 661.71 268.689C662.944 268.174 664.077 267.668 665.074 267.201C665.313 267.09 665.544 266.98 665.767 266.874C667.845 265.879 669.207 265.12 669.464 264.943C670.579 264.179 657.989 260.169 655.927 256.501C654.842 254.57 654.012 250.983 653.469 248.019C652.981 245.355 652.725 243.194 652.725 243.194C651.753 239.561 646.411 236.187 638.724 242.739L631.788 198.902L624.516 154.254C624.179 153.443 623.128 152.209 621.676 152.161C620.224 152.114 619.326 152.485 618.911 154.072Z" fill="white"/>
<path d="M638.724 242.739C646.411 236.187 651.753 239.561 652.725 243.194C652.725 243.194 652.981 245.355 653.469 248.019M638.724 242.739L631.788 198.902L624.516 154.254C624.179 153.443 623.128 152.209 621.676 152.161C620.224 152.114 619.326 152.485 618.911 154.072C618.496 155.659 633.119 242.557 633.119 242.557M638.724 242.739C638.634 242.88 638.543 243.01 638.451 243.13M638.724 242.739C642.617 244.333 651.509 249.316 655.927 256.501M638.724 242.739C642.223 241.386 650.07 240.547 653.469 248.019M633.119 242.557C626.623 241.146 619.912 242.288 618.521 249.285C617.924 252.29 618.916 255.849 621.12 259.372M633.119 242.557C629.469 242.972 621.957 246.916 621.12 259.372M633.119 242.557C633.22 242.69 633.335 242.829 633.463 242.968M635.439 271.84C628.572 268.416 631.896 251.72 634.416 243.8M635.439 271.84C636.645 272.445 637.978 272.846 639.397 273.079M635.439 271.84C633.007 270.62 630.761 269.187 628.751 267.618M655.927 256.501C657.989 260.169 670.579 264.179 669.464 264.943C669.207 265.12 667.845 265.879 665.767 266.874M655.927 256.501C654.842 254.57 654.012 250.983 653.469 248.019M638.685 243.938C640.616 250 647.924 263.437 661.71 268.689M661.71 268.689C662.944 268.174 664.077 267.668 665.074 267.201M661.71 268.689C660.453 269.213 659.091 269.747 657.661 270.257M636.33 244.42C637.416 255.728 637.42 274.866 648.859 272.709M636.33 244.42C635.958 244.44 635.593 244.369 635.246 244.238M636.33 244.42C636.778 244.397 637.237 244.243 637.687 243.906M648.859 272.709C645.573 273.329 642.304 273.556 639.397 273.079M648.859 272.709C649.837 272.525 650.816 272.306 651.787 272.06M634.416 243.8C634.203 243.655 634.004 243.494 633.821 243.327M634.416 243.8C634.675 243.976 634.954 244.128 635.246 244.238M621.12 259.372C621.81 260.475 622.619 261.574 623.535 262.651M621.12 259.372C618.265 244.235 628.159 242.129 633.463 242.968M633.821 243.327C630.937 245.785 624.841 253.091 623.535 262.651M633.821 243.327C633.693 243.209 633.573 243.089 633.463 242.968M623.535 262.651C625.011 264.388 626.766 266.069 628.751 267.618M635.246 244.238C634.18 250.941 633.518 266.094 639.397 273.079M637.687 243.906C639.256 252.715 644.272 270.678 651.787 272.06M637.687 243.906C637.946 243.712 638.202 243.456 638.451 243.13M651.787 272.06C653.806 271.549 655.792 270.923 657.661 270.257M638.451 243.13C642.655 249.935 653.865 264.277 665.074 267.201M638.451 243.13C645.515 250.462 660.87 265.474 665.767 266.874M638.451 243.13C641.43 253.16 649.443 272.627 657.661 270.257M665.074 267.201C665.313 267.09 665.544 266.98 665.767 266.874M633.807 243.78C630.567 249.407 625.019 262.052 628.751 267.618" stroke="black"/>
<path d="M660.952 80.2333L622.057 54.8644C621.148 55.3999 620.447 56.0886 619.914 56.8075C618.939 58.1235 618.527 59.5409 618.44 60.3054L631.52 69.8794L632.119 74.2245C627.162 81.2286 623.906 88.802 622.897 91.7133C622.595 92.5866 620.882 95.5027 621.072 95.8945C618.988 99.0837 615.64 108.003 618.839 109.713C622.037 111.424 622.356 106.946 624.677 102.636C628.031 94.3504 627.461 92.2923 626.756 92.2988C627.443 85.9777 632.744 79.0045 635.309 76.308L639.277 75.2766L655.471 85.6296C656.968 85.8901 658.386 84.5437 659.446 83.0078C660.114 82.04 660.639 80.997 660.952 80.2333Z" fill="white"/>
<path d="M619.914 56.8075C618.939 58.1235 618.527 59.5409 618.44 60.3054L631.52 69.8794L632.119 74.2245C627.162 81.2286 623.906 88.802 622.897 91.7133C622.595 92.5866 620.882 95.5027 621.072 95.8945C618.988 99.0837 615.64 108.003 618.839 109.713C622.037 111.424 622.356 106.946 624.677 102.636C628.031 94.3504 627.461 92.2923 626.756 92.2988C627.443 85.9777 632.744 79.0045 635.309 76.308L639.277 75.2766L655.471 85.6296C656.968 85.8901 658.386 84.5437 659.446 83.0078M619.914 56.8075C620.447 56.0886 621.148 55.3999 622.057 54.8644L660.952 80.2333C660.639 80.997 660.114 82.04 659.446 83.0078M619.914 56.8075L659.446 83.0078M622.872 95.6913C622.796 96.4171 623.213 97.6148 625.491 96.5992M621.523 97.6306C621.741 98.8095 622.708 100.764 624.831 99.1536M620.615 100.249C620.668 101.471 621.403 103.487 623.923 101.772" stroke="black"/>
<path d="M53.7432 184.202C59.3888 184.202 57.5484 180.166 52.3431 167.806L9.69304 163.344C9.69304 163.344 7.82607 171.782 4.7915 174.079C1.75693 176.377 -0.454046 176.67 3.68603 177.046L5.19147 180.81C6.57152 179.555 10.9877 174.793 11.5898 171.782C12.3241 168.11 10.1934 180.192 9.0404 180.787C9.93179 180.783 12.8992 180.979 13.4717 182.697C13.9735 179.686 15.2783 173.061 16.4827 170.653C17.687 168.244 16.2317 177.176 15.3535 181.944C15.7299 181.693 17.0095 182.471 19.1172 183.073C21.7518 183.826 19.87 174.04 21.3755 169.9L22.5045 184.202C23.2572 183.826 25.1392 181.869 26.6446 183.073L26.6446 169.9L28.5264 184.202C30.7846 182.697 33.7956 182.094 35.3011 184.202L33.0428 169.9C34.5483 173.538 37.5593 181.492 37.5593 184.202C38.9393 183.073 42.151 181.492 43.9576 184.202L41.6993 172.579C43.7067 176.202 47.3449 183.6 45.8394 184.202L45.753 184.236L45.752 184.237C45.7342 184.244 45.7173 184.25 45.7014 184.257L45.7003 184.257C46.6384 183.925 50.2478 182.787 51.1469 184.202C52.1039 185.707 49.2619 176.549 47.7213 171.782L53.7432 184.202Z" fill="white"/>
<path d="M34.2646 157.684C34.2646 157.684 59.9871 66.3588 59.7689 64.6072C59.5508 62.8556 57.7498 62.2658 56.2791 62.1379C54.8084 62.0101 53.5932 63.2039 53.1508 64.0317L40.1774 110.984L27.6465 157.109C16.0305 154.366 11.1325 159.571 9.69304 163.344L52.3431 167.806C52.3431 161.243 40.9949 156.97 34.2646 157.684Z" fill="white"/>
<path d="M52.3431 167.806C52.3431 161.243 40.9949 156.97 34.2646 157.684C34.2646 157.684 59.9871 66.3588 59.7689 64.6072C59.5508 62.8556 57.7498 62.2658 56.2791 62.1379C54.8084 62.0101 53.5932 63.2039 53.1508 64.0317L40.1774 110.984L27.6465 157.109C16.0305 154.366 11.1325 159.571 9.69304 163.344M52.3431 167.806C57.5484 180.166 59.3888 184.202 53.7432 184.202L47.7213 171.782C49.2619 176.549 52.1039 185.707 51.1469 184.202M52.3431 167.806L9.69304 163.344M9.69304 163.344C9.69304 163.344 7.82607 171.782 4.7915 174.079C1.75693 176.377 -0.454046 176.67 3.68603 177.046L5.19147 180.81C6.57152 179.555 10.9877 174.793 11.5898 171.782C12.3241 168.11 10.1934 180.192 9.0404 180.787M45.8394 184.202C47.3449 183.6 43.7067 176.202 41.6993 172.579L43.9576 184.202C42.151 181.492 38.9393 183.073 37.5593 184.202C37.5593 181.492 34.5483 173.538 33.0428 169.9L35.3011 184.202C33.7956 182.094 30.7846 182.697 28.5264 184.202L26.6446 169.9L26.6446 183.073C25.1392 181.869 23.2572 183.826 22.5045 184.202L21.3755 169.9C19.87 174.04 21.7518 183.826 19.1172 183.073C17.0095 182.471 15.7299 181.693 15.3535 181.944C16.2317 177.176 17.687 168.244 16.4827 170.653C15.2783 173.061 13.9735 179.686 13.4717 182.697C12.8992 180.979 9.93179 180.783 9.0404 180.787M45.8394 184.202C45.8085 184.214 45.7797 184.226 45.753 184.236M45.8394 184.202L45.753 184.236M51.1469 184.202C50.2478 182.787 46.6384 183.925 45.7003 184.257M51.1469 184.202C50.2481 182.788 46.6411 183.924 45.7014 184.257M9.0404 180.787C8.75978 180.789 8.68491 180.81 8.95525 180.81C8.98297 180.81 9.01138 180.802 9.0404 180.787ZM45.7003 184.257L45.7014 184.257M45.7003 184.257C45.4248 184.355 45.3798 184.383 45.7014 184.257M45.753 184.236L45.752 184.237C45.7342 184.244 45.7173 184.25 45.7014 184.257" stroke="black"/>
</svg>
