<svg width="756" height="396" viewBox="0 0 756 396" fill="none" xmlns="http://www.w3.org/2000/svg">
<path d="M26.4391 314.311L4.52563 292.156C4.59256 290.782 5.60119 288.001 9.10029 287.874C12.5994 287.747 16.4632 288.015 17.9577 288.166L23.7086 292.161L25.5057 293.41C26.0418 292.894 28.1044 292.125 32.0666 293.172L118.882 223.452C128.726 218.745 151.031 213.387 161.5 229.615C171.969 245.842 157.14 254.299 145.456 255.774C132.429 257.418 108.144 258.871 109.241 279.514C115.179 281.195 127.387 287.454 128.718 299.038C130.05 310.622 121.152 326.291 116.537 332.678C117.618 337.515 116.483 348.096 103.301 351.728L100.176 350.089L97.9092 347.982L96.3333 345.821L95.923 343.937L88.3447 340.27C81.8749 335.775 68.7978 326.368 68.247 324.707C61.9994 326.335 63.2959 317.003 64.7252 312.133C69.2421 299.496 73.6394 299.674 75.2734 301.342C83.4405 292.526 95.7762 284.967 104.149 280.901C103.908 274.16 102.044 269.032 112.232 259.869C114.906 257.464 130.458 252.814 136.909 251.967C143.701 251.075 149.517 250.911 152.248 249.834C155.184 248.676 167.222 243.569 158.204 230.523C151.826 221.294 139.407 221.014 132.972 223.116L121.727 227.028L35.6305 297.247C36.7284 298.224 36.7487 302.695 35.4787 305.136L38.5735 308.352C41.8485 309.775 40.5962 312.6 39.5607 313.835L26.4391 314.311Z" fill="white"/>
<path d="M26.4391 314.311L4.52563 292.156C4.59256 290.782 5.60119 288.001 9.10029 287.874C12.5994 287.747 16.4632 288.015 17.9577 288.166L23.7086 292.161L25.5057 293.41C26.0418 292.894 28.1044 292.125 32.0666 293.172L118.882 223.452M26.4391 314.311L39.5607 313.835C40.5962 312.6 41.8485 309.775 38.5735 308.352M26.4391 314.311L29.1862 310.357C30.9507 309.096 35.2985 306.93 38.5735 308.352M38.5735 308.352L35.4787 305.136C36.7487 302.695 36.7284 298.224 35.6305 297.247L121.727 227.028M118.882 223.452L121.727 227.028M118.882 223.452C128.726 218.745 151.031 213.387 161.5 229.615C171.969 245.842 157.14 254.299 145.456 255.774C132.429 257.418 108.144 258.871 109.241 279.514M121.727 227.028L132.972 223.116C139.407 221.014 151.826 221.294 158.204 230.523C167.222 243.569 155.184 248.676 152.248 249.834C149.517 250.911 143.701 251.075 136.909 251.967C130.458 252.814 114.906 257.464 112.232 259.869C102.044 269.032 103.908 274.16 104.149 280.901M104.149 280.901C104.311 285.442 105.65 288.658 106.562 289.506C108.375 291.192 110.4 289.863 111.186 288.988C110.368 286.56 109.821 284.298 109.512 282.192M104.149 280.901C95.7762 284.967 83.4405 292.526 75.2734 301.342M68.247 324.707C68.7978 326.368 81.8749 335.775 88.3447 340.27M68.247 324.707C64.5559 316.909 68.467 308.689 75.2734 301.342M68.247 324.707C61.9994 326.335 63.2959 317.003 64.7252 312.133C69.2421 299.496 73.6394 299.674 75.2734 301.342M88.3447 340.27C90.9045 340.367 95.5151 339.589 100.123 336.729M88.3447 340.27L95.923 343.937M108.989 327.433C120.267 316.059 136.162 291.087 109.512 282.192M108.989 327.433C108.461 328.351 107.903 329.207 107.322 330.006M108.989 327.433C93.6224 333.811 65.3663 337.521 75.2734 301.342M109.512 282.192C109.377 281.27 109.287 280.377 109.241 279.514M109.241 279.514C115.179 281.195 127.387 287.454 128.718 299.038C130.05 310.622 121.152 326.291 116.537 332.678M116.537 332.678C117.618 337.515 116.483 348.096 103.301 351.728M116.537 332.678C101.678 332.586 101.522 345.34 103.301 351.728M116.537 332.678C116.585 330.935 114.809 327.96 107.322 330.006M103.301 351.728L100.176 350.089L97.9092 347.982L96.3333 345.821L95.923 343.937M95.923 343.937C95.8822 342.665 96.6651 339.443 100.123 336.729M100.123 336.729C102.634 335.171 105.145 332.995 107.322 330.006" stroke="black"/>
<path d="M421.678 140.27C421.775 139.758 421.909 139.116 422.086 138.407C424.246 125.866 410.804 129.275 418.384 127.985C423.201 127.166 425.857 120.04 426.748 116.96C427.216 115.341 427.197 114.84 426.748 116.96C426.644 117.45 426.518 118.079 426.369 118.866C424.349 129.551 433.711 131.342 428.347 130.549C424.794 130.024 422.939 134.993 422.086 138.407C421.985 138.993 421.85 139.613 421.678 140.27Z" fill="white"/>
<path d="M421.678 140.27C422.242 137.294 424.056 129.914 428.347 130.549C433.711 131.342 424.349 129.551 426.369 118.866C428.389 108.181 426.318 126.636 418.384 127.985C410.45 129.335 425.547 125.538 421.678 140.27Z" stroke="black"/>
<path d="M139.78 105.246C139.789 104.842 139.81 104.334 139.855 103.769C139.912 93.8994 130.106 98.2421 135.716 96.2771C139.281 95.0283 140.402 89.2355 140.691 86.7651C140.842 85.4666 140.764 85.086 140.691 86.7651C140.674 87.1527 140.657 87.6502 140.643 88.2714C140.457 96.7039 147.815 96.8642 143.629 96.9506C140.856 97.0079 140.072 101.048 139.855 103.769C139.852 104.23 139.828 104.722 139.78 105.246Z" fill="white"/>
<path d="M139.78 105.246C139.833 102.898 140.28 97.0197 143.629 96.9506C147.815 96.8642 140.457 96.7039 140.643 88.2714C140.829 79.8389 141.588 94.2204 135.716 96.2771C129.844 98.3338 140.862 93.4802 139.78 105.246Z" stroke="black"/>
<path d="M719.601 73.8448C719.617 73.228 719.65 72.4517 719.721 71.5885C719.856 56.5141 705.02 63.194 713.504 60.1659C718.897 58.2415 720.618 49.3888 721.066 45.6143C721.301 43.6305 721.185 43.0494 721.066 45.6143C721.038 46.2064 721.01 46.9662 720.987 47.9151C720.666 60.7949 731.779 61.0043 725.455 61.1564C721.266 61.2572 720.063 67.4315 719.721 71.5885C719.715 72.2921 719.676 73.0431 719.601 73.8448Z" fill="white"/>
<path d="M719.601 73.8448C719.692 70.2578 720.396 61.2781 725.455 61.1564C731.779 61.0043 720.666 60.7949 720.987 47.9151C721.308 35.0354 722.385 56.9965 713.504 60.1659C704.624 63.3353 721.292 55.8694 719.601 73.8448Z" stroke="black"/>
<path d="M16.2551 168C16.4373 168.593 16.6495 169.343 16.8451 170.185C21.6012 184.613 37.4306 174.427 28.1195 179.496C22.2019 182.718 23.0019 191.612 23.6897 195.331C24.0512 197.286 24.3818 197.811 23.6897 195.331C23.53 194.759 23.3157 194.026 23.0347 193.114C19.2212 180.734 5.66193 183.387 13.289 181.618C18.3415 180.446 17.7867 174.242 16.8451 170.185C16.6231 169.512 16.4252 168.785 16.2551 168Z" fill="white"/>
<path d="M16.2551 168C17.3145 171.448 19.3907 180.203 13.289 181.618C5.66193 183.387 19.2212 180.734 23.0347 193.114C26.8483 205.495 18.3737 184.802 28.1195 179.496C37.8652 174.19 20.0687 185.597 16.2551 168Z" stroke="black"/>
<path d="M312.385 296.361C312.699 297.021 313.082 297.859 313.479 298.809C321.358 314.802 330.496 299.828 324.85 307.555C321.262 312.466 324.486 322.735 326.105 326.96C326.956 329.182 327.363 329.733 326.105 326.96C325.814 326.32 325.435 325.503 324.952 324.488C318.396 310.713 308.786 316.424 314.11 312.888C317.638 310.545 315.391 303.382 313.479 298.809C313.111 298.062 312.746 297.248 312.385 296.361Z" fill="white"/>
<path d="M312.385 296.361C314.209 300.199 318.37 310.059 314.11 312.888C308.786 316.424 318.396 310.713 324.952 324.488C331.508 338.263 318.941 315.643 324.85 307.555C330.76 299.467 320.473 316.25 312.385 296.361Z" stroke="black"/>
<path d="M647.721 294.17C647.609 294.997 647.483 296.043 647.375 297.217C644.405 317.365 631.25 303.759 638.936 310.484C643.821 314.758 643.686 327.11 643.348 332.286C643.17 335.007 642.937 335.745 643.348 332.286C643.443 331.488 643.572 330.466 643.744 329.193C646.079 311.912 657.006 315.152 650.844 312.946C646.762 311.486 646.854 302.87 647.375 297.217C647.513 296.277 647.63 295.263 647.721 294.17Z" fill="white"/>
<path d="M647.721 294.17C647.072 298.983 645.914 311.182 650.844 312.946C657.006 315.152 646.079 311.912 643.744 329.193C641.409 346.473 646.981 317.523 638.936 310.484C630.891 303.445 645.679 318.68 647.721 294.17Z" stroke="black"/>
<path d="M403.78 308.557C391.831 313.021 398.627 317.882 404.949 316.378L533.002 285.906C542.67 280.661 535.944 277.108 528.886 278.788L466.333 293.673L403.78 308.557Z" fill="white" stroke="black"/>
<path d="M424.094 359.51L404.119 316.575L533.414 285.808L534.588 333.217L424.094 359.51Z" fill="white" stroke="black"/>
<path d="M426.585 331.474C422.538 314.468 415.44 307.829 421.074 302.642C430.3 294.148 435.132 302.119 447.755 294.61C460.377 287.101 466.092 293.791 466.092 293.791C451.636 302.514 463.001 312.873 465.494 343.734C447.992 353.785 445.977 352.465 435.609 350.846C425.46 349.26 431.51 346.498 426.585 331.474Z" fill="white" stroke="black"/>
<path d="M166.45 123.609C164.799 125.412 166.259 128.682 168.339 127.589L195.934 104.375C201.65 111.007 213.291 119.737 214.125 101.606C219.738 103.338 229.467 103.306 223.486 89.3158C229.459 90.6055 239.592 90.9772 232.343 82.1471C237.639 82.505 245.787 81.4975 236.009 74.6046C239.514 73.0362 244.737 68.6971 237.587 63.8876C236.882 63.4774 234.389 62.2789 230.051 60.7663C227.835 55.3419 223.159 48.3753 222.185 63.9039C218.128 59.7359 210.903 55.1445 214.467 70.1232C207.146 69.8149 194.632 72.2115 203.142 84.2643C192.569 83.6749 175.959 86.1517 194.102 100.774L166.45 123.609Z" fill="white"/>
<path d="M195.934 104.375L168.339 127.589C166.259 128.682 164.799 125.412 166.45 123.609L194.102 100.774M195.934 104.375C201.65 111.007 213.291 119.737 214.125 101.606C219.738 103.338 229.467 103.306 223.486 89.3158C229.459 90.6055 239.592 90.9772 232.343 82.1471C237.639 82.505 245.787 81.4975 236.009 74.6046C239.514 73.0362 244.737 68.6971 237.587 63.8876C236.882 63.4774 234.389 62.2789 230.051 60.7663C227.835 55.3419 223.159 48.3753 222.185 63.9039C218.128 59.7359 210.903 55.1445 214.467 70.1232C207.146 69.8149 194.632 72.2115 203.142 84.2643C192.569 83.6749 175.959 86.1517 194.102 100.774M195.934 104.375L194.102 100.774" stroke="black"/>
<path d="M219.996 269.812C218.49 267.553 216.232 269.059 218.022 271.406L244.94 317.162L245.731 318.506L246.522 319.851L247.392 321.33L248.153 322.624L248.89 323.876L249.626 325.128L250.22 326.137C250.536 326.471 250.839 326.744 251.126 326.961C251.674 327.374 252.166 327.585 252.589 327.635C253.235 327.711 253.723 327.413 254.009 326.887C254.143 326.64 254.232 326.343 254.273 326.012C254.353 325.359 254.273 324.762 253.912 323.764L253.15 322.469L252.389 321.175L250.866 318.586L249.937 317.007L249.343 315.998L248.691 314.888L219.996 269.812Z" fill="white" stroke="black"/>
<path d="M226.503 278.275L222.282 280.813L215.687 269.847C214.764 263.814 218.488 266.259 219.908 267.309L226.503 278.275Z" fill="white" stroke="black"/>
<path d="M225.546 276.656L233.289 274.197C231.561 273.875 231.166 273.247 231.544 271.294L224.77 275.366L223.995 274.075L231.157 270.649C229.616 270.155 229.235 269.511 229.411 267.745L223.413 273.108L222.056 270.85L229.024 267.1C228.098 266.047 226.247 266.134 227.278 264.197L221.28 269.559L222.056 270.85L223.413 273.108L223.995 274.075L224.77 275.366L225.546 276.656Z" fill="white"/>
<path d="M220.31 267.946L226.697 263.229C225.686 263.252 223.804 261.631 224.113 260.391L219.729 266.979L218.308 266.076L222.369 259.683C221.251 260.501 218.613 260.447 218.044 258.331L217.598 265.625L218.308 266.076L219.729 266.979L220.31 267.946Z" fill="white"/>
<path d="M214.881 258.914L216.759 265.69L215.791 266.272L211.655 260.853C212.792 261.575 214.28 259.861 214.881 258.914Z" fill="white"/>
<path d="M215.533 267.305L210.624 262.79C210.582 263.694 210.097 265.566 208.497 265.826L215.276 268.338L215.535 269.499L207.788 267.569C208.456 268.924 209.328 271.738 207.469 272.152L216.311 270.79L217.086 272.08L209.084 273.377C209.923 274.044 211.358 275.699 210.378 276.991L217.668 273.048L218.444 274.338L211.282 277.765C211.928 278.109 213.116 279.209 212.704 280.862L219.219 275.628L220.383 277.564L213.286 281.83C213.483 282.784 215.779 283.928 215.548 284.862L221.352 279.177L220.383 277.564L219.219 275.628L218.444 274.338L217.668 273.048L217.086 272.08L216.311 270.79L215.535 269.499L215.276 268.338L215.533 267.305Z" fill="white"/>
<path d="M224.77 275.366L231.544 271.294C231.166 273.247 231.561 273.875 233.289 274.197L225.546 276.656L224.77 275.366ZM224.77 275.366L223.995 274.075M223.995 274.075L231.157 270.649C229.616 270.155 229.235 269.511 229.411 267.745L223.413 273.108M223.995 274.075L223.413 273.108M223.413 273.108L222.056 270.85M222.056 270.85L229.024 267.1C228.098 266.047 226.247 266.134 227.278 264.197L221.28 269.559L222.056 270.85ZM219.729 266.979L224.113 260.391C223.804 261.631 225.686 263.252 226.697 263.229L220.31 267.946L219.729 266.979ZM219.729 266.979L218.308 266.076M218.308 266.076L222.369 259.683C221.251 260.501 218.613 260.447 218.044 258.331L217.598 265.625L218.308 266.076ZM215.276 268.338L208.497 265.826C210.097 265.566 210.582 263.694 210.624 262.79L215.533 267.305L215.276 268.338ZM215.276 268.338L215.535 269.499M215.535 269.499L207.788 267.569C208.456 268.924 209.328 271.738 207.469 272.152L216.311 270.79M215.535 269.499L216.311 270.79M216.311 270.79L217.086 272.08M217.086 272.08L209.084 273.377C209.923 274.044 211.358 275.699 210.378 276.991L217.668 273.048M217.086 272.08L217.668 273.048M217.668 273.048L218.444 274.338M218.444 274.338L211.282 277.765C211.928 278.109 213.116 279.209 212.704 280.862L219.219 275.628M218.444 274.338L219.219 275.628M219.219 275.628L220.383 277.564M220.383 277.564L213.286 281.83C213.483 282.784 215.779 283.928 215.548 284.862C217.814 282.641 219.085 281.397 221.352 279.177L220.383 277.564ZM216.759 265.69L214.881 258.914C214.28 259.861 212.792 261.575 211.655 260.853L215.791 266.272L216.759 265.69Z" stroke="black"/>
<path d="M251.796 323.13C251.158 322.652 249.968 322.149 250.313 323.959C250.743 326.221 254.183 325.41 251.796 323.13Z" fill="white" stroke="black"/>
<path d="M510.914 83.2559L508.325 88.2725C506.836 90.61 504.522 98.1689 505.94 103.56C506.969 107.474 506.817 113.85 506.77 117.542C506.542 135.214 496.11 134.912 491.428 132.495L470.358 121.619C463.367 115.469 468.734 106.803 476.001 101.66C479.116 99.4554 486.05 96.2439 489.39 94.5938C493.938 92.3471 496.896 86.891 498.626 83.2661L501.216 78.2494C502.411 75.9339 502.519 73.9541 502.015 72.309C497.407 77.7237 487.551 78.8197 483.198 78.6909C487.536 77.2592 496.716 73.1316 498.736 68.0747C497.738 67.3678 496.687 66.8647 495.811 66.565L491.798 64.4934C491.573 60.9892 494.121 58.3511 495.423 57.4701C496.921 57.9887 498.345 58.5121 499.696 59.039C523.491 68.318 524.977 78.6842 522.534 82.9004C513.722 76.9964 511.116 80.6774 510.914 83.2559Z" fill="white"/>
<path d="M501.216 78.2494L510.914 83.2559M501.216 78.2494L498.626 83.2661M501.216 78.2494C502.411 75.9339 502.519 73.9541 502.015 72.309M510.914 83.2559L508.325 88.2725M510.914 83.2559C511.116 80.6774 513.722 76.9964 522.534 82.9004C524.977 78.6842 523.491 68.318 499.696 59.039M508.325 88.2725L498.626 83.2661M508.325 88.2725C506.836 90.61 504.522 98.1689 505.94 103.56C506.969 107.474 506.817 113.85 506.77 117.542C506.542 135.214 496.11 134.912 491.428 132.495L470.358 121.619C463.367 115.469 468.734 106.803 476.001 101.66C479.116 99.4554 486.05 96.2439 489.39 94.5938C493.938 92.3471 496.896 86.891 498.626 83.2661M495.811 66.565L491.798 64.4934C491.573 60.9892 494.121 58.3511 495.423 57.4701C496.921 57.9887 498.345 58.5121 499.696 59.039M495.811 66.565L499.696 59.039M495.811 66.565C496.687 66.8647 497.738 67.3678 498.736 68.0747M502.015 72.309C497.407 77.7237 487.551 78.8197 483.198 78.6909C487.536 77.2592 496.716 73.1316 498.736 68.0747M502.015 72.309C501.458 70.4875 500.149 69.0764 498.736 68.0747" stroke="black"/>
<path d="M606.263 119.648C610.201 126.038 598.596 129.399 592.302 130.281C584.532 134.351 580.258 135.315 578.11 135.108C577.063 135.007 576.562 134.68 576.092 134.293C576.009 134.228 575.928 134.16 575.85 134.088C575.193 133.491 574.679 132.658 574.03 131.606C573.045 130.008 573.603 127.947 574.166 127.02C575.017 125.376 578.255 122.156 584.393 122.433C586.557 122.918 588.617 123.057 589.901 122.292C598.83 115.065 604.298 117.587 606.263 119.648Z" fill="white"/>
<path d="M606.263 119.648C610.201 126.038 598.596 129.399 592.302 130.281C584.532 134.351 580.258 135.315 578.11 135.108M606.263 119.648C604.298 117.587 598.83 115.065 589.901 122.292C588.617 123.057 586.557 122.918 584.393 122.433C578.255 122.156 575.017 125.376 574.166 127.02C573.603 127.947 573.045 130.008 574.03 131.606M606.263 119.648C606.527 120.53 605.904 122.82 601.29 124.929C595.522 127.565 592.079 126.182 591.049 126.113C590.225 126.057 589.78 126.368 589.661 126.53C581.944 133.09 576.025 132.647 574.03 131.606M574.03 131.606C575.251 133.587 575.996 134.79 578.11 135.108M574.03 131.606L575.85 134.088C576.406 134.561 576.883 134.989 578.11 135.108" stroke="black"/>
<path d="M573.191 140.568C576.523 139.566 576.76 136.213 576.462 134.662C578.303 135.061 583.991 134.685 592.019 129.987C593.38 130.147 598.078 129.456 605.977 125.414C607.405 126.247 610.302 128.053 610.469 128.609C610.636 129.164 609.443 129.674 608.826 129.86C609.204 129.998 610.002 130.415 610.169 130.971C610.336 131.527 608.836 132.129 608.064 132.361L603.677 129.514L606.467 132.083L603.182 134.585L599.824 131.807L601.794 135.002L599.48 135.698C594.619 135.643 591.762 136.881 590.941 137.506L588.509 134.45L589.761 138.618L583.953 141.121L582.238 137.092L582.819 140.704L581.431 141.121L581.242 140.495C581.225 140.757 581.145 141.021 580.968 141.26C580.394 142.039 579.047 141.585 578.445 141.261L578.073 138.343L576.385 141.123L573.191 140.568Z" fill="white"/>
<path d="M576.462 134.662C576.76 136.213 576.523 139.566 573.191 140.568L576.385 141.123L578.073 138.343L578.445 141.261C579.047 141.585 580.394 142.039 580.968 141.26C581.541 140.482 581.098 139.454 580.804 139.037L581.431 141.121L582.819 140.704L582.238 137.092L583.953 141.121L589.761 138.618L588.509 134.45L590.941 137.506C591.762 136.881 594.619 135.643 599.48 135.698L601.794 135.002L599.824 131.807L603.182 134.585L606.467 132.083L603.677 129.514L608.064 132.361C608.836 132.129 610.336 131.527 610.169 130.971C610.002 130.415 609.204 129.998 608.826 129.86C609.443 129.674 610.636 129.164 610.469 128.609C610.302 128.053 607.405 126.247 605.977 125.414C598.078 129.456 593.38 130.147 592.019 129.987C583.991 134.685 578.303 135.061 576.462 134.662Z" stroke="black"/>
<path d="M299.134 56.8052C302.809 53.6615 307.458 52.6268 309.111 52.592L310.358 55.5469L311.339 57.8686L311.003 58.259L311.627 59.7364C313.815 60.968 319.327 63.3988 323.875 63.269C328.422 63.1392 331.602 67.5498 332.624 69.7712L335.935 75.8343L338.876 82.7994C340.312 84.7793 338.233 89.3715 337.058 91.5256C338.23 92.5231 342.012 96.1487 343.205 98.3807C346.023 105.647 343.078 110.124 341.985 112.077C334.868 115.166 321.763 120.816 321.182 120.862C320.456 120.92 318.011 120.461 313.647 117.827C309.283 115.193 308.725 108.067 309.327 105.226C309.928 102.386 309.255 98.5415 308.843 96.9744C306.181 90.4719 300.349 77.3327 300.019 76.079C299.608 74.5119 302.02 67.3341 302.296 66.6617C302.542 66.0603 302.756 64.3949 302.712 63.5014L302.13 62.1242C301.873 62.1933 301.645 62.2495 301.451 62.2929L299.134 56.8052Z" fill="white"/>
<path d="M299.134 56.8052C301.17 56.6914 306.356 55.546 309.111 52.592M299.134 56.8052C302.809 53.6615 307.458 52.6268 309.111 52.592M299.134 56.8052L301.451 62.2929C301.645 62.2495 301.873 62.1933 302.13 62.1242M309.111 52.592L310.358 55.5469L311.339 57.8686L311.003 58.259M311.003 58.259C307.801 60.3152 304.102 61.5957 302.13 62.1242M311.003 58.259L311.627 59.7364C313.815 60.968 319.327 63.3988 323.875 63.269C328.422 63.1392 331.602 67.5498 332.624 69.7712L335.935 75.8343L338.876 82.7994C340.312 84.7793 338.233 89.3715 337.058 91.5256C338.23 92.5231 342.012 96.1487 343.205 98.3807C346.023 105.647 343.078 110.124 341.985 112.077C334.868 115.166 321.763 120.816 321.182 120.862C320.456 120.92 318.011 120.461 313.647 117.827C309.283 115.193 308.725 108.067 309.327 105.226C309.928 102.386 309.255 98.5415 308.843 96.9744C306.181 90.4719 300.349 77.3327 300.019 76.079C299.608 74.5119 302.02 67.3341 302.296 66.6617C302.542 66.0603 302.756 64.3949 302.712 63.5014L302.13 62.1242M323.446 68.1757C324.206 67.6061 326.082 67.311 327.254 68.3085C328.425 69.306 327.432 68.7306 331.825 75.58C335.34 81.0596 335.211 85.1763 334.495 86.6394C333.853 87.4904 331.882 88.3894 329.124 85.1766C326.367 81.9639 324.045 75.7154 323.229 72.9927C322.76 71.6156 322.306 69.0301 323.446 68.1757ZM313.726 94.9126L305.992 77.7846C305.153 75.4031 305.208 69.4113 312.467 68.8326C318.275 68.3697 319.408 74.6063 320.923 78.1944L326.627 91.7026C334.719 97.2391 339.757 106.801 330.205 110.835C326.226 113.261 318.461 116.788 315.121 106.51C315.121 106.51 314.141 104.188 314.513 100.922C314.884 97.6565 314.528 96.8122 314.528 96.8122L313.726 94.9126Z" stroke="black"/>
<path d="M683.568 226.846L722.014 226.456C724.659 226.429 726.932 229.952 722.068 231.774L719.359 265.485L687.93 265.804L687.386 261.56C685.595 261.581 684.11 260.87 682.68 259.652C676.684 254.545 683.254 242.899 683.621 232.164C681.383 232.088 678.697 228.077 683.568 226.846Z" fill="white"/>
<path d="M722.068 231.774C726.932 229.952 724.659 226.429 722.014 226.456L683.568 226.846C678.697 228.077 681.383 232.088 683.621 232.164M722.068 231.774L719.359 265.485L687.93 265.804L683.621 232.164M722.068 231.774C695.644 260.938 688.676 264.76 682.68 259.652C676.684 254.545 683.254 242.899 683.621 232.164M722.068 231.774L683.621 232.164" stroke="black"/>
<path d="M701.076 154.356C700.677 155.947 716.181 242.692 716.181 242.692C709.67 241.347 702.971 242.557 701.652 249.568C701.085 252.579 702.113 256.128 704.353 259.628C705.054 260.724 705.873 261.815 706.8 262.883C708.294 264.605 710.066 266.268 712.067 267.797C714.085 269.339 716.336 270.745 718.77 271.937C718.779 271.942 718.788 271.946 718.797 271.951C720.009 272.543 721.346 272.93 722.767 273.149C725.679 273.596 728.946 273.336 732.225 272.683C733.201 272.489 734.178 272.26 735.147 272.004C737.161 271.473 739.139 270.827 741.002 270.142C742.427 269.618 743.783 269.07 745.035 268.533C746.263 268.005 747.391 267.488 748.384 267.011C748.621 266.897 748.851 266.785 749.073 266.677C751.141 265.661 752.495 264.888 752.751 264.709C753.858 263.934 741.227 260.052 739.129 256.405C738.024 254.484 737.157 250.906 736.584 247.948C736.069 245.288 735.792 243.13 735.792 243.13C734.782 239.508 729.406 236.188 721.787 242.818L714.407 199.053L706.682 154.481C706.336 153.674 705.274 152.45 703.821 152.417C702.368 152.385 701.474 152.765 701.076 154.356Z" fill="white"/>
<path d="M721.787 242.818C729.406 236.188 734.782 239.508 735.792 243.13C735.792 243.13 736.069 245.288 736.584 247.948M721.787 242.818L714.407 199.053L706.682 154.481C706.336 153.674 705.274 152.45 703.821 152.417C702.368 152.385 701.474 152.765 701.076 154.356C700.677 155.947 716.181 242.692 716.181 242.692M721.787 242.818C721.698 242.959 721.608 243.09 721.517 243.212M721.787 242.818C725.696 244.372 734.637 249.264 739.129 256.405M721.787 242.818C725.272 241.429 733.11 240.51 736.584 247.948M716.181 242.692C709.67 241.347 702.971 242.557 701.652 249.568C701.085 252.579 702.113 256.128 704.353 259.628M716.181 242.692C712.534 243.144 705.063 247.164 704.353 259.628M716.181 242.692C716.282 242.825 716.399 242.962 716.528 243.1M718.797 271.951C711.896 268.596 715.05 251.867 717.489 243.922M718.797 271.951C720.009 272.543 721.346 272.93 722.767 273.149M718.797 271.951C716.353 270.755 714.092 269.345 712.067 267.797M739.129 256.405C741.227 260.052 753.858 263.934 752.751 264.709C752.495 264.888 751.141 265.661 749.073 266.677M739.129 256.405C738.024 254.484 737.157 250.906 736.584 247.948M721.76 244.017C723.752 250.059 731.196 263.421 745.035 268.533M745.035 268.533C746.263 268.005 747.391 267.488 748.384 267.011M745.035 268.533C743.783 269.07 742.427 269.618 741.002 270.142M719.41 244.523C720.611 255.819 720.808 274.957 732.225 272.683M719.41 244.523C719.038 244.546 718.672 244.479 718.324 244.352M719.41 244.523C719.858 244.495 720.315 244.337 720.762 243.995M732.225 272.683C728.946 273.336 725.679 273.596 722.767 273.149M732.225 272.683C733.201 272.489 734.178 272.26 735.147 272.004M717.489 243.922C717.275 243.779 717.075 243.621 716.89 243.455M717.489 243.922C717.75 244.096 718.031 244.245 718.324 244.352M704.353 259.628C705.054 260.724 705.873 261.815 706.8 262.883M704.353 259.628C701.344 244.521 711.216 242.315 716.528 243.1M716.89 243.455C714.031 245.942 708.009 253.31 706.8 262.883M716.89 243.455C716.761 243.339 716.64 243.219 716.528 243.1M706.8 262.883C708.294 264.605 710.066 266.268 712.067 267.797M718.324 244.352C717.326 251.065 716.818 266.224 722.767 273.149M720.762 243.995C722.42 252.787 727.618 270.699 735.147 272.004M720.762 243.995C721.018 243.798 721.272 243.54 721.517 243.212M735.147 272.004C737.161 271.473 739.139 270.827 741.002 270.142M721.517 243.212C725.79 249.974 737.146 264.2 748.384 267.011M721.517 243.212C728.656 250.471 744.162 265.327 749.073 266.677M721.517 243.212C724.598 253.211 732.808 272.595 741.002 270.142M748.384 267.011C748.621 266.897 748.851 266.785 749.073 266.677M716.88 243.908C713.697 249.568 708.279 262.269 712.067 267.797" stroke="black"/>
<path d="M663.693 90.1174L650.109 45.7112C649.069 45.5397 648.089 45.6186 647.219 45.8287C645.627 46.2132 644.402 47.0371 643.845 47.5682L647.744 63.3011L645.419 67.0202C637.124 69.2168 629.769 72.9412 627.129 74.5288C626.337 75.0051 623.152 76.1445 623.047 76.5671C619.403 77.6787 611.116 82.3771 612.474 85.7402C613.831 89.1033 616.947 85.8712 621.492 84.052C629.378 79.8439 630.26 77.8988 629.715 77.4523C634.295 73.0417 642.834 71.0889 646.531 70.6639L650.237 72.4165L656.027 90.7443C657.009 91.9041 658.961 91.7801 660.759 91.2808C661.891 90.9662 662.963 90.5027 663.693 90.1174Z" fill="white"/>
<path d="M647.219 45.8287C645.627 46.2132 644.402 47.0371 643.845 47.5682L647.744 63.3011L645.419 67.0202C637.124 69.2168 629.769 72.9412 627.129 74.5288C626.337 75.0051 623.152 76.1445 623.047 76.5671C619.403 77.6787 611.116 82.3771 612.474 85.7402C613.831 89.1033 616.947 85.8712 621.492 84.052C629.378 79.8439 630.26 77.8988 629.715 77.4523C634.295 73.0417 642.834 71.0889 646.531 70.6639L650.237 72.4165L656.027 90.7443C657.009 91.9041 658.961 91.7801 660.759 91.2808M647.219 45.8287C648.089 45.6186 649.069 45.5397 650.109 45.7112L663.693 90.1174C662.963 90.5027 661.891 90.9662 660.759 91.2808M647.219 45.8287L660.759 91.2808M624.559 77.5655C624.035 78.0737 623.588 79.2604 625.987 79.9413M622.28 78.1887C621.692 79.2333 621.181 81.3536 623.843 81.4786M619.904 79.6164C619.162 80.5879 618.434 82.6061 621.467 82.9063" stroke="black"/>
<path d="M66.843 133.14C72.1269 135.128 71.8257 130.702 71.3062 117.301L32.9587 98.1073C32.9587 98.1073 28.2402 105.347 24.591 106.429C20.9418 107.51 18.7692 107.006 22.5116 108.816L22.5953 112.869C24.3288 112.181 30.1391 109.278 31.7629 106.672C33.7429 103.495 27.4946 114.052 26.2057 114.203C27.0416 114.513 29.7498 115.741 29.6809 117.551C31.2108 114.909 34.7645 109.169 36.74 107.338C38.7154 105.508 34.2079 113.356 31.7073 117.509C32.1479 117.406 33.0716 118.585 34.8322 119.891C37.033 121.523 38.7176 111.701 41.5845 108.357L37.605 122.14C38.4421 122.053 40.8926 120.884 41.8776 122.541L46.5162 110.212L43.2413 124.261C45.885 123.647 48.9151 124.143 49.582 126.646L52.5046 112.465C52.6325 116.4 52.6498 124.905 51.6956 127.441C53.3848 126.871 56.9474 126.522 57.6841 129.695L59.6634 118.02C60.2662 122.119 61.0665 130.324 59.4454 130.357L59.3524 130.359L59.3514 130.359C59.3322 130.359 59.3141 130.36 59.2969 130.36L59.2958 130.36C60.2908 130.379 64.0695 130.586 64.413 132.226C64.7785 133.972 65.3434 124.4 65.5802 119.395L66.843 133.14Z" fill="white"/>
<path d="M57.9496 101.462C57.9496 101.462 114.183 25.0434 114.595 23.3271C115.008 21.6109 113.53 20.4248 112.199 19.7872C110.867 19.1496 109.309 19.8391 108.604 20.4581L79.9281 59.835L51.958 98.5929C42.0518 91.9356 35.6346 95.0826 32.9587 98.1073L71.3062 117.301C73.6169 111.159 64.5003 103.163 57.9496 101.462Z" fill="white"/>
<path d="M71.3062 117.301C73.6169 111.159 64.5003 103.163 57.9496 101.462C57.9496 101.462 114.183 25.0434 114.595 23.3271C115.008 21.6109 113.53 20.4248 112.199 19.7872C110.867 19.1496 109.309 19.8391 108.604 20.4581L79.9281 59.835L51.958 98.5929C42.0518 91.9356 35.6346 95.0826 32.9587 98.1073M71.3062 117.301C71.8257 130.702 72.1269 135.128 66.843 133.14L65.5802 119.395C65.3434 124.4 64.7785 133.972 64.413 132.226M71.3062 117.301L32.9587 98.1073M32.9587 98.1073C32.9587 98.1073 28.2402 105.347 24.591 106.429C20.9418 107.51 18.7692 107.006 22.5116 108.816L22.5953 112.869C24.3288 112.181 30.1391 109.278 31.7629 106.672C33.7429 103.495 27.4946 114.052 26.2057 114.203M59.4454 130.357C61.0665 130.324 60.2662 122.119 59.6634 118.02L57.6841 129.695C56.9474 126.522 53.3848 126.871 51.6956 127.441C52.6498 124.905 52.6325 116.4 52.5046 112.465L49.582 126.646C48.9151 124.143 45.885 123.647 43.2413 124.261L46.5162 110.212L41.8776 122.541C40.8926 120.884 38.4421 122.053 37.605 122.14L41.5845 108.357C38.7176 111.701 37.033 121.523 34.8322 119.891C33.0716 118.585 32.1479 117.406 31.7073 117.509C34.2079 113.356 38.7154 105.508 36.74 107.338C34.7645 109.169 31.2108 114.909 29.6809 117.551C29.7498 115.741 27.0416 114.513 26.2057 114.203M59.4454 130.357C59.4121 130.358 59.3811 130.358 59.3524 130.359M59.4454 130.357L59.3524 130.359M64.413 132.226C64.0695 130.586 60.2908 130.379 59.2958 130.36M64.413 132.226C64.0696 130.586 60.2937 130.379 59.2969 130.36M26.2057 114.203C25.9426 114.106 25.865 114.099 26.1181 114.194C26.144 114.204 26.1733 114.207 26.2057 114.203ZM59.2958 130.36L59.2969 130.36M59.2958 130.36C59.0036 130.354 58.9515 130.365 59.2969 130.36M59.3524 130.359L59.3514 130.359C59.3322 130.359 59.3141 130.36 59.2969 130.36" stroke="black"/>
</svg>
