<svg width="200" height="200" viewBox="0 0 200 200" fill="none" xmlns="http://www.w3.org/2000/svg">
<path d="M130.807 60.4199C132.695 64.9347 134.912 72.0067 131.43 74.3195C126.174 77.8108 135.661 72.1724 142.134 85.7717C142.611 86.7736 142.985 87.5805 143.272 88.2125C141.674 84.0405 138.491 73.9027 142.033 69.0543C147.607 61.4256 138.586 76.2093 130.807 60.4199Z" fill="#FFE600" fill-opacity="0.84"/>
<path d="M142.033 69.0543C138.491 73.9027 141.674 84.0405 143.272 88.2125M142.033 69.0543C147.607 61.4256 138.586 76.2093 130.807 60.4199M142.033 69.0543C136.629 76.4509 146.877 96.1583 143.272 88.2125M130.807 60.4199C132.695 64.9347 134.912 72.0067 131.43 74.3195C126.174 77.8108 135.661 72.1724 142.134 85.7717C142.611 86.7736 142.985 87.5805 143.272 88.2125M130.807 60.4199C130.444 59.6829 130.083 58.8793 129.727 58.0036C130.037 58.6551 130.415 59.4824 130.807 60.4199Z" stroke="black"/>
<path d="M31.6236 120.248C31.9611 116.144 33.1487 110.049 37.2846 109.949C43.528 109.799 32.5559 109.592 32.8728 96.8767C32.8962 95.9399 32.9236 95.1897 32.9508 94.6052C32.5084 98.3316 30.8094 107.071 25.4859 108.971C17.1095 111.961 31.7564 105.366 31.6236 120.248Z" fill="#FFE600" fill-opacity="0.84"/>
<path d="M25.4859 108.971C30.8094 107.071 32.5084 98.3316 32.9508 94.6052M25.4859 108.971C17.1095 111.961 31.7564 105.366 31.6236 120.248M25.4859 108.971C33.6073 106.073 33.2931 87.2551 32.9508 94.6052M31.6236 120.248C31.9611 116.144 33.1487 110.049 37.2846 109.949C43.528 109.799 32.5559 109.592 32.8728 96.8767C32.8962 95.9399 32.9236 95.1897 32.9508 94.6052M31.6236 120.248C31.6174 120.943 31.579 121.684 31.5046 122.476C31.5201 121.867 31.5536 121.1 31.6236 120.248Z" stroke="black"/>
<path d="M46.8933 159L57.2566 151.197C57.4006 149.607 56.8248 146.601 53.3704 147.295C49.9159 147.988 47.6129 152.208 46.8933 154.231V159Z" fill="#D9D9D9"/>
<path d="M16.6668 153.364L46.8933 159V154.231C47.6129 152.208 49.9159 147.988 53.3704 147.295L49.0523 146.428C48.7069 143.724 46.1736 140.099 44.7342 139.925L74.9601 34.1443L70.6421 32.8437L39.5526 138.624C35.7527 140.012 34.5148 141.803 34.3709 142.526H32.2118H25.3029C24.0075 143.249 20.7258 145.214 17.9622 147.295C15.1986 149.376 15.9471 152.208 16.6668 153.364Z" fill="#BABABA"/>
<path d="M70.6421 32.8437L74.9601 34.1443L81.869 24.6067C85.8992 19.2598 96.1187 12.4679 106.482 16.3697C121.132 21.8855 114.255 32.8437 112.527 35.4448C110.921 37.8646 106.301 41.2849 101.3 45.8495C96.5505 50.1847 86.5681 62.757 85.7553 66.2252C82.659 79.4367 87.056 82.5543 91.0465 87.9016C93.7343 91.5032 96.6294 93.363 97.8459 93.5374C100.264 93.8843 101.156 91.6588 101.3 90.5027C99.271 88.9892 97.5539 87.459 96.1187 85.9209C95.4896 85.2468 94.9147 84.5712 94.3914 83.8947C81.881 67.7237 100.739 52.8158 110.368 44.1154C119.004 36.3119 126.259 21.0518 108.641 13.7685C91.0233 6.48526 75.9677 23.4506 70.6421 32.8437Z" fill="#2C1B1B"/>
<path d="M101.3 90.5027C101.156 91.6588 100.264 93.8843 97.8459 93.5374C96.6294 93.363 93.7343 91.5032 91.0465 87.9016C86.5517 95.9412 80.8128 109.062 79.1586 120.85C91.499 155.879 112.304 136.89 121.163 123.017C123.898 107.39 122.718 78.0936 96.1187 85.9209C97.5539 87.459 99.271 88.9892 101.3 90.5027Z" fill="#3AC9E5"/>
<path d="M96.1187 85.9209C122.718 78.0936 123.898 107.39 121.163 123.017C121.253 124.062 121.283 125.074 121.261 126.052C126.175 120.156 129.289 121.572 130.232 123.017C130.375 115.214 128.763 97.4392 121.163 88.7686C113.564 80.0981 100.149 81.9066 94.3914 83.8947C94.9147 84.5712 95.4896 85.2468 96.1187 85.9209Z" fill="#D1141C"/>
<path d="M86.6189 143.827C88.0007 144.867 103.891 145.127 111.664 145.127C113.792 143.759 117.09 140.52 119.214 135.59C120.371 132.903 121.18 129.714 121.261 126.052C121.283 125.074 121.253 124.062 121.163 123.017C112.304 136.89 91.499 155.879 79.1586 120.85C77.7801 130.673 79.2386 139.57 86.6189 143.827Z" fill="#D1141C"/>
<path d="M119.214 135.59C117.09 140.52 113.792 143.759 111.664 145.127L119.868 143.827C119.119 142.815 117.939 139.751 119.214 135.59Z" fill="#D1141C"/>
<path d="M130.232 145.994C125.194 141.803 118.141 131.341 130.232 123.017C129.289 121.572 126.175 120.156 121.261 126.052C121.18 129.714 120.371 132.903 119.214 135.59C117.939 139.751 119.119 142.815 119.868 143.827L121.261 145.127L123.754 145.994L126.778 146.428L130.232 145.994Z" fill="#1E1E1E"/>
<path d="M86.6189 143.827C79.2386 139.57 77.7801 130.673 79.1586 120.85C76.8955 120.416 73.2329 122.757 76.6874 135.59C78.2706 140.358 82.4736 148.682 86.6189 143.827Z" fill="#1E1E1E"/>
<path d="M130.232 123.017C133.83 126.341 138.868 135.59 130.232 145.994C125.194 141.803 118.141 131.341 130.232 123.017Z" fill="#D9D9D9"/>
<path d="M46.8933 159L16.6668 153.364C15.9471 152.208 15.1986 149.376 17.9622 147.295C20.7258 145.214 24.0075 143.249 25.3029 142.526H32.2118H34.3709C34.5148 141.803 35.7527 140.012 39.5526 138.624L70.6421 32.8437M46.8933 159L57.2566 151.197C57.4006 149.607 56.8248 146.601 53.3704 147.295M46.8933 159V154.231C47.6129 152.208 49.9159 147.988 53.3704 147.295M53.3704 147.295L49.0523 146.428C48.7069 143.724 46.1736 140.099 44.7342 139.925L74.9601 34.1443M70.6421 32.8437L74.9601 34.1443M70.6421 32.8437C75.9677 23.4506 91.0233 6.48526 108.641 13.7685C126.259 21.0518 119.004 36.3119 110.368 44.1154C100.739 52.8158 81.881 67.7237 94.3914 83.8947M74.9601 34.1443L81.869 24.6067C85.8992 19.2598 96.1187 12.4679 106.482 16.3697C121.132 21.8854 114.255 32.8437 112.527 35.4448C110.921 37.8646 106.301 41.2849 101.3 45.8495C96.5505 50.1847 86.5681 62.757 85.7553 66.2252C82.659 79.4367 87.056 82.5543 91.0465 87.9016M91.0465 87.9016C93.7343 91.5032 96.6294 93.363 97.8459 93.5374C100.264 93.8843 101.156 91.6588 101.3 90.5027C99.271 88.9892 97.5539 87.459 96.1187 85.9209M91.0465 87.9016C86.5517 95.9412 80.8128 109.062 79.1586 120.85M86.6189 143.827C88.0007 144.867 103.891 145.127 111.664 145.127M86.6189 143.827C79.2386 139.57 77.7801 130.673 79.1586 120.85M86.6189 143.827C82.4736 148.682 78.2706 140.358 76.6874 135.59C73.2329 122.757 76.8955 120.416 79.1586 120.85M111.664 145.127C113.792 143.759 117.09 140.52 119.214 135.59M111.664 145.127L119.868 143.827M121.163 123.017C123.898 107.39 122.718 78.0936 96.1187 85.9209M121.163 123.017C121.253 124.062 121.283 125.074 121.261 126.052M121.163 123.017C112.304 136.89 91.499 155.879 79.1586 120.85M96.1187 85.9209C95.4896 85.2468 94.9147 84.5712 94.3914 83.8947M94.3914 83.8947C100.149 81.9066 113.564 80.0981 121.163 88.7686C128.763 97.4392 130.375 115.214 130.232 123.017M130.232 123.017C133.83 126.341 138.868 135.59 130.232 145.994M130.232 123.017C118.141 131.341 125.194 141.803 130.232 145.994M130.232 123.017C129.289 121.572 126.175 120.156 121.261 126.052M130.232 145.994L126.778 146.428L123.754 145.994L121.261 145.127L119.868 143.827M119.868 143.827C119.119 142.815 117.939 139.751 119.214 135.59M119.214 135.59C120.371 132.903 121.18 129.714 121.261 126.052" stroke="black"/>
<path d="M114.545 158.212C116.55 166.854 104.014 166.71 97.4955 165.557C88.5591 167.537 84.024 167.172 81.9508 166.199C80.9405 165.725 80.5404 165.18 80.1889 164.577C79.5968 163.62 79.3121 162.398 78.9421 160.804C78.4407 158.644 79.6107 156.483 80.4465 155.619C81.7836 154.035 85.9623 151.471 91.9797 153.891C93.9854 155.187 95.9912 156.051 97.4955 155.619C108.527 150.434 113.207 155.187 114.545 158.212Z" fill="#2AE7B9"/>
<path d="M114.545 158.212C116.55 166.854 104.014 166.71 97.4955 165.557C88.5591 167.537 84.024 167.172 81.9508 166.199M114.545 158.212C113.207 155.187 108.527 150.434 97.4955 155.619C95.9912 156.051 93.9854 155.187 91.9797 153.891C85.9623 151.471 81.7836 154.035 80.4465 155.619C79.6107 156.483 78.4407 158.644 78.9421 160.804M114.545 158.212C114.545 159.308 113.241 161.708 108.026 162.533C101.507 163.563 98.4984 160.804 97.4955 160.372C96.6932 160.026 96.1583 160.228 95.9912 160.372C86.3635 165.212 80.6136 162.677 78.9421 160.804M78.9421 160.804C79.5641 163.484 79.945 165.112 81.9508 166.199M78.9421 160.804L80.0089 164.261C80.4207 164.991 80.7667 165.643 81.9508 166.199" stroke="black"/>
<path d="M75.4321 170.742C79.0425 170.742 80.2794 166.998 80.4466 165.125C81.6195 166.334 86.6723 168.025 97.5 165.125C99.8593 165.879 106.17 166.848 112.539 164.693C113.709 166.133 116.049 169.187 116.049 169.878C116.049 170.57 114.712 170.742 114.043 170.742C114.378 171.031 115.046 171.779 115.046 172.471C115.046 173.162 113.375 173.335 112.539 173.335L109.029 168.582L111.035 172.471L107.023 174.199L104.516 169.878L105.519 174.199H103.012C98.1977 172.471 94.9884 172.903 93.9855 173.335L92.4812 169.014V174.199L85.9624 175.063L85.461 169.878L84.9596 174.199H83.4552V173.42C83.3593 173.713 83.201 173.986 82.9538 174.199C82.1515 174.891 80.948 173.911 80.4466 173.335L80.948 169.878L78.4408 172.471L75.4321 170.742Z" fill="#FDD64A" stroke="black"/>
<path d="M49.8731 177.224C44.6856 170.31 57.1374 167.445 64.1206 167.589C62.9137 169.226 62 172.8 68 174C70.1762 173.534 73.6862 171.85 71.5529 168.704C71.3213 168.445 71.1348 168.202 71 168C71.2155 168.243 71.3989 168.477 71.5529 168.704C72.4674 169.727 74.0851 171 76 171L78.5 172.5L81 170L80.5 173C80.6667 173.667 81.5 174.8 83.5 174H86V175L92.5 174V169.5L94 173C95.6667 172.667 99.8 172.5 103 174.5L105.5 174L104.5 170.5L107 174.5L112 172L112.722 173.5L115 172.5C115 172.167 114.9 171.4 114.5 171C114 170.5 117 170.792 116 169.5C115.2 168.467 113.481 166.153 112.722 165.125C120.304 161.323 121.867 165.958 121.7 168.752C122.375 168.186 123.413 167.853 124.194 167.718C130.18 167.718 129.349 171.751 128.185 173.767C131.377 180.681 101.016 180.983 99.2543 178.952C94.4659 174.804 83.2431 175.891 82.2951 177.656C77.2678 187.017 61.9175 184.204 64.3383 180.681C66.7592 177.158 64.6424 179.627 64.8372 178.952C55.6254 180.681 50.8707 178.376 49.8731 177.224Z" fill="#A8C7FF"/>
<path d="M128.185 173.767C131.377 180.681 101.016 180.983 99.2543 178.952C94.4659 174.804 83.2431 175.891 82.2951 177.656C77.2678 187.017 61.9175 184.204 64.3383 180.681C66.7592 177.158 64.6424 179.627 64.8372 178.952C55.6254 180.681 50.8707 178.376 49.8731 177.224C44.6856 170.31 57.1374 167.445 64.1206 167.589C62.9137 169.226 62 172.8 68 174C70.3333 173.5 74.2 171.6 71 168C71.6667 169 73.6 171 76 171L78.5 172.5L81 170L80.5 173C80.6667 173.667 81.5 174.8 83.5 174H86V175L92.5 174V169.5L94 173C95.6667 172.667 99.8 172.5 103 174.5L105.5 174L104.5 170.5L107 174.5L112 172L112.722 173.5L115 172.5M128.185 173.767C129.349 171.751 130.18 167.718 124.194 167.718C123.413 167.853 122.375 168.186 121.7 168.752M128.185 173.767C123.933 175.253 122.277 173.148 121.981 171.909M121.981 171.909C121.981 170.613 120.94 169.39 121.7 168.752M121.981 171.909C121.488 173.106 119.4 174.9 115 172.5M121.7 168.752C121.867 165.958 120.304 161.323 112.722 165.125C113.481 166.153 115.2 168.467 116 169.5C117 170.792 114 170.5 114.5 171C114.9 171.4 115 172.167 115 172.5" stroke="black"/>
<path d="M69.8252 173.335C64.2387 175.755 61.1279 169.749 64.3384 167.286L70.1063 167.588C73.2986 170.354 71.4879 172.615 69.8252 173.335Z" fill="#A8C7FF"/>
<path d="M128.185 173.767C123.795 175.495 122.314 173.35 121.981 171.909C120.485 174.934 117.211 173.047 114.717 172.471M64.3384 167.286C61.1279 169.749 64.2387 175.755 69.8252 173.335C71.4879 172.615 73.2986 170.354 70.1063 167.588L64.3384 167.286Z" stroke="black"/>
<path d="M72.818 164.261C78.3048 161.668 79.8012 165.989 79.8012 166.854C77.806 174.631 69.8252 168.15 71.3216 167.718C72.5188 167.372 72.818 165.269 72.818 164.261Z" fill="#A8C7FF" stroke="black"/>
<path d="M71.7695 163.92C70.0906 158.082 65.1026 160.243 64.105 161.971C62.5312 164.698 63.4724 166.494 64.2327 167.527C72.4504 169.108 72.3418 165.91 71.7695 163.92Z" fill="#A8C7FF" stroke="black"/>
<path fill-rule="evenodd" clip-rule="evenodd" d="M165.449 105.804C161.151 106.552 156.674 106.252 154.357 105.929V107.654C154.005 108.622 153.036 110.296 152.508 110.824C151.918 111.415 146.17 117.959 145.906 119.808C145.694 121.288 145.994 137.864 145.906 145.968C145.642 147.817 144.638 152.204 142.736 154.952C140.835 157.7 138.247 165.521 141.68 170.277C145.113 175.034 147.49 176.619 148.283 176.883C148.916 177.095 165.273 176.971 174.164 176.883C176.189 175.298 181.295 171.863 181.559 162.879C181.295 159.972 178.918 154.423 178.126 152.838C180.327 151.076 184.57 147.13 183.936 144.382V135.663L183.144 127.735C183.056 124.917 181.665 118.804 176.805 116.902C171.946 114.999 167.21 109.944 165.449 107.654V105.804ZM178.126 123.772C177.334 122.186 175.221 121.658 174.164 121.922C172.58 122.319 171.907 125.269 171.788 126.943C171.435 130.202 171.101 137.882 172.58 142.533C174.059 147.183 176.541 147.113 177.598 146.496C179.006 145.263 180.978 140.947 179.711 133.549C178.126 124.3 178.918 125.357 178.126 123.772ZM151.452 124.3L151.98 145.968V148.346C151.98 148.346 151.98 149.403 150.131 152.706C148.283 156.009 148.283 158.915 148.283 158.915C147.226 171.334 156.998 171.07 162.28 170.277C174.164 170.277 173.108 157.858 167.034 148.346V131.435C167.034 126.943 168.618 119.808 162.28 117.694C154.357 115.052 151.628 121.394 151.452 124.3Z" fill="#C3DD65"/>
<path d="M165.977 98.9337C161.752 100.836 155.765 99.7265 153.565 98.9337V105.804C153.788 105.845 154.054 105.887 154.357 105.929C156.674 106.252 161.151 106.552 165.449 105.804L165.977 105.54V102.633V98.9337Z" fill="#E39F73"/>
<path d="M153.565 98.9337C155.765 99.7265 161.752 100.836 165.977 98.9337C164.217 98.2291 158.847 97.2426 153.565 98.9337Z" fill="#D69D7C"/>
<path d="M151.98 145.968L151.452 124.3C151.628 121.394 154.357 115.052 162.28 117.694C168.618 119.808 167.034 126.943 167.034 131.435V148.346C173.108 157.858 174.164 170.277 162.28 170.277C156.998 171.07 147.226 171.334 148.283 158.915C148.283 158.915 148.283 156.009 150.131 152.706C151.98 149.403 151.98 148.346 151.98 148.346V145.968Z" fill="#EDFAC1"/>
<path d="M153.565 98.9337C155.765 99.7265 161.752 100.836 165.977 98.9337M153.565 98.9337C158.847 97.2426 164.217 98.2291 165.977 98.9337M153.565 98.9337V105.804C153.788 105.845 154.054 105.887 154.357 105.929M165.977 98.9337V102.633V105.54L165.449 105.804M165.449 105.804C161.151 106.552 156.674 106.252 154.357 105.929M165.449 105.804V107.654C167.21 109.944 171.946 114.999 176.805 116.902C181.665 118.804 183.056 124.917 183.144 127.735L183.936 135.663V144.382C184.57 147.13 180.327 151.076 178.126 152.838C178.918 154.423 181.295 159.972 181.559 162.879C181.295 171.863 176.189 175.298 174.164 176.883C165.273 176.971 148.916 177.095 148.283 176.883C147.49 176.619 145.113 175.034 141.68 170.277C138.247 165.521 140.835 157.7 142.736 154.952C144.638 152.204 145.642 147.817 145.906 145.968C145.994 137.864 145.694 121.288 145.906 119.808C146.17 117.959 151.918 111.415 152.508 110.824C153.036 110.296 154.005 108.622 154.357 107.654V105.929M174.164 121.922C175.221 121.658 177.334 122.186 178.126 123.772C178.918 125.357 178.126 124.3 179.711 133.549C180.978 140.947 179.006 145.263 177.598 146.496C176.541 147.113 174.059 147.183 172.58 142.533C171.101 137.882 171.435 130.202 171.788 126.943C171.907 125.269 172.58 122.319 174.164 121.922ZM151.98 145.968L151.452 124.3C151.628 121.394 154.357 115.052 162.28 117.694C168.618 119.808 167.034 126.943 167.034 131.435V148.346C173.108 157.858 174.164 170.277 162.28 170.277C156.998 171.07 147.226 171.334 148.283 158.915C148.283 158.915 148.283 156.009 150.131 152.706C151.98 149.403 151.98 148.346 151.98 148.346V145.968Z" stroke="black"/>
</svg>
