<svg width="156" height="148" viewBox="0 0 156 148" fill="none" xmlns="http://www.w3.org/2000/svg">
<path d="M149.036 73.1257L74.5421 104.771L8.50598 71.1339V27.7077L83.7372 1L149.036 29.7413V73.1257Z" fill="black"/>
<path d="M8.50598 71.1338L83.7372 42.8809M8.50598 71.1338V27.7077L83.7372 1M8.50598 71.1338L74.5421 104.771L149.036 73.1257M149.036 73.1257L83.7372 42.8809M149.036 73.1257V29.7413L83.7372 1M83.7372 42.8809V1" stroke="white"/>
<path d="M80.3976 30.6025V38.8163L34.8554 53.3736V61.0588L59.9036 72.4037L104.47 54.6748L106.747 53.6989V37.7591L83.3384 30.0332L80.3976 30.6025Z" fill="black"/>
<path d="M34.8554 53.3736L59.9036 64.4338M34.8554 53.3736L80.3976 38.8163M34.8554 53.3736V61.0588L59.9036 72.4037M59.9036 64.4338L104.47 47.2742M59.9036 64.4338V72.4037M104.47 47.2742V38.8163M104.47 47.2742V54.6748M104.47 47.2742L80.3976 38.8163M104.47 38.8163L80.3976 30.6025M104.47 38.8163L106.747 37.7591M80.3976 30.6025V38.8163M80.3976 30.6025L83.3384 30.0332L106.747 37.7591M59.9036 72.4037L104.47 54.6748M104.47 54.6748L106.747 53.6989V37.7591" stroke="white"/>
<path d="M2 79.0723L63.1566 112.253M2 79.0723L7.15365 79.6867M2 79.0723L4.74861 82.759M63.1566 112.253L61.0952 108.873M63.1566 112.253H58.6901" stroke="white"/>
<path d="M85.2771 112.904L155.007 81.7484M85.2771 112.904L88.8002 108.792M85.2771 112.904L90.779 112.999M155.007 81.7484L150.218 81.2587M155.007 81.7484L152.528 85.6742" stroke="white"/>
<path d="M131.049 65.2097L131.049 53.1324L108.373 44.5903L95.1403 49.4698L95.1403 62.8016L96.344 63.3471L96.344 51.7469L117.539 59.9737L117.539 71.2165L118.581 71.9156L131.049 65.2097Z" fill="black"/>
<path d="M131.049 53.1324L131.049 65.2097L118.581 71.9156M131.049 53.1324L108.373 44.5903L95.1403 49.4698M131.049 53.1324L118.581 58.6757M118.581 71.9156L118.581 58.6757M118.581 71.9156L117.539 71.2165L117.539 59.9737L96.344 51.7469L96.344 63.3471L95.1403 62.8016L95.1403 49.4698M95.1403 49.4698L118.581 58.6757" stroke="white"/>
<path d="M101.948 73.4346L101.24 73.7998L100.527 73.4413L100.502 68.4281L93.7351 64.8189L93.7553 68.8908L93.0462 69.157L92.512 68.8967L92.512 53.5543L93.5109 53.1232L101.154 56.6343L101.157 57.1545L101.869 57.513L101.876 58.885L102.23 58.7099L109.386 62.1023L109.386 68.9063L108.679 69.6032L107.966 69.0864L107.97 64.0344L101.923 68.4214L101.948 73.4346Z" fill="black"/>
<path d="M101.24 73.7998L101.948 73.4346L101.923 68.4214M101.24 73.7998L101.16 57.8782M101.24 73.7998L100.527 73.4413L100.502 68.4281M101.869 57.513L101.16 57.8782M101.869 57.513L101.157 57.1545M101.869 57.513L101.876 58.885M101.16 57.8782L100.448 57.5197M100.448 57.5197L101.157 57.1545M100.448 57.5197L100.446 57.1579L93.0229 53.9855M100.448 57.5197L100.502 68.4281M101.157 57.1545L101.154 56.6343L93.5109 53.1232L92.512 53.5543M93.0229 53.9855L92.512 53.5543M93.0229 53.9855L93.0229 64.4755M92.512 53.5543L92.512 68.8967L93.0462 69.157M93.0462 69.157L93.7553 68.8908L93.7351 64.8189M93.0462 69.157L93.0229 64.4755M93.7351 64.8189L93.0229 64.4755M93.7351 64.8189L100.502 68.4281M101.923 68.4214L107.97 64.0344M101.923 68.4214L101.917 67.2077M108.679 69.6032L108.679 63.6112L107.97 64.0344M108.679 69.6032L107.966 69.0864L107.97 64.0344M108.679 69.6032L109.386 68.9063L109.386 62.1023M109.386 62.1023L101.917 67.2077M109.386 62.1023L102.23 58.7099L101.876 58.885M101.917 67.2077L101.876 58.885" stroke="white"/>
<path d="M11.1085 69.9639V32.229L28.6748 27.0242L37.1326 30.2772V67.6868L19.5664 74.5181L11.1085 69.9639Z" fill="black"/>
<path d="M11.1085 32.229V69.9639L19.5664 74.5181M11.1085 32.229L19.5664 35.1567M11.1085 32.229L28.6748 27.0242L37.1326 30.2772M19.5664 74.5181L37.1326 67.6868V30.2772M19.5664 74.5181V35.1567M37.1326 30.2772L19.5664 35.1567M21.1929 37.1085L35.5061 33.2049V57.9278L21.1929 63.1326V37.1085ZM21.1929 65.0844V71.2651L35.5061 65.735V59.8796L21.1929 65.0844Z" stroke="white"/>
<path d="M47.1761 145L51.0795 137.278V137.21H46.5795V136.273H52.1705V137.261L48.2841 145H47.1761ZM53.0089 145.068C52.7987 145.068 52.6183 144.993 52.4677 144.842C52.3171 144.692 52.2418 144.511 52.2418 144.301C52.2418 144.091 52.3171 143.911 52.4677 143.76C52.6183 143.609 52.7987 143.534 53.0089 143.534C53.2191 143.534 53.3995 143.609 53.5501 143.76C53.7006 143.911 53.7759 144.091 53.7759 144.301C53.7759 144.44 53.7404 144.568 53.6694 144.685C53.6012 144.801 53.5089 144.895 53.3924 144.966C53.2788 145.034 53.1509 145.068 53.0089 145.068ZM57.5888 136.273V145H56.532V137.381H56.4808L54.3501 138.795V137.722L56.532 136.273H57.5888ZM67.2408 140.168V141.105H63.4226V140.168H67.2408ZM75.4364 136.273V145H74.3796V137.381H74.3285L72.1978 138.795V137.722L74.3796 136.273H75.4364ZM81.0146 136.273V145H79.9577V137.381H79.9066L77.7759 138.795V137.722L79.9577 136.273H81.0146ZM83.7589 145.068C83.5487 145.068 83.3683 144.993 83.2177 144.842C83.0671 144.692 82.9918 144.511 82.9918 144.301C82.9918 144.091 83.0671 143.911 83.2177 143.76C83.3683 143.609 83.5487 143.534 83.7589 143.534C83.9691 143.534 84.1495 143.609 84.3001 143.76C84.4506 143.911 84.5259 144.091 84.5259 144.301C84.5259 144.44 84.4904 144.568 84.4194 144.685C84.3512 144.801 84.2589 144.895 84.1424 144.966C84.0288 145.034 83.9009 145.068 83.7589 145.068ZM88.8651 145.119C88.3651 145.119 87.9148 145.02 87.5142 144.821C87.1136 144.622 86.7926 144.349 86.5511 144.003C86.3097 143.656 86.1776 143.261 86.1548 142.818H87.1776C87.2173 143.213 87.3963 143.54 87.7145 143.798C88.0355 144.054 88.419 144.182 88.8651 144.182C89.223 144.182 89.5412 144.098 89.8196 143.93C90.1009 143.763 90.321 143.533 90.4801 143.24C90.642 142.945 90.723 142.611 90.723 142.239C90.723 141.858 90.6392 141.518 90.4716 141.22C90.3068 140.919 90.0795 140.682 89.7898 140.509C89.5 140.335 89.169 140.247 88.7969 140.244C88.5298 140.241 88.2557 140.283 87.9744 140.368C87.6932 140.45 87.4616 140.557 87.2798 140.688L86.2912 140.568L86.8196 136.273H91.3537V137.21H87.706L87.3991 139.784H87.4503C87.6293 139.642 87.8537 139.524 88.1236 139.43C88.3935 139.337 88.6747 139.29 88.9673 139.29C89.5014 139.29 89.9773 139.418 90.3949 139.673C90.8153 139.926 91.1449 140.273 91.3835 140.713C91.625 141.153 91.7457 141.656 91.7457 142.222C91.7457 142.778 91.6207 143.276 91.3707 143.713C91.1236 144.148 90.7827 144.491 90.348 144.744C89.9134 144.994 89.419 145.119 88.8651 145.119ZM96.8306 145V138.455H97.8022V139.477H97.8874C98.0238 139.128 98.244 138.857 98.5479 138.663C98.8519 138.467 99.217 138.369 99.6431 138.369C100.075 138.369 100.434 138.467 100.721 138.663C101.011 138.857 101.237 139.128 101.399 139.477H101.467C101.635 139.139 101.886 138.871 102.221 138.672C102.556 138.47 102.958 138.369 103.427 138.369C104.012 138.369 104.491 138.553 104.863 138.919C105.235 139.283 105.422 139.849 105.422 140.619V145H104.416V140.619C104.416 140.136 104.284 139.791 104.02 139.584C103.755 139.376 103.444 139.273 103.086 139.273C102.626 139.273 102.27 139.412 102.017 139.69C101.764 139.966 101.637 140.315 101.637 140.739V145H100.615V140.517C100.615 140.145 100.494 139.845 100.252 139.618C100.011 139.388 99.6999 139.273 99.3192 139.273C99.0579 139.273 98.8136 139.342 98.5863 139.482C98.3619 139.621 98.18 139.814 98.0408 140.061C97.9045 140.305 97.8363 140.588 97.8363 140.909V145H96.8306ZM106.936 140.636V139.972L108.931 138.199C109.13 138.023 109.296 137.865 109.429 137.726C109.563 137.587 109.664 137.452 109.732 137.321C109.8 137.19 109.834 137.051 109.834 136.903C109.834 136.648 109.736 136.445 109.54 136.294C109.344 136.143 109.101 136.068 108.811 136.068C108.505 136.068 108.257 136.151 108.07 136.315C107.882 136.477 107.789 136.69 107.789 136.955H106.902C106.902 136.469 107.083 136.078 107.444 135.783C107.804 135.484 108.266 135.335 108.828 135.335C109.203 135.335 109.533 135.403 109.817 135.54C110.101 135.673 110.323 135.858 110.482 136.094C110.641 136.327 110.721 136.591 110.721 136.886C110.721 137.119 110.674 137.335 110.58 137.534C110.486 137.733 110.34 137.939 110.141 138.152C109.942 138.365 109.686 138.608 109.374 138.881L108.266 139.852V139.886H110.874V140.636H106.936Z" fill="white"/>
</svg>
