<svg width="156" height="136" viewBox="0 0 156 136" fill="none" xmlns="http://www.w3.org/2000/svg">
<path d="M149.036 73.1257L74.5421 104.771L8.50598 71.1339V27.7077L83.7372 1L149.036 29.7413V73.1257Z" fill="black"/>
<path d="M8.50598 71.1338L83.7372 42.8809M8.50598 71.1338V27.7077L83.7372 1M8.50598 71.1338L74.5421 104.771L149.036 73.1257M149.036 73.1257L83.7372 42.8809M149.036 73.1257V29.7413L83.7372 1M83.7372 42.8809V1" stroke="white"/>
<path d="M80.3976 30.6025V38.8163L34.8554 53.3736V61.0588L59.9036 72.4037L104.47 54.6748L106.747 53.6989V37.7591L83.3384 30.0332L80.3976 30.6025Z" fill="black"/>
<path d="M34.8554 53.3736L59.9036 64.4338M34.8554 53.3736L80.3976 38.8163M34.8554 53.3736V61.0588L59.9036 72.4037M59.9036 64.4338L104.47 47.2742M59.9036 64.4338V72.4037M104.47 47.2742V38.8163M104.47 47.2742V54.6748M104.47 47.2742L80.3976 38.8163M104.47 38.8163L80.3976 30.6025M104.47 38.8163L106.747 37.7591M80.3976 30.6025V38.8163M80.3976 30.6025L83.3384 30.0332L106.747 37.7591M59.9036 72.4037L104.47 54.6748M104.47 54.6748L106.747 53.6989V37.7591" stroke="white"/>
<path d="M2 79.0723L63.1566 112.253M2 79.0723L7.15365 79.6867M2 79.0723L4.74861 82.759M63.1566 112.253L61.0952 108.873M63.1566 112.253H58.6901" stroke="white"/>
<path d="M85.2771 112.904L155.007 81.7484M85.2771 112.904L88.8002 108.792M85.2771 112.904L90.779 112.999M155.007 81.7484L150.218 81.2587M155.007 81.7484L152.528 85.6742" stroke="white"/>
<path d="M131.049 65.2097L131.049 53.1324L108.373 44.5903L95.1403 49.4698L95.1403 62.8016L96.344 63.3471L96.344 51.7469L117.539 59.9737L117.539 71.2165L118.581 71.9156L131.049 65.2097Z" fill="black"/>
<path d="M131.049 53.1324L131.049 65.2097L118.581 71.9156M131.049 53.1324L108.373 44.5903L95.1403 49.4698M131.049 53.1324L118.581 58.6757M118.581 71.9156L118.581 58.6757M118.581 71.9156L117.539 71.2165L117.539 59.9737L96.344 51.7469L96.344 63.3471L95.1403 62.8016L95.1403 49.4698M95.1403 49.4698L118.581 58.6757" stroke="white"/>
<path d="M101.948 73.4346L101.24 73.7998L100.527 73.4413L100.502 68.4281L93.7351 64.8189L93.7553 68.8908L93.0462 69.157L92.512 68.8967L92.512 53.5543L93.5109 53.1232L101.154 56.6343L101.157 57.1545L101.869 57.513L101.876 58.885L102.23 58.7099L109.386 62.1023L109.386 68.9063L108.679 69.6032L107.966 69.0864L107.97 64.0344L101.923 68.4214L101.948 73.4346Z" fill="black"/>
<path d="M101.24 73.7998L101.948 73.4346L101.923 68.4214M101.24 73.7998L101.16 57.8782M101.24 73.7998L100.527 73.4413L100.502 68.4281M101.869 57.513L101.16 57.8782M101.869 57.513L101.157 57.1545M101.869 57.513L101.876 58.885M101.16 57.8782L100.448 57.5197M100.448 57.5197L101.157 57.1545M100.448 57.5197L100.446 57.1579L93.0229 53.9855M100.448 57.5197L100.502 68.4281M101.157 57.1545L101.154 56.6343L93.5109 53.1232L92.512 53.5543M93.0229 53.9855L92.512 53.5543M93.0229 53.9855L93.0229 64.4755M92.512 53.5543L92.512 68.8967L93.0462 69.157M93.0462 69.157L93.7553 68.8908L93.7351 64.8189M93.0462 69.157L93.0229 64.4755M93.7351 64.8189L93.0229 64.4755M93.7351 64.8189L100.502 68.4281M101.923 68.4214L107.97 64.0344M101.923 68.4214L101.917 67.2077M108.679 69.6032L108.679 63.6112L107.97 64.0344M108.679 69.6032L107.966 69.0864L107.97 64.0344M108.679 69.6032L109.386 68.9063L109.386 62.1023M109.386 62.1023L101.917 67.2077M109.386 62.1023L102.23 58.7099L101.876 58.885M101.917 67.2077L101.876 58.885" stroke="white"/>
<path d="M11.1085 69.9639V32.229L28.6748 27.0242L37.1326 30.2772V67.6868L19.5664 74.5181L11.1085 69.9639Z" fill="black"/>
<path d="M11.1085 32.229V69.9639L19.5664 74.5181M11.1085 32.229L19.5664 35.1567M11.1085 32.229L28.6748 27.0242L37.1326 30.2772M19.5664 74.5181L37.1326 67.6868V30.2772M19.5664 74.5181V35.1567M37.1326 30.2772L19.5664 35.1567M21.1929 37.1085L35.5061 33.2049V57.9278L21.1929 63.1326V37.1085ZM21.1929 65.0844V71.2651L35.5061 65.735V59.8796L21.1929 65.0844Z" stroke="white"/>
</svg>
