<svg width="141" height="131" viewBox="0 0 141 131" fill="none" xmlns="http://www.w3.org/2000/svg">
<path d="M70.5866 101.518L10.4579 66.6514V22.9071L70.5866 1L130.169 29.9518V73.6541L70.5866 101.518Z" fill="black"/>
<path d="M10.4579 66.6514L70.5866 101.518L130.169 73.6541M10.4579 66.6514L70.5866 43.1877M10.4579 66.6514V22.9071L70.5866 1M130.169 73.6541L70.5866 43.1877M130.169 73.6541V29.9518L70.5866 1M70.5866 43.1877V1" stroke="white"/>
<path d="M74.2169 27.0241V36.1326L118.783 59.5543V68.3374L93.0843 78.4217L48.1928 53.6988L46.241 52.7229V34.8314L71.2892 26.3735L74.2169 27.0241Z" fill="black"/>
<path d="M118.783 59.5543L93.0843 69.3133M118.783 59.5543L74.2169 36.1326M118.783 59.5543V68.3374L93.0843 78.4217M93.0843 69.3133L48.1928 45.241M93.0843 69.3133V78.4217M48.1928 45.241V36.1326M48.1928 45.241V53.6988M48.1928 45.241L74.2169 36.1326M48.1928 36.1326L74.2169 27.0241M48.1928 36.1326L46.241 34.8314M74.2169 27.0241V36.1326M74.2169 27.0241L71.2892 26.3735L46.241 34.8314M93.0843 78.4217L48.1928 53.6988M48.1928 53.6988L46.241 52.7229V34.8314" stroke="white"/>
<path d="M2 74.8434L59.9036 109.976M2 74.8434L6.87952 75.494M2 74.8434L4.60241 78.747M59.9036 109.976L57.9518 106.398M59.9036 109.976H55.6747" stroke="white"/>
<path d="M79.2341 112.008L139.856 81.8066M79.2341 112.008L82.3895 108.23M79.2341 112.008L83.9243 111.892M139.856 81.8066L135.788 81.5464M139.856 81.8066L137.598 85.3823" stroke="white"/>
<path d="M14.6135 66.1174L14.6135 52.2317L42.5369 42.7694L57.0593 48.8192L57.0593 63.3487L55.6365 63.9759L55.6365 50.771L29.9759 60.2048L29.7702 72.6339L28.3494 73.2168L14.6135 66.1174Z" fill="black"/>
<path d="M14.6135 52.2317L14.6135 66.1174L28.3494 73.2168M14.6135 52.2317L42.5369 42.7694L57.0593 48.8192M14.6135 52.2317L28.6747 58.9036M28.3494 73.2168L28.6747 58.9036M28.3494 73.2168L29.7702 72.6339L29.9759 60.2048L55.6365 50.771L55.6365 63.9759L57.0593 63.3487L57.0593 48.8192M57.0593 48.8192L28.6747 58.9036" stroke="white"/>
<path d="M42.0431 77.0306L42.8808 77.4505L43.7227 77.0383L43.7521 71.2745L51.7513 67.1249L51.7274 71.8064L52.5656 72.1125L53.197 71.8132L53.197 54.1737L52.0163 53.678L42.9815 57.7148L42.9785 58.3129L42.1366 58.725L42.1285 60.3025L41.7097 60.1012L33.2519 64.0015L33.2519 71.8242L34.0876 72.6255L34.9304 72.0313L34.9249 66.2229L42.0726 71.2668L42.0431 77.0306Z" fill="black"/>
<path d="M42.8808 77.4505L42.0431 77.0306L42.0726 71.2668M42.8808 77.4505L42.9742 59.1449M42.8808 77.4505L43.7227 77.0383L43.7521 71.2745M42.1366 58.725L42.9742 59.1449M42.1366 58.725L42.9785 58.3129M42.1366 58.725L42.1285 60.3025M42.9742 59.1449L43.8161 58.7328M43.8161 58.7328L42.9785 58.3129M43.8161 58.7328L43.8183 58.3167L52.5931 54.6694M43.8161 58.7328L43.7521 71.2745M42.9785 58.3129L42.9815 57.7148L52.0163 53.678L53.197 54.1737M52.5931 54.6694L53.197 54.1737M52.5931 54.6694L52.5931 66.73M53.197 54.1737L53.197 71.8132L52.5656 72.1125M52.5656 72.1125L51.7274 71.8064L51.7513 67.1249M52.5656 72.1125L52.5931 66.73M51.7513 67.1249L52.5931 66.73M51.7513 67.1249L43.7521 71.2745M42.0726 71.2668L34.9249 66.2229M42.0726 71.2668L42.0797 69.8713M34.0876 72.6255L34.0876 65.7364L34.9249 66.2229M34.0876 72.6255L34.9304 72.0313L34.9249 66.2229M34.0876 72.6255L33.2519 71.8242L33.2519 64.0015M33.2519 64.0015L42.0797 69.8713M33.2519 64.0015L41.7097 60.1012L42.1285 60.3025M42.0797 69.8713L42.1285 60.3025" stroke="white"/>
</svg>
