<svg width="141" height="156" viewBox="0 0 141 156" fill="none" xmlns="http://www.w3.org/2000/svg">
<path d="M70.5866 101.518L10.4579 66.6514V22.9071L70.5866 1L130.169 29.9518V73.6541L70.5866 101.518Z" fill="black"/>
<path d="M10.4579 66.6514L70.5866 101.518L130.169 73.6541M10.4579 66.6514L70.5866 43.1877M10.4579 66.6514V22.9071L70.5866 1M130.169 73.6541L70.5866 43.1877M130.169 73.6541V29.9518L70.5866 1M70.5866 43.1877V1" stroke="white"/>
<path d="M74.2169 27.0241V36.1326L118.783 59.5543V68.3374L93.0843 78.4217L48.1928 53.6988L46.241 52.7229V34.8314L71.2892 26.3735L74.2169 27.0241Z" fill="black"/>
<path d="M118.783 59.5543L93.0843 69.3133M118.783 59.5543L74.2169 36.1326M118.783 59.5543V68.3374L93.0843 78.4217M93.0843 69.3133L48.1928 45.241M93.0843 69.3133V78.4217M48.1928 45.241V36.1326M48.1928 45.241V53.6988M48.1928 45.241L74.2169 36.1326M48.1928 36.1326L74.2169 27.0241M48.1928 36.1326L46.241 34.8314M74.2169 27.0241V36.1326M74.2169 27.0241L71.2892 26.3735L46.241 34.8314M93.0843 78.4217L48.1928 53.6988M48.1928 53.6988L46.241 52.7229V34.8314" stroke="white"/>
<path d="M2 74.8434L59.9036 109.976M2 74.8434L6.87952 75.494M2 74.8434L4.60241 78.747M59.9036 109.976L57.9518 106.398M59.9036 109.976H55.6747" stroke="white"/>
<path d="M79.2341 112.008L139.856 81.8066M79.2341 112.008L82.3895 108.23M79.2341 112.008L83.9243 111.892M139.856 81.8066L135.788 81.5464M139.856 81.8066L137.598 85.3823" stroke="white"/>
<path d="M14.6135 66.1174L14.6135 52.2317L42.5369 42.7694L57.0593 48.8192L57.0593 63.3487L55.6365 63.9759L55.6365 50.771L29.9759 60.2048L29.7702 72.6339L28.3494 73.2168L14.6135 66.1174Z" fill="black"/>
<path d="M14.6135 52.2317L14.6135 66.1174L28.3494 73.2168M14.6135 52.2317L42.5369 42.7694L57.0593 48.8192M14.6135 52.2317L28.6747 58.9036M28.3494 73.2168L28.6747 58.9036M28.3494 73.2168L29.7702 72.6339L29.9759 60.2048L55.6365 50.771L55.6365 63.9759L57.0593 63.3487L57.0593 48.8192M57.0593 48.8192L28.6747 58.9036" stroke="white"/>
<path d="M42.0431 77.0306L42.8808 77.4505L43.7227 77.0383L43.7521 71.2745L51.7513 67.1249L51.7274 71.8064L52.5656 72.1125L53.197 71.8132L53.197 54.1737L52.0163 53.678L42.9815 57.7148L42.9785 58.3129L42.1366 58.725L42.1285 60.3025L41.7097 60.1012L33.2519 64.0015L33.2519 71.8242L34.0876 72.6255L34.9304 72.0313L34.9249 66.2229L42.0726 71.2668L42.0431 77.0306Z" fill="black"/>
<path d="M42.8808 77.4505L42.0431 77.0306L42.0726 71.2668M42.8808 77.4505L42.9742 59.1449M42.8808 77.4505L43.7227 77.0383L43.7521 71.2745M42.1366 58.725L42.9742 59.1449M42.1366 58.725L42.9785 58.3129M42.1366 58.725L42.1285 60.3025M42.9742 59.1449L43.8161 58.7328M43.8161 58.7328L42.9785 58.3129M43.8161 58.7328L43.8183 58.3167L52.5931 54.6694M43.8161 58.7328L43.7521 71.2745M42.9785 58.3129L42.9815 57.7148L52.0163 53.678L53.197 54.1737M52.5931 54.6694L53.197 54.1737M52.5931 54.6694L52.5931 66.73M53.197 54.1737L53.197 71.8132L52.5656 72.1125M52.5656 72.1125L51.7274 71.8064L51.7513 67.1249M52.5656 72.1125L52.5931 66.73M51.7513 67.1249L52.5931 66.73M51.7513 67.1249L43.7521 71.2745M42.0726 71.2668L34.9249 66.2229M42.0726 71.2668L42.0797 69.8713M34.0876 72.6255L34.0876 65.7364L34.9249 66.2229M34.0876 72.6255L34.9304 72.0313L34.9249 66.2229M34.0876 72.6255L33.2519 71.8242L33.2519 64.0015M33.2519 64.0015L42.0797 69.8713M33.2519 64.0015L41.7097 60.1012L42.1285 60.3025M42.0797 69.8713L42.1285 60.3025" stroke="white"/>
<path d="M58.6989 151.773H53.2102V150.818H58.6989V151.773ZM53.2102 148.159V147.477L58.6989 145.5V146.54L54.8636 147.801L54.8977 147.733V147.903L54.8636 147.835L58.6989 149.097V150.136L53.2102 148.159ZM64.4613 153L68.3647 145.278V145.21H63.8647V144.273H69.4556V145.261L65.5692 153H64.4613ZM74.4361 153V146.455H75.4077V147.477H75.4929C75.6293 147.128 75.8494 146.857 76.1534 146.663C76.4574 146.467 76.8224 146.369 77.2486 146.369C77.6804 146.369 78.0398 146.467 78.3267 146.663C78.6165 146.857 78.8423 147.128 79.0043 147.477H79.0724C79.2401 147.139 79.4915 146.871 79.8267 146.672C80.1619 146.47 80.5639 146.369 81.0327 146.369C81.6179 146.369 82.0966 146.553 82.4688 146.919C82.8409 147.283 83.027 147.849 83.027 148.619V153H82.0213V148.619C82.0213 148.136 81.8892 147.791 81.625 147.584C81.3608 147.376 81.0497 147.273 80.6918 147.273C80.2315 147.273 79.875 147.412 79.6222 147.69C79.3693 147.966 79.2429 148.315 79.2429 148.739V153H78.2202V148.517C78.2202 148.145 78.0994 147.845 77.858 147.618C77.6165 147.388 77.3054 147.273 76.9247 147.273C76.6634 147.273 76.419 147.342 76.1918 147.482C75.9673 147.621 75.7855 147.814 75.6463 148.061C75.5099 148.305 75.4418 148.588 75.4418 148.909V153H74.4361ZM84.5419 148.636V147.972L86.5362 146.199C86.7351 146.023 86.9013 145.865 87.0348 145.726C87.1683 145.587 87.2692 145.452 87.3374 145.321C87.4055 145.19 87.4396 145.051 87.4396 144.903C87.4396 144.648 87.3416 144.445 87.1456 144.294C86.9496 144.143 86.7067 144.068 86.4169 144.068C86.1101 144.068 85.8629 144.151 85.6754 144.315C85.4879 144.477 85.3942 144.69 85.3942 144.955H84.5078C84.5078 144.469 84.6882 144.078 85.049 143.783C85.4098 143.484 85.8714 143.335 86.4339 143.335C86.8089 143.335 87.1385 143.403 87.4226 143.54C87.7067 143.673 87.9283 143.858 88.0874 144.094C88.2464 144.327 88.326 144.591 88.326 144.886C88.326 145.119 88.2791 145.335 88.1854 145.534C88.0916 145.733 87.9453 145.939 87.7464 146.152C87.5476 146.365 87.2919 146.608 86.9794 146.881L85.8714 147.852V147.886H88.4794V148.636H84.5419Z" fill="white"/>
</svg>
